{"glyphs":{"0":{"ha":750,"x_min":49,"x_max":701,"o":"m 49 440 q 65 645 49 551 q 147 812 82 740 q 239 875 187 850 q 375 900 291 900 q 512 875 460 900 q 603 812 563 850 q 684 645 667 740 q 701 440 701 551 q 684 234 701 329 q 603 67 667 140 q 512 4 563 29 q 375 -21 460 -21 q 239 4 291 -21 q 147 67 187 29 q 66 234 83 140 q 49 440 49 329 m 271 440 q 277 286 271 347 q 296 195 283 225 q 328 156 307 168 q 375 144 350 144 q 423 156 401 144 q 454 195 444 167 q 473 286 466 226 q 479 440 479 347 q 473 594 479 534 q 454 684 466 654 q 422 723 443 711 q 375 735 401 735 q 328 723 350 735 q 296 684 307 711 q 277 594 284 654 q 271 440 271 534 z "},"1":{"ha":750,"x_min":47,"x_max":701,"o":"m 522 279 q 522 222 522 251 q 521 164 521 193 l 521 86 l 313 86 l 313 164 q 313 222 313 193 q 312 279 312 251 l 312 440 q 315 510 312 468 q 321 596 318 552 q 324 672 324 640 l 318 879 q 372 886 347 885 q 420 888 397 888 q 468 886 443 888 q 522 879 494 885 l 522 279 m 224 178 q 270 177 240 178 q 316 176 301 176 l 518 176 q 567 177 534 176 q 615 178 600 178 l 690 178 q 701 89 701 134 q 690 0 701 45 l 111 0 q 100 89 100 44 q 111 178 100 135 l 224 178 m 47 598 q 215 732 150 663 q 318 879 280 800 l 392 714 q 328 610 370 657 q 236 529 287 563 q 137 473 185 494 q 78 523 105 488 q 47 598 52 558 z "},"2":{"ha":750,"x_min":59,"x_max":685,"o":"m 69 665 q 127 783 87 730 q 229 868 168 837 q 367 900 290 900 q 581 824 501 900 q 661 622 661 749 q 638 517 661 564 q 578 429 615 469 q 495 351 540 389 l 396 273 q 344 229 372 253 q 296 183 316 206 q 275 145 276 161 l 267 -1 l 133 -1 q 82 65 104 32 q 59 138 59 99 q 81 215 59 176 q 139 293 103 253 q 218 370 176 332 l 369 500 q 420 558 399 526 q 441 628 441 589 q 416 695 441 668 q 345 723 391 723 q 265 684 295 723 q 222 601 234 646 q 136 618 184 601 q 69 665 89 635 m 685 183 q 653 39 685 78 q 548 -1 622 -1 l 146 -1 l 89 127 q 216 159 142 147 q 364 177 290 171 q 494 183 438 183 l 685 183 z "},"3":{"ha":750,"x_min":58,"x_max":690,"o":"m 468 281 q 432 365 468 335 q 345 394 397 394 q 307 390 326 394 q 270 378 288 386 q 219 428 242 394 q 190 494 196 462 q 281 520 234 509 q 410 531 328 531 q 553 501 490 531 q 653 414 616 472 q 690 272 690 356 q 663 148 690 203 q 590 56 636 94 q 483 -1 543 18 q 355 -21 422 -21 q 182 9 259 -21 q 58 81 106 38 q 91 157 65 119 q 149 221 116 195 q 229 173 183 193 q 327 153 274 153 q 430 188 392 153 q 468 281 468 222 m 504 562 q 439 510 476 533 q 366 471 401 487 q 305 447 330 456 l 190 494 l 319 619 q 350 649 332 633 q 385 682 367 666 q 413 706 402 697 l 408 715 q 347 702 383 708 q 272 697 310 697 l 104 697 q 92 744 94 723 q 90 779 90 766 q 93 826 90 799 q 108 879 97 853 l 610 879 q 644 804 635 833 q 653 752 653 774 q 611 663 653 706 l 504 562 z "},"4":{"ha":750,"x_min":35,"x_max":714,"o":"m 82 156 q 49 225 63 188 q 35 290 35 261 q 44 338 35 313 q 61 381 53 363 l 288 890 q 359 893 319 897 q 434 877 399 889 q 486 845 469 865 l 393 635 q 350 540 376 597 q 294 426 324 483 q 238 333 264 369 l 242 326 q 309 332 270 330 q 381 335 348 334 q 426 337 415 337 l 592 337 q 631 338 619 337 q 672 338 644 338 l 709 338 q 713 299 713 319 q 714 261 714 280 q 711 211 714 240 q 701 159 708 183 l 672 159 q 631 159 644 159 q 592 159 619 159 l 385 159 q 334 158 358 159 q 283 156 310 156 l 82 156 m 384 58 q 385 109 384 86 q 385 159 385 133 l 385 302 q 385 332 385 310 q 384 363 384 354 l 384 408 q 423 534 384 488 q 534 581 463 581 l 584 581 l 593 572 l 593 437 q 592 386 593 409 q 592 337 592 363 l 592 159 q 592 109 592 133 q 593 58 593 86 l 593 0 q 539 -7 565 -5 q 489 -8 512 -8 q 439 -7 465 -8 q 384 0 413 -5 l 384 58 z "},"5":{"ha":750,"x_min":58,"x_max":681,"o":"m 313 604 q 304 545 310 574 q 286 488 298 517 q 192 465 244 473 q 94 456 140 457 l 118 868 l 308 834 q 315 780 313 813 q 319 714 318 746 q 318 663 319 681 l 313 604 m 58 76 q 89 150 64 106 q 146 217 114 194 q 228 171 187 188 q 317 155 269 155 q 389 170 356 155 q 440 216 421 185 q 459 291 459 247 q 440 366 459 337 q 389 409 421 395 q 320 424 358 424 q 259 413 288 424 q 202 381 229 401 q 141 408 173 386 q 94 456 110 430 q 165 512 123 481 q 262 566 207 543 q 383 588 317 588 q 603 508 525 588 q 681 300 681 428 q 630 120 681 191 q 501 14 580 49 q 336 -21 422 -21 q 182 4 256 -21 q 58 76 109 29 m 633 879 q 646 830 643 853 q 649 790 649 806 q 556 700 649 700 l 330 700 q 254 701 297 700 q 176 705 212 703 q 126 709 140 707 l 118 868 l 129 879 l 633 879 z "},"6":{"ha":750,"x_min":51,"x_max":699,"o":"m 383 -21 q 262 -2 311 -21 q 184 42 213 17 q 142 84 156 67 q 117 119 133 97 q 87 180 102 142 q 61 279 72 219 q 51 428 51 340 q 95 681 51 576 q 226 843 140 787 q 431 900 311 900 q 558 887 501 900 q 658 851 615 874 q 637 769 655 810 q 588 703 619 728 q 525 723 560 715 q 449 731 490 731 q 349 702 387 731 q 293 623 310 674 q 276 504 276 572 l 276 360 q 281 280 276 315 q 294 218 285 244 q 315 176 303 192 q 343 151 326 162 q 386 140 360 140 q 462 180 439 140 q 485 281 485 220 q 474 361 485 331 q 442 405 463 391 q 390 418 421 418 q 328 406 358 418 q 271 371 298 394 q 219 315 244 348 l 184 423 q 242 503 206 465 q 330 566 278 542 q 447 591 381 591 q 629 521 560 591 q 699 294 699 451 q 655 123 699 193 q 540 16 612 52 q 383 -21 469 -21 z "},"7":{"ha":750,"x_min":68,"x_max":697,"o":"m 659 879 q 685 812 672 850 q 697 747 697 774 q 690 709 697 731 q 667 667 682 687 q 557 508 602 580 q 483 367 512 435 q 438 226 454 299 q 415 65 422 153 l 409 0 q 360 -6 388 -4 q 301 -8 332 -8 q 244 -6 273 -8 q 190 0 216 -4 l 196 67 q 244 306 206 188 q 347 527 283 424 q 497 708 410 631 l 490 716 q 447 708 473 711 q 392 702 420 704 q 338 698 363 699 q 298 697 313 697 l 79 697 q 68 772 68 732 q 74 828 68 800 q 88 879 79 857 l 659 879 z "},"8":{"ha":750,"x_min":42,"x_max":708,"o":"m 42 224 q 76 341 42 289 q 161 430 109 393 q 268 486 213 467 l 406 428 q 292 339 324 390 q 260 238 260 288 q 291 160 260 191 q 375 128 322 128 q 436 143 412 128 q 474 182 461 158 q 487 235 487 207 q 474 288 487 263 q 434 334 460 313 q 369 369 408 354 l 333 384 q 189 455 249 418 q 97 541 128 492 q 65 660 65 590 q 105 782 65 727 q 215 868 145 836 q 375 900 285 900 q 538 869 469 900 q 645 785 607 839 q 683 663 683 732 q 653 564 683 607 q 577 491 623 520 q 482 447 531 461 l 349 508 q 444 571 413 533 q 475 655 475 608 q 448 720 475 694 q 374 747 420 747 q 304 722 331 747 q 276 660 276 697 q 307 594 276 621 q 392 548 338 568 l 427 535 q 570 466 507 506 q 671 370 634 426 q 708 234 708 315 q 661 97 708 154 q 538 10 615 40 q 365 -21 460 -21 q 131 44 219 -21 q 42 224 42 110 z "},"9":{"ha":750,"x_min":51,"x_max":699,"o":"m 367 900 q 488 881 440 900 q 566 837 537 862 q 608 795 595 813 q 633 760 617 783 q 663 699 648 738 q 689 600 678 660 q 699 451 699 540 q 655 198 699 303 q 525 36 610 92 q 319 -21 440 -21 q 192 -7 249 -21 q 92 28 135 6 q 113 110 95 69 q 162 176 131 151 q 225 157 190 165 q 301 149 260 149 q 402 177 364 149 q 457 257 440 206 q 474 375 474 308 l 474 519 q 469 600 474 564 q 456 661 465 635 q 435 703 447 688 q 407 728 424 717 q 364 740 390 740 q 288 699 311 740 q 265 599 265 659 q 276 519 265 549 q 309 475 288 488 q 360 461 330 461 q 422 473 392 461 q 480 509 452 485 q 531 565 507 532 l 566 456 q 508 376 544 415 q 420 313 472 338 q 303 288 369 288 q 121 358 190 288 q 51 585 51 428 q 95 757 51 686 q 210 864 138 827 q 367 900 282 900 z "},"\r":{"ha":0,"x_min":0,"x_max":0,"o":""}," ":{"ha":306,"x_min":0,"x_max":0,"o":""}," ":{"ha":694,"x_min":0,"x_max":0,"o":""}," ":{"ha":1389,"x_min":0,"x_max":0,"o":""}," ":{"ha":750,"x_min":0,"x_max":0,"o":""}," ":{"ha":199,"x_min":0,"x_max":0,"o":""}," ":{"ha":398,"x_min":0,"x_max":0,"o":""}," ":{"ha":306,"x_min":0,"x_max":0,"o":""}," ":{"ha":278,"x_min":0,"x_max":0,"o":""},"​":{"ha":0,"x_min":0,"x_max":0,"o":""},"A":{"ha":886,"x_min":12,"x_max":874,"o":"m 319 949 q 382 955 345 953 q 447 957 419 957 q 511 955 474 957 q 576 947 549 953 l 874 15 q 815 -6 851 1 q 747 -12 778 -12 q 665 12 694 -12 q 615 108 635 37 l 515 460 q 478 598 499 519 q 439 746 457 677 l 431 746 q 412 660 424 708 q 387 566 400 613 q 363 481 374 519 l 222 -1 q 177 -8 201 -6 q 127 -10 153 -10 q 70 -6 102 -10 q 20 6 39 -1 l 12 17 l 319 949 m 335 199 q 313 199 326 199 q 288 200 300 199 q 265 200 275 200 l 148 200 l 215 373 l 318 373 q 340 373 328 373 q 365 374 353 374 q 388 374 378 374 l 489 374 q 511 374 499 374 q 536 373 524 374 q 559 373 549 373 l 665 373 l 722 200 l 604 200 q 582 200 594 200 q 556 199 569 199 q 533 199 543 199 l 335 199 z "},"B":{"ha":853,"x_min":106,"x_max":805,"o":"m 115 951 q 280 955 199 953 q 435 957 362 957 q 606 930 533 957 q 719 848 678 903 q 760 704 760 792 q 737 609 760 653 q 676 535 714 565 q 591 501 638 506 l 591 523 q 696 485 647 520 q 775 393 745 449 q 805 273 805 338 q 762 114 805 176 q 642 22 719 51 q 458 -8 564 -8 q 291 -7 377 -8 q 115 -3 204 -5 l 106 7 l 106 942 l 115 951 m 324 147 q 389 148 358 148 q 442 149 419 149 q 529 170 499 149 q 570 222 559 191 q 582 282 582 253 q 570 344 582 313 q 527 397 558 376 q 440 419 496 419 l 241 419 l 241 576 l 424 576 q 497 593 472 576 q 533 636 523 610 q 544 689 544 662 q 533 742 544 717 q 497 783 523 767 q 424 799 471 799 q 378 800 406 799 q 324 801 351 800 l 324 147 z "},"C":{"ha":846,"x_min":50,"x_max":813,"o":"m 601 571 q 590 680 603 628 q 544 762 577 731 q 449 794 510 794 q 321 710 359 794 q 283 469 283 627 q 333 247 283 321 q 474 173 383 173 q 603 203 546 173 q 710 270 661 234 q 774 207 742 249 q 812 127 805 166 q 712 54 772 88 q 581 0 653 20 q 433 -21 510 -21 q 250 22 324 -21 q 132 136 176 65 q 69 294 88 207 q 50 471 50 381 q 106 756 50 646 q 253 918 161 866 q 456 970 345 970 q 644 932 564 970 q 768 828 724 894 q 813 681 813 763 q 779 588 813 616 q 685 559 745 559 q 642 563 662 559 q 601 571 622 566 z "},"D":{"ha":927,"x_min":106,"x_max":876,"o":"m 876 475 q 864 318 876 394 q 819 178 853 243 q 719 61 786 113 q 642 21 688 36 q 550 -1 597 6 q 465 -8 503 -8 q 348 -8 405 -8 q 233 -6 290 -7 q 115 -3 176 -4 l 106 7 l 106 942 l 115 951 q 232 955 175 953 q 347 957 290 956 q 465 957 405 957 q 551 950 503 957 q 643 927 598 943 q 719 887 688 912 q 819 770 785 835 q 864 630 852 705 q 876 475 876 556 m 647 475 q 641 582 647 528 q 615 682 634 637 q 560 756 597 728 q 465 784 524 784 q 397 784 429 784 q 327 785 364 785 l 327 164 q 397 165 364 165 q 465 165 429 165 q 560 193 524 165 q 615 267 597 221 q 641 368 634 313 q 647 475 647 422 z "},"E":{"ha":796,"x_min":104,"x_max":747,"o":"m 104 939 l 114 949 l 323 949 l 323 766 q 324 714 323 737 q 324 663 324 691 l 324 281 q 324 231 324 253 q 323 181 323 209 l 323 -4 l 232 -4 q 138 31 172 -4 q 104 126 104 65 l 104 939 m 630 567 q 640 521 638 547 q 643 476 643 494 q 640 433 643 458 q 630 386 638 408 l 418 386 q 369 386 401 386 q 303 388 337 387 q 247 389 269 388 l 247 565 q 303 566 269 565 q 369 567 337 567 q 418 567 401 567 l 630 567 m 713 949 q 719 902 718 924 q 720 861 720 880 q 716 815 720 842 q 702 763 711 788 l 418 763 q 369 763 401 763 q 303 764 337 763 q 247 765 269 765 l 247 949 l 713 949 m 747 182 q 719 43 747 90 q 601 -4 690 -4 l 247 -4 l 247 175 q 334 180 292 177 q 426 182 375 182 l 747 182 z "},"F":{"ha":743,"x_min":106,"x_max":719,"o":"m 328 0 q 272 -7 300 -5 q 219 -8 243 -8 q 165 -7 197 -8 q 106 0 134 -5 l 106 940 l 115 949 l 327 949 l 327 883 q 328 766 327 825 q 328 651 328 706 l 328 0 m 709 949 q 717 907 715 931 q 719 863 719 883 q 689 785 719 809 q 600 760 660 760 l 426 760 q 328 761 374 760 q 236 762 282 762 l 236 949 l 709 949 m 624 563 q 633 517 631 544 q 636 473 636 491 q 633 428 636 454 q 624 381 631 401 l 355 381 q 294 382 325 381 q 244 384 264 383 l 244 560 q 294 563 264 562 q 355 563 325 563 l 624 563 z "},"G":{"ha":909,"x_min":50,"x_max":837,"o":"m 835 870 q 800 778 831 823 q 735 710 769 733 q 625 765 685 744 q 506 785 565 785 q 385 752 436 785 q 305 649 333 719 q 277 467 277 578 q 337 229 277 304 q 509 154 397 154 q 631 167 577 154 q 721 189 685 179 l 837 37 q 740 10 797 24 q 615 -12 683 -3 q 471 -21 547 -21 q 285 13 364 -21 q 153 111 206 47 q 76 265 101 175 q 50 468 50 356 q 87 689 50 594 q 187 845 124 783 q 329 939 250 908 q 493 969 408 969 q 676 942 588 969 q 835 870 764 915 m 628 258 q 632 362 628 307 q 649 464 635 417 l 837 401 l 837 37 l 628 34 l 628 258 m 690 539 q 805 500 773 539 q 837 401 837 462 l 837 354 l 563 354 q 483 374 510 354 q 457 447 457 394 q 461 494 457 469 q 473 539 466 519 l 690 539 z "},"H":{"ha":953,"x_min":106,"x_max":847,"o":"m 397 396 q 374 396 387 396 q 350 397 362 397 q 327 397 338 397 q 260 397 294 397 q 193 396 226 396 l 193 582 q 260 581 226 582 q 327 581 294 581 q 350 581 338 581 q 374 582 362 581 q 397 582 387 582 l 557 582 q 579 582 567 582 q 604 581 592 581 q 626 581 617 581 q 693 581 659 581 q 760 582 727 582 l 760 396 q 693 397 727 396 q 626 397 659 397 q 604 397 617 397 q 579 396 592 397 q 557 396 567 396 l 397 396 m 328 0 q 270 -7 301 -5 q 217 -8 239 -8 q 164 -7 197 -8 q 106 0 132 -5 l 106 949 q 164 956 132 954 q 217 957 197 957 q 270 956 239 957 q 328 949 301 954 l 328 683 q 328 632 328 654 q 327 581 327 609 l 327 397 q 328 347 327 369 q 328 294 328 324 l 328 0 m 625 294 q 626 347 625 324 q 626 397 626 369 l 626 581 q 626 632 626 609 q 625 683 625 654 l 625 949 q 683 956 653 954 q 736 957 714 957 q 789 956 756 957 q 847 949 821 954 l 847 0 q 791 -7 819 -5 q 739 -8 762 -8 q 684 -7 715 -8 q 625 0 653 -5 l 625 294 z "},"I":{"ha":438,"x_min":108,"x_max":330,"o":"m 108 949 q 166 956 134 954 q 219 957 199 957 q 272 956 241 957 q 330 949 302 954 l 330 0 q 272 -7 302 -5 q 219 -8 241 -8 q 166 -7 199 -8 q 108 0 134 -5 l 108 949 z "},"J":{"ha":654,"x_min":14,"x_max":563,"o":"m 90 211 q 151 182 119 194 q 215 169 183 169 q 315 215 291 169 q 340 343 340 261 l 340 949 q 399 956 367 954 q 451 957 431 957 q 504 956 474 957 q 563 949 535 954 l 563 364 q 549 213 563 282 q 499 93 535 144 q 401 14 464 42 q 240 -14 338 -14 q 124 1 185 -14 q 14 47 63 16 q 40 133 20 89 q 90 211 60 178 z "},"K":{"ha":862,"x_min":106,"x_max":853,"o":"m 106 949 q 164 956 132 954 q 217 957 197 957 q 270 956 239 957 q 328 949 301 954 l 328 0 q 270 -7 301 -5 q 217 -8 239 -8 q 164 -7 197 -8 q 106 0 132 -5 l 106 949 m 853 55 q 791 6 831 23 q 706 -12 750 -12 q 618 19 645 -12 q 571 115 591 51 l 519 277 q 468 371 498 343 q 389 399 438 399 q 313 395 358 399 q 215 387 268 392 l 215 523 l 492 523 q 615 501 570 523 q 685 441 660 478 q 724 357 709 403 l 781 185 q 805 122 794 145 q 826 84 815 99 q 853 55 837 69 m 558 880 q 601 938 578 919 q 672 956 624 956 q 736 955 699 956 q 806 950 773 953 l 817 935 l 649 616 q 548 498 610 541 q 384 456 487 456 l 215 456 l 215 581 q 290 582 252 581 q 363 583 327 583 q 401 593 390 583 q 426 631 412 603 l 558 880 z "},"L":{"ha":726,"x_min":104,"x_max":698,"o":"m 327 -4 l 233 -4 q 139 31 174 -4 q 104 126 104 65 l 104 949 l 114 958 l 195 958 q 293 925 259 958 q 327 817 327 892 l 327 -4 m 698 188 q 664 39 698 82 q 547 -4 629 -4 l 233 -4 l 114 157 q 294 180 205 173 q 457 188 383 188 l 698 188 z "},"M":{"ha":1158,"x_min":76,"x_max":1081,"o":"m 149 947 q 227 956 185 953 q 299 958 269 958 q 367 956 330 958 q 440 947 405 953 l 522 608 q 532 565 525 595 q 547 495 538 534 q 562 419 555 457 q 574 355 569 381 l 583 355 q 595 419 588 381 q 611 495 603 457 q 626 565 619 534 q 635 608 633 595 l 717 947 q 790 956 753 953 q 858 958 828 958 q 931 956 888 958 q 1008 947 973 953 l 1081 3 q 1026 -6 1058 -3 q 969 -8 995 -8 q 920 -7 944 -8 q 872 -1 896 -6 l 851 385 q 845 492 848 435 q 841 604 843 549 q 840 705 840 660 l 830 705 l 693 140 q 635 134 668 135 q 578 132 601 132 q 523 134 557 132 q 464 140 489 135 l 327 705 l 318 705 q 316 604 318 660 q 312 492 315 549 q 307 385 310 435 l 285 -1 q 238 -7 262 -6 q 188 -8 213 -8 q 131 -6 162 -8 q 76 3 100 -3 l 149 947 z "},"N":{"ha":967,"x_min":106,"x_max":860,"o":"m 106 944 q 174 954 132 951 q 237 957 215 957 q 294 956 258 957 q 366 949 330 954 l 310 696 l 295 691 q 305 557 301 632 q 310 408 308 483 q 313 276 313 334 l 313 0 q 259 -7 285 -5 q 212 -8 233 -8 q 162 -7 192 -8 q 106 0 132 -5 l 106 944 m 378 497 q 335 602 355 551 q 301 694 315 653 l 198 813 l 366 949 l 580 453 q 629 336 606 392 q 667 242 651 281 l 779 120 l 598 0 l 378 497 m 860 949 l 860 4 q 791 -5 834 -2 q 726 -8 749 -8 q 670 -7 705 -8 q 598 0 635 -5 l 656 240 l 672 244 q 663 386 667 309 q 657 535 658 463 q 655 654 655 606 l 655 824 q 685 928 655 898 q 779 958 715 958 l 851 958 l 860 949 z "},"O":{"ha":926,"x_min":50,"x_max":876,"o":"m 282 475 q 288 363 282 420 q 312 258 294 306 q 367 180 331 210 q 463 150 403 150 q 559 180 524 150 q 614 258 595 210 q 638 363 632 306 q 644 475 644 420 q 638 586 644 530 q 614 691 632 643 q 559 769 595 740 q 463 799 524 799 q 367 769 403 799 q 312 691 331 740 q 288 586 294 643 q 282 475 282 530 m 50 475 q 95 735 50 624 q 231 908 140 846 q 463 969 323 969 q 696 907 604 969 q 832 734 788 845 q 876 475 876 623 q 831 214 876 326 q 695 41 786 103 q 463 -21 603 -21 q 231 42 322 -21 q 94 216 139 104 q 50 475 50 327 z "},"P":{"ha":818,"x_min":106,"x_max":778,"o":"m 778 626 q 734 445 778 518 q 613 334 690 372 q 438 297 536 297 l 234 297 l 234 460 q 292 463 253 461 q 368 465 331 464 q 419 466 405 466 q 503 492 474 466 q 541 556 531 519 q 551 626 551 593 q 541 696 551 659 q 503 760 531 733 q 419 786 474 786 q 377 786 398 786 q 328 788 357 787 l 328 0 q 270 -7 301 -5 q 217 -8 239 -8 q 164 -7 197 -8 q 106 0 132 -5 l 106 942 l 115 951 q 282 955 204 953 q 438 957 359 957 q 613 921 536 957 q 734 812 690 885 q 778 626 778 739 z "},"Q":{"ha":930,"x_min":50,"x_max":893,"o":"m 278 475 q 285 363 278 420 q 311 257 292 306 q 367 180 330 209 q 465 150 404 150 q 562 180 525 150 q 618 257 599 209 q 643 363 637 306 q 650 475 650 420 q 643 588 650 531 q 618 692 637 644 q 562 769 599 740 q 465 799 525 799 q 367 769 404 799 q 311 692 330 740 q 285 588 292 644 q 278 475 278 531 m 50 475 q 95 733 50 622 q 232 907 140 844 q 465 969 324 969 q 699 906 607 969 q 835 731 791 843 q 880 474 880 619 q 863 307 880 387 q 810 165 846 227 q 718 65 774 102 q 584 28 663 28 q 529 -6 559 9 q 465 -21 499 -21 q 231 43 322 -21 q 94 218 139 106 q 50 475 50 330 m 387 47 l 588 115 l 718 23 q 784 -17 755 -3 q 839 -37 813 -31 q 893 -43 865 -42 q 850 -158 892 -116 q 753 -201 808 -201 q 669 -185 704 -201 q 605 -145 633 -170 l 387 47 z "},"R":{"ha":854,"x_min":106,"x_max":835,"o":"m 786 655 q 760 536 786 588 q 696 451 735 485 q 617 401 657 417 q 682 353 656 387 q 724 273 708 319 l 766 156 q 795 97 778 123 q 835 53 812 71 q 773 6 813 25 q 687 -12 732 -12 q 600 20 627 -12 q 551 116 573 52 l 501 261 q 464 323 489 297 q 383 348 439 348 l 235 348 l 235 514 q 302 517 263 515 q 378 520 342 519 q 429 521 415 521 q 510 540 482 521 q 549 590 538 559 q 560 655 560 620 q 549 722 560 691 q 510 770 538 752 q 429 789 482 789 q 382 789 408 789 q 326 790 356 790 l 326 0 q 268 -7 298 -5 q 215 -8 238 -8 q 164 -7 196 -8 q 106 0 132 -5 l 106 942 l 115 951 q 286 955 204 953 q 448 957 369 957 q 621 925 544 957 q 742 827 697 894 q 786 655 786 760 z "},"S":{"ha":774,"x_min":21,"x_max":738,"o":"m 21 83 q 50 175 25 130 q 107 249 75 221 q 240 186 165 214 q 388 158 314 158 q 475 187 449 158 q 501 249 501 216 q 487 300 501 272 q 414 353 472 329 l 247 423 q 104 519 160 459 q 48 679 48 580 q 93 831 48 766 q 215 933 138 897 q 386 969 292 969 q 571 944 485 969 q 712 890 658 918 q 689 798 709 842 q 637 724 669 753 q 513 770 584 749 q 386 791 442 791 q 301 764 326 791 q 276 709 276 737 q 293 662 276 683 q 357 622 311 641 l 528 551 q 642 482 595 524 q 713 389 689 441 q 738 277 738 338 q 697 125 738 193 q 575 18 656 58 q 372 -21 494 -21 q 193 6 288 -21 q 21 83 98 33 z "},"T":{"ha":708,"x_min":5,"x_max":711,"o":"m 13 764 q 6 813 8 789 q 5 856 5 837 q 6 899 5 875 q 13 949 8 924 l 700 949 q 708 908 706 931 q 711 863 711 885 q 683 786 711 809 q 595 764 655 764 l 554 764 q 511 765 539 764 q 467 765 483 765 l 244 765 q 200 765 228 765 q 156 764 172 764 l 13 764 m 244 663 q 244 714 244 691 q 245 765 245 736 l 245 857 l 465 857 l 465 765 q 466 714 465 736 q 467 663 467 691 l 467 0 q 408 -7 438 -5 q 356 -8 378 -8 q 302 -7 332 -8 q 244 0 272 -5 l 244 663 z "},"U":{"ha":935,"x_min":92,"x_max":843,"o":"m 843 350 q 799 150 843 233 q 672 23 756 67 q 467 -21 588 -21 q 263 23 347 -21 q 135 150 179 67 q 92 350 92 233 l 92 949 l 101 958 l 183 958 q 281 925 247 958 q 315 817 315 892 l 315 348 q 349 205 315 253 q 467 156 384 156 q 586 205 551 156 q 621 348 621 253 l 621 949 q 678 956 649 954 q 729 957 708 957 q 783 956 749 957 q 843 949 817 954 l 843 350 z "},"V":{"ha":842,"x_min":12,"x_max":831,"o":"m 623 949 q 673 956 647 954 q 719 957 698 957 q 769 953 740 957 q 822 942 799 950 l 831 930 l 570 0 q 484 -6 532 -4 q 393 -8 436 -8 q 295 12 331 -8 q 243 92 260 33 l 12 928 q 76 951 42 942 q 146 961 110 961 q 223 935 195 961 q 265 851 251 908 l 372 456 q 393 372 383 415 q 410 286 402 329 q 425 203 419 244 q 440 185 428 185 l 623 949 z "},"W":{"ha":1255,"x_min":21,"x_max":1227,"o":"m 21 935 q 77 953 45 946 q 138 961 108 961 q 223 936 197 961 q 261 839 250 910 l 319 480 q 334 383 327 435 q 348 285 342 332 q 358 204 355 238 q 362 188 359 191 q 372 185 365 185 l 486 931 q 557 939 519 936 q 628 941 596 941 q 701 939 663 941 q 770 931 739 936 l 876 204 q 882 188 878 190 q 892 185 885 185 q 902 275 896 224 q 917 381 909 326 q 933 483 925 435 l 1012 949 q 1062 956 1036 954 q 1111 957 1088 957 q 1166 953 1138 957 q 1216 942 1194 949 l 1227 928 l 1043 1 q 951 -6 1005 -3 q 853 -8 897 -8 q 766 8 804 -8 q 718 92 728 25 l 671 392 q 648 562 658 474 q 631 715 637 649 l 620 715 q 601 562 613 649 q 575 392 589 475 l 512 1 q 422 -6 472 -3 q 326 -8 372 -8 q 235 8 273 -8 q 185 92 198 25 l 21 935 z "},"X":{"ha":856,"x_min":12,"x_max":844,"o":"m 34 914 q 106 949 67 936 q 178 962 144 962 q 257 943 226 962 q 319 876 288 925 l 844 35 q 773 0 811 13 q 699 -13 734 -13 q 620 6 652 -13 q 556 74 588 24 l 34 914 m 601 949 q 642 955 619 953 q 694 957 665 957 q 757 951 726 957 q 810 938 789 946 l 816 927 l 520 440 l 430 338 l 229 0 q 188 -6 212 -4 q 136 -8 165 -8 q 73 -3 104 -8 q 17 10 41 3 l 12 23 l 336 551 l 426 652 l 601 949 z "},"Y":{"ha":753,"x_min":-3,"x_max":757,"o":"m 265 425 l 488 425 l 488 0 q 430 -7 460 -5 q 378 -8 400 -8 q 325 -7 358 -8 q 265 0 292 -5 l 265 425 m 549 949 q 594 956 572 954 q 639 957 617 957 q 697 953 667 957 q 748 941 726 949 l 757 928 l 477 265 l 279 265 l -3 922 q 61 949 25 938 q 132 960 97 960 q 205 939 179 960 q 249 872 230 919 l 315 706 q 348 612 333 662 q 378 506 364 563 l 387 506 q 407 577 396 542 q 430 647 417 613 q 455 713 442 682 l 549 949 z "},"Z":{"ha":805,"x_min":52,"x_max":753,"o":"m 388 640 q 441 707 408 667 q 499 776 474 747 l 495 780 q 442 775 471 777 q 385 771 414 772 q 329 769 356 769 q 281 768 302 768 l 82 768 q 75 806 77 788 q 74 842 74 824 q 78 896 74 871 q 89 949 82 921 l 703 949 q 724 870 718 897 q 732 833 731 844 q 734 813 734 821 q 729 774 734 794 q 710 735 724 755 l 400 310 q 349 245 380 282 q 292 179 319 208 l 296 175 q 400 182 341 178 q 504 185 460 185 l 581 185 q 671 194 632 185 q 738 217 710 204 q 748 170 744 197 q 753 117 753 144 q 712 29 753 58 q 608 0 672 0 l 76 0 q 61 75 66 49 q 54 112 56 100 q 52 133 52 124 q 59 175 52 153 q 78 215 65 197 l 388 640 z "},"a":{"ha":713,"x_min":42,"x_max":672,"o":"m 42 190 q 81 327 42 274 q 182 406 119 380 q 317 431 245 431 q 395 430 348 431 q 481 421 443 428 l 481 283 q 409 291 451 290 q 340 292 367 292 q 273 268 293 292 q 253 204 253 243 q 270 158 253 176 q 317 140 288 140 q 401 169 358 140 q 474 251 444 199 l 505 114 q 443 51 478 82 q 362 -1 408 19 q 253 -21 315 -21 q 134 11 181 -21 q 65 92 88 43 q 42 190 42 140 m 672 100 q 646 38 666 72 q 606 -11 626 5 q 505 17 544 -10 q 443 82 465 43 q 416 157 422 120 l 416 454 q 394 520 416 498 q 325 542 372 542 q 228 528 281 542 q 120 498 175 514 q 84 566 97 524 q 68 649 72 608 q 172 682 115 668 q 285 702 228 695 q 386 710 342 710 q 503 687 447 710 q 596 613 560 665 q 633 473 633 561 l 633 190 q 642 138 633 160 q 672 100 651 115 z "},"b":{"ha":743,"x_min":83,"x_max":702,"o":"m 295 35 l 83 35 l 83 1013 l 92 1022 l 174 1022 q 267 993 238 1022 q 295 892 295 964 l 295 35 m 701 356 q 660 161 702 244 q 539 33 617 78 q 355 -12 461 -12 q 209 0 279 -12 q 83 35 138 13 l 185 194 q 268 156 224 169 q 359 143 311 143 q 428 168 401 143 q 467 241 454 194 q 479 353 479 288 q 457 490 479 447 q 390 533 435 532 q 325 513 360 534 q 263 445 289 492 l 233 609 q 294 659 261 637 q 366 694 326 681 q 455 707 406 707 q 592 661 538 707 q 674 537 647 616 q 701 356 701 458 z "},"c":{"ha":659,"x_min":42,"x_max":624,"o":"m 429 385 q 425 477 430 440 q 402 533 419 514 q 349 553 385 553 q 282 503 300 553 q 263 345 263 454 q 294 192 263 235 q 383 149 324 149 q 464 166 424 149 q 536 207 503 183 q 587 155 563 192 q 618 86 611 118 q 498 8 572 38 q 348 -21 425 -21 q 216 5 273 -21 q 120 79 159 31 q 61 194 81 127 q 42 345 42 262 q 68 516 42 446 q 140 630 95 587 q 241 694 185 674 q 353 714 296 714 q 461 697 411 714 q 547 650 510 681 q 603 577 583 619 q 624 483 624 535 q 593 403 624 428 q 517 378 563 378 q 469 380 490 378 q 429 385 449 382 z "},"d":{"ha":748,"x_min":44,"x_max":701,"o":"m 663 201 q 673 140 663 167 q 701 100 684 113 q 675 38 695 72 q 635 -11 656 5 q 497 51 544 -10 q 451 198 451 111 l 451 1013 l 460 1022 l 545 1022 q 636 993 609 1022 q 663 892 663 964 l 663 201 m 44 338 q 82 540 44 458 q 183 665 120 622 q 323 707 247 707 q 451 677 395 707 q 553 619 507 648 l 518 465 q 436 522 478 498 q 360 546 394 546 q 307 520 327 546 q 276 448 286 495 q 267 337 267 401 q 277 232 267 273 q 307 173 288 192 q 350 153 326 153 q 402 167 372 153 q 459 218 431 181 q 506 329 488 256 l 554 206 q 512 98 548 150 q 419 13 476 46 q 294 -21 363 -21 q 154 25 210 -21 q 72 152 99 71 q 44 338 44 233 z "},"e":{"ha":690,"x_min":42,"x_max":642,"o":"m 181 276 l 181 426 l 442 426 l 442 442 q 433 500 442 474 q 405 543 424 527 q 351 560 385 560 q 280 518 301 560 q 260 390 260 476 l 260 324 q 268 236 260 277 q 303 170 276 195 q 386 145 331 145 q 479 157 433 145 q 566 187 524 169 q 605 127 590 163 q 624 58 619 91 q 498 0 572 20 q 351 -21 425 -21 q 199 9 259 -21 q 105 91 140 40 q 56 208 70 143 q 42 342 42 273 q 73 531 42 447 q 174 665 105 615 q 353 714 242 714 q 509 675 444 714 q 608 570 574 636 q 642 419 642 503 q 638 342 642 373 q 624 276 633 311 l 181 276 z "},"f":{"ha":503,"x_min":-6,"x_max":560,"o":"m 228 692 l 501 694 q 507 657 505 677 q 508 619 508 637 q 507 580 508 601 q 501 540 505 558 l 225 544 l 3 540 q -3 580 -1 558 q -6 619 -6 601 q -3 657 -6 637 q 3 694 -1 677 l 228 692 m 122 603 q 111 693 118 648 q 104 785 104 738 q 134 909 104 855 q 219 996 165 964 q 347 1028 274 1028 q 467 1016 412 1028 q 559 990 523 1003 q 547 911 560 953 q 513 847 533 869 q 463 858 492 852 q 406 865 434 865 q 336 841 361 865 q 312 770 312 817 q 320 686 312 731 q 334 601 329 640 l 334 0 q 226 -8 284 -8 q 122 0 172 -8 l 122 603 z "},"g":{"ha":744,"x_min":44,"x_max":703,"o":"m 703 593 q 675 553 685 581 q 664 493 664 526 l 664 126 q 655 -34 664 29 q 631 -138 647 -98 q 592 -206 615 -178 q 483 -283 551 -258 q 332 -307 415 -307 q 196 -294 267 -307 q 71 -261 125 -281 q 86 -177 71 -223 q 124 -104 101 -131 q 217 -135 169 -124 q 312 -146 266 -146 q 393 -128 363 -146 q 438 -79 424 -111 q 452 -5 452 -47 l 452 496 q 499 643 452 583 q 637 704 545 703 q 678 655 657 689 q 703 593 699 622 m 44 345 q 83 547 44 465 q 184 672 121 629 q 323 714 247 714 q 439 692 391 714 q 518 638 486 669 q 567 575 549 606 l 531 398 q 445 513 491 474 q 361 553 399 553 q 289 497 310 553 q 267 344 267 441 q 290 204 267 247 q 349 160 313 160 q 430 189 390 160 q 497 274 470 217 l 528 123 q 469 53 505 84 q 388 4 433 22 q 294 -14 343 -14 q 154 32 210 -14 q 72 159 99 78 q 44 345 44 240 z "},"h":{"ha":754,"x_min":83,"x_max":709,"o":"m 295 0 q 188 -8 249 -8 q 83 0 133 -8 l 83 1013 l 92 1022 l 177 1022 q 268 993 241 1022 q 295 892 295 964 l 295 0 m 675 174 q 683 98 675 133 q 709 35 690 62 q 650 2 685 16 q 574 -11 615 -11 q 483 24 508 -11 q 458 124 458 58 l 458 419 q 445 489 458 466 q 398 511 433 511 q 349 499 377 511 q 292 461 320 488 q 243 392 264 435 l 243 581 q 349 667 292 629 q 481 706 406 706 q 587 674 544 706 q 653 587 631 642 q 675 458 675 531 l 675 174 z "},"i":{"ha":414,"x_min":20,"x_max":333,"o":"m 333 0 q 281 -6 310 -4 q 224 -8 252 -8 q 168 -6 197 -8 q 115 0 140 -4 l 115 460 q 101 517 115 494 q 50 540 87 540 l 29 540 q 20 614 20 576 q 22 652 20 632 q 29 692 24 673 q 95 697 61 695 q 151 699 128 699 l 181 699 q 292 654 251 699 q 333 533 333 609 l 333 0 m 74 888 q 78 929 74 908 q 90 969 82 950 q 136 985 108 978 q 193 991 165 991 q 251 985 222 991 q 297 969 281 978 q 308 928 304 950 q 313 888 313 906 q 308 848 313 869 q 297 808 304 826 q 251 792 281 799 q 193 786 222 786 q 135 792 165 786 q 90 808 106 798 q 78 848 82 826 q 74 888 74 869 z "},"j":{"ha":422,"x_min":17,"x_max":341,"o":"m 341 33 q 320 -135 341 -67 q 242 -244 299 -203 q 76 -306 185 -285 q 35 -249 53 -287 q 17 -174 18 -211 q 81 -137 57 -157 q 117 -87 106 -118 q 128 -4 128 -56 l 128 460 q 113 517 128 494 q 62 540 99 540 l 29 540 q 20 614 20 576 q 22 652 20 632 q 29 692 24 673 q 103 697 66 695 q 163 699 140 699 l 192 699 q 301 654 262 699 q 341 533 341 609 l 341 33 m 78 888 q 83 929 78 908 q 94 969 87 950 q 141 985 113 978 q 198 991 170 991 q 256 985 226 991 q 301 969 285 978 q 313 928 309 950 q 317 888 317 906 q 313 848 317 869 q 301 808 309 826 q 256 792 285 799 q 198 786 226 786 q 140 792 170 786 q 94 808 110 798 q 83 848 87 826 q 78 888 78 869 z "},"k":{"ha":726,"x_min":83,"x_max":716,"o":"m 295 0 q 244 -6 272 -4 q 188 -8 216 -8 q 83 0 131 -8 l 83 1013 l 92 1022 l 177 1022 q 268 993 241 1022 q 295 892 295 964 l 295 0 m 649 175 q 681 97 667 122 q 716 57 694 72 q 651 8 690 28 q 570 -11 613 -11 q 500 11 524 -11 q 460 85 477 33 l 419 206 q 385 264 403 250 q 338 278 367 278 q 286 276 308 278 q 241 270 264 274 l 185 263 l 185 413 l 403 413 q 535 381 479 413 q 615 276 591 349 l 649 175 m 572 478 q 481 386 540 417 q 331 355 422 355 l 211 355 l 211 454 l 317 456 q 340 460 332 456 q 356 480 348 465 l 428 619 q 477 678 448 658 q 549 699 506 699 q 613 698 584 699 q 671 696 641 697 l 679 685 l 572 478 z "},"l":{"ha":435,"x_min":81,"x_max":409,"o":"m 392 158 q 404 109 399 135 q 409 56 409 82 q 408 31 409 44 q 403 7 407 17 q 333 -2 372 2 q 254 -7 294 -7 q 120 40 160 -7 q 81 186 81 87 l 81 1013 l 91 1022 l 176 1022 q 266 993 240 1022 q 293 892 293 964 l 293 224 q 353 158 293 158 l 392 158 z "},"m":{"ha":1123,"x_min":83,"x_max":1078,"o":"m 174 703 q 268 660 235 703 q 300 545 300 617 l 300 0 q 248 -6 277 -4 q 192 -8 219 -8 q 136 -6 165 -8 q 83 0 107 -4 l 83 693 l 92 703 l 174 703 m 454 418 q 434 492 454 474 q 392 511 414 511 q 329 488 362 510 q 269 432 296 465 q 230 366 242 399 l 230 553 q 302 625 263 590 q 386 683 341 660 q 481 706 431 706 q 584 677 542 706 q 649 600 627 649 q 672 487 672 551 l 672 0 q 620 -6 649 -4 q 563 -8 591 -8 q 507 -6 536 -8 q 454 0 478 -4 l 454 418 m 826 419 q 805 493 826 475 q 761 511 783 511 q 702 488 734 511 q 641 430 669 465 q 596 358 613 394 l 596 559 q 669 630 627 597 q 761 685 712 664 q 858 706 810 706 q 960 677 919 706 q 1022 598 1001 648 q 1043 484 1043 548 l 1043 174 q 1051 98 1043 133 q 1078 35 1058 62 q 1019 2 1054 16 q 942 -11 983 -11 q 851 24 877 -11 q 826 124 826 58 l 826 419 z "},"n":{"ha":760,"x_min":83,"x_max":715,"o":"m 174 703 q 268 660 237 703 q 300 545 300 617 l 300 0 q 248 -6 277 -4 q 192 -8 219 -8 q 136 -6 165 -8 q 83 0 107 -4 l 83 693 l 92 703 l 174 703 m 680 174 q 688 98 680 133 q 715 35 695 62 q 656 2 691 16 q 579 -11 620 -11 q 488 24 514 -11 q 463 124 463 58 l 463 419 q 450 489 463 466 q 403 511 438 511 q 354 500 382 511 q 298 462 326 488 q 248 392 269 435 l 248 582 q 355 667 297 629 q 485 706 412 706 q 592 674 549 706 q 658 587 635 642 q 680 458 680 531 l 680 174 z "},"o":{"ha":725,"x_min":42,"x_max":683,"o":"m 683 347 q 647 153 683 235 q 539 25 610 70 q 363 -21 467 -21 q 185 25 257 -21 q 78 153 114 71 q 42 347 42 236 q 78 541 42 458 q 186 668 115 623 q 363 714 258 714 q 540 668 468 714 q 647 540 611 622 q 683 347 683 458 m 265 347 q 271 243 265 290 q 299 169 278 197 q 363 142 320 142 q 426 169 406 142 q 454 243 447 197 q 460 347 460 290 q 454 451 460 404 q 426 525 447 497 q 363 552 406 552 q 299 525 320 552 q 271 451 278 497 q 265 347 265 404 z "},"p":{"ha":747,"x_min":83,"x_max":703,"o":"m 150 703 q 256 654 216 703 q 296 519 296 605 l 296 -169 q 268 -271 296 -242 q 177 -300 241 -300 l 92 -300 l 83 -290 l 83 693 l 92 703 l 150 703 m 703 355 q 665 153 703 235 q 564 28 627 71 q 424 -14 501 -14 q 296 16 352 -14 q 194 74 240 47 l 229 228 q 311 172 270 195 q 386 148 353 148 q 441 173 420 148 q 471 245 461 199 q 481 356 481 292 q 470 461 481 421 q 440 521 459 502 q 397 540 421 540 q 345 526 375 540 q 288 475 316 513 q 241 364 260 438 l 192 487 q 235 595 199 543 q 328 681 272 647 q 453 714 385 714 q 593 668 538 714 q 676 541 649 622 q 703 355 703 460 z "},"q":{"ha":748,"x_min":44,"x_max":701,"o":"m 44 345 q 83 547 44 465 q 184 672 121 629 q 323 714 247 714 q 439 692 391 714 q 518 638 486 669 q 567 575 549 606 l 531 398 q 445 513 491 474 q 361 553 399 553 q 307 527 328 553 q 276 456 286 502 q 267 344 267 409 q 290 204 267 247 q 349 160 313 160 q 430 189 390 160 q 497 274 470 217 l 528 122 q 469 52 505 83 q 388 4 433 22 q 294 -14 343 -14 q 154 32 210 -14 q 72 159 99 78 q 44 345 44 240 m 451 496 q 497 643 451 583 q 635 704 544 703 q 676 655 656 689 q 701 593 696 622 q 673 553 684 581 q 663 493 663 526 l 663 -290 l 653 -300 l 569 -300 q 478 -271 505 -300 q 451 -169 451 -242 l 451 496 z "},"r":{"ha":551,"x_min":42,"x_max":551,"o":"m 551 691 q 537 593 551 653 q 497 488 523 534 q 461 498 478 495 q 425 503 443 501 q 375 493 397 503 q 335 463 353 483 q 301 415 317 444 q 270 350 285 387 l 246 383 q 260 497 249 440 q 294 600 272 553 q 357 675 317 647 q 458 703 397 703 q 510 700 490 703 q 551 691 530 697 m 42 592 q 67 655 47 622 q 108 704 88 689 q 253 633 204 697 q 311 465 302 569 l 311 0 q 260 -6 288 -4 q 203 -8 231 -8 q 147 -6 176 -8 q 94 0 118 -4 l 94 449 q 76 545 94 510 q 42 592 58 581 z "},"s":{"ha":615,"x_min":27,"x_max":585,"o":"m 27 48 q 46 126 28 83 q 88 194 64 169 q 182 153 133 170 q 280 136 231 136 q 341 150 320 136 q 361 185 361 164 q 347 220 361 205 q 298 248 332 236 l 221 276 q 133 321 172 294 q 70 389 93 349 q 47 484 47 428 q 81 606 47 555 q 174 686 114 658 q 316 714 235 714 q 454 696 382 714 q 572 656 526 678 q 565 600 573 631 q 543 544 558 569 q 512 505 529 518 q 418 541 469 524 q 318 557 367 557 q 276 544 290 557 q 261 513 261 531 q 274 482 261 494 q 314 460 286 469 l 400 429 q 532 348 479 401 q 585 206 585 294 q 505 41 585 102 q 285 -21 426 -21 q 143 0 210 -21 q 27 48 76 20 z "},"t":{"ha":520,"x_min":-6,"x_max":498,"o":"m 112 772 q 139 873 112 844 q 229 902 165 902 l 314 902 l 324 892 l 324 224 q 338 175 324 192 q 385 158 352 158 l 463 158 q 481 56 481 108 q 480 31 481 44 q 475 7 478 17 q 387 -2 437 2 q 295 -7 337 -7 q 156 40 201 -7 q 112 186 112 87 l 112 772 m 488 694 q 498 619 498 658 q 488 540 498 576 l 229 544 l 3 540 q -6 619 -6 577 q 3 694 -6 656 l 235 691 l 488 694 z "},"u":{"ha":763,"x_min":45,"x_max":715,"o":"m 676 198 q 687 138 676 165 q 715 98 698 110 q 690 37 710 69 q 649 -11 669 5 q 508 52 557 -10 q 460 201 460 114 l 460 693 q 511 699 482 697 q 568 701 540 701 q 624 699 595 701 q 676 693 653 697 l 676 198 m 80 519 q 72 596 80 560 q 45 658 64 631 q 105 691 69 678 q 181 704 140 704 q 271 669 246 704 q 297 570 297 635 l 297 274 q 309 205 297 228 q 356 183 322 183 q 406 194 378 183 q 462 232 434 206 q 511 301 490 258 l 511 112 q 406 26 463 64 q 274 -12 349 -12 q 168 19 211 -12 q 102 107 124 51 q 80 235 80 163 l 80 519 z "},"v":{"ha":666,"x_min":-6,"x_max":665,"o":"m 467 692 q 507 698 487 697 q 546 700 526 700 q 604 697 574 700 q 658 683 633 693 l 665 674 q 618 507 644 598 q 567 321 593 415 q 516 143 540 227 q 473 0 492 60 q 394 -6 437 -4 q 310 -8 351 -8 q 214 12 249 -8 q 160 95 178 32 l -6 676 q 55 697 22 688 q 113 706 87 706 q 195 683 165 706 q 239 604 226 660 l 301 345 q 314 287 308 319 q 324 226 319 256 q 332 176 328 197 q 336 167 333 168 q 346 165 340 165 l 467 692 z "},"w":{"ha":1050,"x_min":6,"x_max":1044,"o":"m 6 680 q 68 699 38 692 q 127 706 99 706 q 200 682 179 706 q 231 613 222 658 l 274 389 q 297 265 288 322 q 310 172 306 208 q 321 160 312 160 l 397 685 q 463 694 424 692 q 522 697 503 697 q 585 694 544 697 q 651 685 626 692 l 729 172 q 740 160 732 160 q 757 266 748 208 q 778 389 766 324 l 840 692 q 881 699 858 697 q 923 701 903 701 q 980 698 945 701 q 1038 683 1015 695 l 1044 670 l 883 0 q 806 -7 850 -5 q 723 -8 761 -8 q 628 9 660 -8 q 587 90 597 27 l 563 240 q 552 317 558 274 q 540 406 546 359 q 528 501 533 453 l 519 501 q 508 408 515 454 q 495 319 501 361 q 483 242 489 277 l 444 0 q 365 -6 410 -4 q 281 -8 319 -8 q 187 11 219 -8 q 141 93 155 31 l 6 680 z "},"x":{"ha":668,"x_min":3,"x_max":671,"o":"m 18 659 q 92 696 53 685 q 165 707 131 707 q 230 690 206 707 q 275 640 253 674 l 671 35 q 600 1 639 14 q 524 -12 560 -12 q 457 4 483 -12 q 410 53 431 20 l 18 659 m 450 693 q 490 699 468 697 q 535 701 513 701 q 592 698 565 701 q 642 687 618 694 l 648 672 l 414 313 l 363 263 l 208 0 q 170 -7 192 -5 q 124 -8 148 -8 q 63 -5 92 -8 q 9 8 33 -1 l 3 22 l 253 410 l 308 459 l 450 693 z "},"y":{"ha":690,"x_min":-1,"x_max":683,"o":"m 512 19 q 449 -149 487 -76 q 345 -263 410 -222 q 171 -304 279 -304 q 80 -295 129 -304 q 2 -276 31 -285 q 11 -192 -1 -239 q 46 -121 24 -146 q 102 -135 68 -128 q 171 -142 137 -142 q 233 -129 206 -142 q 278 -90 260 -115 q 307 -30 297 -65 l 313 -10 q 219 10 256 -9 q 168 78 182 29 l 6 676 q 76 699 40 692 q 140 706 113 706 q 206 686 180 706 q 245 613 232 667 l 310 345 q 322 288 317 322 q 333 220 328 253 q 341 163 338 186 q 353 153 342 153 l 474 692 q 515 699 492 697 q 559 701 539 701 q 617 698 588 701 q 675 685 646 695 l 683 671 l 512 19 z "},"z":{"ha":624,"x_min":34,"x_max":593,"o":"m 229 406 q 286 475 254 439 q 342 536 318 510 l 338 543 q 281 538 312 540 q 220 534 251 535 q 165 533 190 533 l 58 533 q 52 566 54 549 q 50 599 50 583 q 53 647 50 623 q 62 693 57 672 l 547 693 q 567 626 560 654 q 574 574 574 597 q 570 542 574 560 q 554 510 565 524 l 384 286 q 333 223 360 256 q 279 161 306 189 l 283 154 q 340 160 313 158 q 393 163 367 163 l 441 163 q 507 167 473 163 q 571 185 542 172 q 588 138 583 158 q 593 96 593 118 q 567 26 593 53 q 477 0 542 0 l 58 0 q 40 63 45 39 q 34 106 34 87 q 41 144 34 124 q 65 186 48 164 l 229 406 z "},"'":{"ha":335,"x_min":58,"x_max":264,"o":"m 58 997 q 61 1040 58 1019 q 68 1081 64 1061 q 111 1099 88 1092 q 161 1105 134 1105 q 211 1099 188 1105 q 254 1081 234 1092 q 261 1040 258 1061 q 264 997 264 1019 q 256 933 264 983 q 237 816 249 883 q 213 681 226 749 q 161 669 196 669 q 109 681 127 669 q 85 816 97 749 q 66 933 74 883 q 58 997 58 983 z "},"\"":{"ha":626,"x_min":59,"x_max":568,"o":"m 363 997 q 365 1040 363 1019 q 372 1081 368 1061 q 415 1099 392 1092 q 465 1105 438 1105 q 515 1099 492 1105 q 558 1081 538 1092 q 565 1040 563 1061 q 568 997 568 1019 q 560 933 568 983 q 541 816 553 883 q 517 681 530 749 q 466 669 500 669 q 413 681 431 669 q 390 816 401 749 q 370 933 378 883 q 363 997 363 983 m 59 997 q 62 1040 59 1019 q 69 1081 65 1061 q 112 1099 89 1092 q 162 1105 135 1105 q 211 1099 188 1105 q 255 1081 235 1092 q 262 1040 259 1061 q 265 997 265 1019 q 257 933 265 983 q 238 816 249 883 q 214 681 226 749 q 162 669 197 669 q 110 681 128 669 q 86 816 98 749 q 67 933 74 883 q 59 997 59 983 z "},"#":{"ha":997,"x_min":25,"x_max":978,"o":"m 132 17 q 173 5 148 9 q 225 1 198 1 q 277 5 251 1 q 320 17 303 9 l 519 904 q 479 916 504 913 q 426 920 454 920 q 374 916 400 920 q 331 904 349 913 l 132 17 m 485 17 q 527 5 501 9 q 578 1 552 1 q 631 5 606 1 q 674 17 657 9 l 874 904 q 833 916 858 913 q 781 920 808 920 q 728 916 754 920 q 685 904 703 913 l 485 17 m 890 183 q 903 269 903 223 q 890 354 903 316 l 38 354 q 25 269 25 319 q 38 183 25 220 l 890 183 m 964 567 q 978 653 978 605 q 964 738 978 700 l 112 738 q 99 653 99 701 q 112 567 99 604 l 964 567 z "},"&":{"ha":911,"x_min":55,"x_max":906,"o":"m 731 590 q 809 597 771 590 q 878 617 848 603 q 899 573 892 601 q 906 515 906 545 q 872 433 906 460 q 775 406 838 406 l 445 406 q 356 391 392 406 q 301 345 319 376 q 282 269 282 315 q 314 176 282 205 q 389 147 345 147 q 474 165 438 147 q 532 200 510 182 l 532 322 q 533 409 532 358 q 539 508 535 460 l 739 508 q 744 409 743 460 q 746 322 746 358 l 746 222 q 748 113 746 176 q 755 0 751 49 q 710 -10 736 -7 q 656 -13 685 -13 q 602 -10 628 -13 q 557 -3 575 -8 l 542 58 q 447 1 503 23 q 326 -21 390 -21 q 177 16 238 -21 q 86 115 117 53 q 55 249 55 176 q 91 390 55 330 q 182 483 126 450 q 297 517 238 517 l 297 494 q 194 526 240 497 q 123 605 149 555 q 97 716 97 654 q 134 849 97 792 q 239 938 171 906 q 399 969 306 969 q 558 956 481 969 q 693 923 636 942 q 680 836 695 882 q 638 760 665 790 q 540 787 591 776 q 437 799 488 799 q 352 769 380 799 q 324 697 324 740 q 357 616 324 642 q 461 590 391 590 l 731 590 z "},"*":{"ha":723,"x_min":49,"x_max":674,"o":"m 274 1014 q 327 1025 294 1022 q 394 1025 360 1028 q 448 1014 428 1022 l 443 924 q 424 828 440 878 q 394 731 408 778 q 361 715 381 715 q 328 731 341 715 q 298 828 315 778 q 279 924 282 878 l 274 1014 m 50 724 q 56 778 49 746 q 77 842 64 811 q 104 890 90 874 l 187 858 q 274 810 231 842 q 356 751 316 779 q 361 715 367 733 q 352 699 358 706 q 336 690 346 692 q 235 690 288 690 q 138 702 183 690 l 50 724 m 256 423 q 206 445 235 428 q 152 484 178 462 q 115 524 127 506 l 172 594 q 244 662 201 631 q 326 722 287 692 q 361 715 346 726 q 378 683 376 703 q 346 588 363 637 q 303 499 329 538 l 256 423 m 606 524 q 570 484 595 506 q 517 445 545 463 q 467 422 488 427 l 417 498 q 376 587 392 537 q 344 683 360 638 q 361 715 346 704 q 378 722 369 721 q 397 722 388 724 q 477 661 436 692 q 549 593 519 630 l 606 524 m 618 889 q 645 842 632 873 q 666 779 658 812 q 673 724 674 747 l 585 701 q 487 690 540 690 q 386 690 434 690 q 361 715 367 696 q 365 750 356 731 q 448 809 406 780 q 535 856 491 838 l 618 889 z "},",":{"ha":410,"x_min":27,"x_max":331,"o":"m 313 177 q 326 123 322 149 q 331 67 331 97 q 303 -61 331 2 q 220 -175 275 -125 q 82 -251 165 -225 q 41 -208 54 -237 q 30 -150 27 -179 q 116 -96 79 -133 q 160 -11 153 -60 q 126 -2 142 -8 q 99 10 110 3 q 88 48 92 24 q 83 92 83 72 q 88 138 83 113 q 99 177 92 164 q 149 195 119 188 q 206 203 178 203 q 264 195 233 203 q 313 177 295 188 z "},".":{"ha":398,"x_min":74,"x_max":324,"o":"m 74 94 q 77 133 74 107 q 90 178 81 160 q 141 197 111 190 q 199 204 172 204 q 257 197 226 204 q 308 178 288 190 q 321 133 317 160 q 324 94 324 107 q 321 56 324 82 q 308 10 317 29 q 257 -9 288 -3 q 199 -15 226 -15 q 141 -9 172 -15 q 90 10 111 -3 q 77 56 81 29 q 74 94 74 82 z "},":":{"ha":409,"x_min":79,"x_max":330,"o":"m 79 94 q 83 133 79 107 q 96 178 87 160 q 147 197 117 190 q 205 204 177 204 q 263 197 232 204 q 314 178 293 190 q 326 133 323 160 q 330 94 330 107 q 326 56 330 82 q 314 10 323 29 q 263 -9 293 -3 q 205 -15 232 -15 q 147 -9 177 -15 q 96 10 117 -3 q 83 56 87 29 q 79 94 79 82 m 79 524 q 83 563 79 536 q 96 608 87 589 q 147 626 117 619 q 205 633 177 633 q 263 626 232 633 q 314 608 293 619 q 326 563 323 589 q 330 524 330 536 q 326 485 330 511 q 314 440 323 458 q 263 420 293 426 q 205 415 232 415 q 147 420 177 415 q 96 440 117 426 q 83 485 87 458 q 79 524 79 511 z "},";":{"ha":415,"x_min":27,"x_max":333,"o":"m 313 177 q 326 123 322 149 q 331 67 331 97 q 303 -61 331 2 q 220 -175 275 -125 q 82 -251 165 -225 q 41 -208 54 -237 q 30 -150 27 -179 q 116 -96 79 -133 q 160 -11 153 -60 q 126 -2 142 -8 q 99 10 110 3 q 88 48 92 24 q 83 92 83 72 q 88 138 83 113 q 99 177 92 164 q 149 195 119 188 q 206 203 178 203 q 264 195 233 203 q 313 177 295 188 m 82 524 q 86 563 82 536 q 99 608 90 589 q 150 626 119 619 q 208 633 180 633 q 265 626 235 633 q 317 608 296 619 q 329 563 326 589 q 333 524 333 536 q 329 485 333 511 q 317 440 326 458 q 265 420 296 426 q 208 415 235 415 q 150 420 180 415 q 99 440 119 426 q 86 485 90 458 q 82 524 82 511 z "},"?":{"ha":584,"x_min":2,"x_max":575,"o":"m 2 890 q 133 947 60 924 q 288 970 206 970 q 502 899 429 970 q 575 717 575 827 q 523 548 575 613 q 393 442 472 483 l 310 398 l 296 292 q 257 283 277 285 q 217 281 237 281 q 175 283 197 281 q 133 292 153 285 l 121 499 l 138 520 l 215 554 q 310 614 272 581 q 349 693 349 647 q 321 759 349 734 q 239 784 294 784 q 157 770 197 784 q 80 735 117 756 q 27 803 50 758 q 2 890 4 849 m 217 189 q 272 183 245 189 q 319 166 299 177 q 331 128 326 153 q 335 84 335 103 q 331 40 335 65 q 319 3 326 16 q 272 -14 299 -8 q 217 -20 245 -20 q 113 3 155 -20 q 102 40 106 16 q 98 84 98 65 q 102 128 98 103 q 113 166 106 153 q 217 189 155 189 z "},"!":{"ha":428,"x_min":88,"x_max":329,"o":"m 126 290 q 101 558 114 424 q 88 827 88 691 l 88 947 q 163 959 117 956 q 254 959 208 962 q 329 947 299 956 l 329 824 q 314 557 329 690 q 289 290 299 424 q 246 282 267 284 q 208 281 224 281 q 170 282 194 281 q 126 290 147 284 m 208 193 q 310 170 270 193 q 322 132 318 157 q 326 88 326 107 q 322 44 326 69 q 310 7 318 20 q 264 -10 291 -4 q 208 -16 237 -16 q 153 -10 181 -16 q 105 7 125 -4 q 94 44 98 20 q 90 88 90 69 q 94 132 90 107 q 105 170 98 157 q 153 187 125 181 q 208 193 181 193 z "},"¿":{"ha":584,"x_min":19,"x_max":592,"o":"m 592 -201 q 462 -259 535 -236 q 307 -282 389 -282 q 92 -210 165 -282 q 19 -29 19 -139 q 72 141 19 75 q 201 247 124 206 l 285 290 l 299 397 q 338 405 317 403 q 378 408 358 408 q 420 405 397 408 q 462 397 442 403 l 474 190 l 456 168 l 380 134 q 284 75 323 108 q 246 -5 246 42 q 273 -71 246 -46 q 356 -96 301 -96 q 438 -81 398 -96 q 515 -47 478 -67 q 568 -115 545 -70 q 592 -201 590 -160 m 378 499 q 323 505 350 499 q 276 522 295 511 q 264 560 268 535 q 260 604 260 585 q 264 648 260 624 q 276 685 268 672 q 323 702 295 697 q 378 708 350 708 q 481 685 440 708 q 493 648 489 672 q 497 604 497 624 q 493 560 497 585 q 481 522 489 535 q 378 499 440 499 z "},"¡":{"ha":428,"x_min":99,"x_max":340,"o":"m 302 402 q 327 135 314 268 q 340 -135 340 1 l 340 -255 q 265 -266 310 -263 q 174 -266 219 -269 q 99 -255 128 -263 l 99 -132 q 114 135 99 2 q 139 402 128 268 q 182 410 160 408 q 219 412 203 412 q 258 410 234 412 q 302 402 281 408 m 219 499 q 117 522 158 499 q 106 560 110 535 q 101 605 101 585 q 106 648 101 624 q 117 685 110 672 q 164 703 137 697 q 219 708 192 708 q 276 703 248 708 q 323 685 303 697 q 334 648 331 672 q 338 605 338 624 q 334 560 338 585 q 323 522 331 535 q 276 505 303 511 q 219 499 248 499 z "},"@":{"ha":1360,"x_min":53,"x_max":1317,"o":"m 966 228 q 976 174 966 190 q 1008 158 985 158 q 1056 182 1035 158 q 1091 262 1078 206 q 1103 417 1103 319 q 1054 619 1103 535 q 914 748 1004 703 q 703 793 824 793 q 525 758 605 793 q 388 657 445 722 q 300 503 331 592 q 269 308 269 415 q 317 69 269 163 q 451 -72 364 -26 q 657 -117 538 -117 q 795 -103 727 -117 q 929 -65 864 -90 q 969 -136 956 -94 q 983 -212 983 -177 q 881 -247 939 -231 q 760 -273 822 -263 q 640 -282 697 -282 q 337 -219 469 -282 q 129 -26 204 -157 q 53 308 53 104 q 102 567 53 449 q 238 772 150 685 q 444 906 325 858 q 703 953 563 953 q 945 917 833 953 q 1140 812 1057 881 q 1270 642 1224 742 q 1317 411 1317 541 q 1270 176 1317 267 q 1153 43 1224 85 q 1008 1 1083 1 q 882 31 936 1 q 796 111 827 60 q 765 222 765 161 l 765 501 q 734 519 750 514 q 699 525 719 525 q 641 498 661 525 q 614 426 621 471 q 606 326 606 381 q 621 198 606 239 q 676 157 636 157 q 728 173 702 157 q 777 216 755 190 q 811 272 799 242 l 885 176 q 828 95 868 137 q 736 25 789 53 q 626 -4 684 -4 q 501 37 551 -4 q 425 150 450 78 q 399 315 399 222 q 434 503 399 422 q 535 630 469 584 q 699 676 602 676 q 853 644 780 676 q 966 571 926 612 l 966 228 z "},"(":{"ha":521,"x_min":81,"x_max":494,"o":"m 307 378 q 327 171 307 278 q 389 -40 348 64 q 494 -232 431 -143 q 440 -303 474 -275 q 369 -345 406 -332 q 209 -132 273 -254 q 113 122 145 -10 q 81 378 81 255 q 113 635 81 502 q 209 889 145 767 q 369 1101 273 1011 q 440 1060 406 1088 q 494 988 474 1031 q 389 796 431 899 q 327 586 348 693 q 307 378 307 479 z "},")":{"ha":521,"x_min":27,"x_max":440,"o":"m 213 378 q 193 171 213 278 q 132 -40 173 64 q 27 -232 90 -143 q 81 -303 47 -275 q 152 -345 115 -332 q 312 -132 248 -254 q 408 122 376 -10 q 440 378 440 255 q 408 635 440 502 q 312 889 376 767 q 152 1101 248 1011 q 81 1060 115 1088 q 27 988 47 1031 q 132 796 90 899 q 193 586 173 693 q 213 378 213 479 z "},"[":{"ha":548,"x_min":136,"x_max":503,"o":"m 136 1070 l 347 997 l 347 -233 l 136 -286 l 136 1070 m 149 -297 l 136 -286 l 153 -128 l 487 -137 q 498 -174 492 -149 q 503 -225 503 -199 q 501 -256 503 -237 q 495 -285 499 -274 l 149 -297 m 495 1069 q 501 1040 499 1058 q 503 1008 503 1021 q 498 958 503 983 q 487 921 492 933 l 153 911 l 136 1070 l 149 1081 l 495 1069 z "},"]":{"ha":548,"x_min":46,"x_max":412,"o":"m 412 1070 l 201 997 l 201 -233 l 412 -286 l 412 1070 m 400 -297 l 412 -286 l 394 -128 l 62 -137 q 51 -174 57 -149 q 46 -225 46 -199 q 48 -256 46 -237 q 53 -285 49 -274 l 400 -297 m 53 1069 q 48 1040 49 1058 q 46 1008 46 1021 q 51 958 46 983 q 62 921 57 933 l 394 911 l 412 1070 l 400 1081 l 53 1069 z "},"{":{"ha":553,"x_min":52,"x_max":542,"o":"m 62 455 q 147 508 113 464 q 180 606 180 552 l 180 829 q 243 1000 180 938 q 403 1076 306 1061 l 497 1091 q 522 1048 511 1075 q 537 995 533 1022 q 538 951 542 968 l 453 923 q 415 892 432 916 q 397 828 397 867 l 397 609 q 364 477 397 538 q 274 391 330 415 l 274 380 q 364 295 330 356 q 397 162 397 233 l 397 -56 q 415 -120 397 -97 q 453 -151 432 -144 l 538 -180 q 537 -223 542 -196 q 522 -277 533 -250 q 497 -320 511 -304 l 403 -305 q 243 -228 306 -290 q 180 -58 180 -167 l 180 165 q 147 263 180 219 q 62 317 113 308 q 52 386 52 342 q 62 455 52 429 z "},"}":{"ha":553,"x_min":13,"x_max":501,"o":"m 492 455 q 407 508 440 464 q 374 606 374 552 l 374 829 q 311 1000 374 938 q 150 1076 247 1061 l 57 1091 q 32 1048 42 1075 q 17 995 22 1022 q 17 951 13 968 l 100 923 q 139 892 122 916 q 156 828 156 867 l 156 609 q 190 477 156 538 q 279 391 224 415 l 279 380 q 190 295 224 356 q 156 162 156 233 l 156 -56 q 139 -120 156 -97 q 100 -151 122 -144 l 17 -180 q 17 -223 13 -196 q 32 -277 22 -250 q 57 -320 42 -304 l 150 -305 q 311 -228 247 -290 q 374 -58 374 -167 l 374 165 q 407 263 374 219 q 492 317 440 308 q 501 386 501 342 q 492 455 501 429 z "},"⟨":{"ha":539,"x_min":44,"x_max":518,"o":"m 44 369 l 360 -343 q 449 -322 403 -342 q 518 -272 494 -301 l 287 378 l 518 1026 q 449 1077 494 1057 q 360 1098 403 1097 l 44 385 l 44 369 z "},"⟩":{"ha":539,"x_min":21,"x_max":495,"o":"m 495 369 l 495 385 l 179 1098 q 90 1077 136 1097 q 21 1026 44 1057 l 252 378 l 21 -272 q 90 -322 44 -301 q 179 -343 136 -342 l 495 369 z "},"\\":{"ha":626,"x_min":4,"x_max":625,"o":"m 440 -235 q 537 -213 488 -230 q 625 -165 585 -196 l 189 997 q 92 975 141 992 q 4 927 44 958 l 440 -235 z "},"/":{"ha":626,"x_min":1,"x_max":622,"o":"m 438 997 q 534 975 485 992 q 622 927 583 958 l 185 -235 q 90 -213 138 -230 q 1 -165 41 -197 l 438 997 z "},"¦":{"ha":367,"x_min":84,"x_max":283,"o":"m 84 340 q 138 348 108 347 q 185 350 168 350 q 232 348 205 350 q 283 340 258 347 l 283 -197 q 232 -205 258 -203 q 185 -206 205 -206 q 138 -205 168 -206 q 84 -197 108 -203 l 84 340 m 84 1074 q 138 1082 108 1080 q 185 1083 168 1083 q 232 1082 205 1083 q 283 1074 258 1080 l 283 536 q 232 529 258 531 q 185 527 205 527 q 138 529 168 527 q 84 536 108 531 l 84 1074 z "},"|":{"ha":375,"x_min":87,"x_max":288,"o":"m 87 1074 q 141 1082 110 1080 q 190 1083 172 1083 q 236 1082 209 1083 q 288 1074 263 1080 l 288 -197 q 236 -205 263 -203 q 190 -206 209 -206 q 141 -205 172 -206 q 87 -197 110 -203 l 87 1074 z "},"_":{"ha":785,"x_min":-10,"x_max":795,"o":"m -1 -246 q -9 -201 -7 -225 q -10 -165 -10 -177 q -9 -129 -10 -153 q -1 -83 -7 -105 l 786 -83 q 793 -123 791 -105 q 795 -165 795 -141 q 786 -246 795 -206 l -1 -246 z "},"·":{"ha":458,"x_min":111,"x_max":347,"o":"m 111 368 q 115 407 111 381 q 126 452 118 433 q 174 471 146 464 q 229 478 203 478 q 283 471 254 478 q 331 452 312 464 q 343 407 340 433 q 347 368 347 381 q 343 329 347 356 q 331 284 340 303 q 283 265 312 271 q 229 259 254 259 q 174 265 203 259 q 126 284 146 271 q 115 329 118 303 q 111 368 111 356 z "},"-":{"ha":522,"x_min":57,"x_max":466,"o":"m 66 288 q 59 335 60 310 q 57 374 57 360 q 59 414 57 389 q 66 461 60 440 l 457 461 q 464 414 463 440 q 466 374 466 389 q 464 335 466 360 q 457 288 463 310 l 66 288 z "},"­":{"ha":522,"x_min":57,"x_max":466,"o":"m 66 288 q 59 335 60 310 q 57 374 57 360 q 59 414 57 389 q 66 461 60 440 l 457 461 q 464 414 463 440 q 466 374 466 389 q 464 335 466 360 q 457 288 463 310 l 66 288 z "},"‐":{"ha":522,"x_min":57,"x_max":466,"o":"m 66 288 q 59 335 60 310 q 57 374 57 360 q 59 414 57 389 q 66 461 60 440 l 457 461 q 464 414 463 440 q 466 374 466 389 q 464 335 466 360 q 457 288 463 310 l 66 288 z "},"–":{"ha":772,"x_min":77,"x_max":695,"o":"m 87 287 q 79 332 81 309 q 77 369 77 355 q 79 407 77 384 q 87 452 81 431 l 686 452 q 693 407 692 431 q 695 369 695 384 q 693 332 695 355 q 686 287 692 309 l 87 287 z "},"—":{"ha":1131,"x_min":92,"x_max":1038,"o":"m 101 287 q 93 332 95 309 q 92 369 92 355 q 93 407 92 384 q 101 452 95 431 l 1028 452 q 1036 407 1035 431 q 1038 369 1038 384 q 1036 332 1038 355 q 1028 287 1035 309 l 101 287 z "},"―":{"ha":1239,"x_min":167,"x_max":1072,"o":"m 176 287 q 168 332 170 309 q 167 369 167 355 q 168 407 167 384 q 176 452 170 431 l 1063 452 q 1070 407 1069 431 q 1072 369 1072 384 q 1070 332 1072 355 q 1063 287 1069 309 l 176 287 z "},"§":{"ha":694,"x_min":37,"x_max":660,"o":"m 356 280 q 425 324 396 294 q 453 393 453 355 q 437 440 453 419 q 390 477 420 460 q 322 510 360 494 l 260 534 q 169 584 209 555 q 106 653 128 613 q 83 746 83 694 q 116 858 83 807 q 211 939 150 908 q 356 969 273 969 q 482 954 419 969 q 589 918 544 939 q 574 835 592 880 q 529 772 556 791 q 445 800 487 789 q 365 812 404 812 q 316 799 335 812 q 296 764 296 786 q 310 732 296 744 q 352 708 324 719 l 431 675 q 546 617 494 649 q 629 540 598 585 q 660 432 660 496 q 627 326 660 376 q 540 239 594 277 q 421 178 486 201 l 356 280 m 340 528 q 292 502 315 519 q 257 463 270 485 q 243 415 243 440 q 259 369 243 390 q 304 332 274 349 q 376 299 334 315 l 437 274 q 529 224 489 254 q 592 153 569 194 q 615 60 615 113 q 581 -51 615 -1 q 484 -133 547 -102 q 333 -163 421 -163 q 201 -148 268 -163 q 85 -105 135 -133 q 101 -22 83 -67 q 145 42 119 22 q 233 9 183 24 q 331 -6 283 -6 q 381 7 362 -6 q 401 42 401 20 q 387 75 401 61 q 345 100 373 89 l 265 133 q 151 192 203 160 q 68 268 99 224 q 37 376 37 313 q 69 482 37 433 q 157 569 102 531 q 276 630 211 607 l 340 528 z "},"©":{"ha":1096,"x_min":44,"x_max":1052,"o":"m 44 474 q 82 672 44 581 q 189 833 120 764 q 349 940 257 901 q 547 978 440 978 q 746 940 654 978 q 906 833 838 901 q 1014 672 975 764 q 1052 474 1052 581 q 1014 275 1052 367 q 906 115 975 183 q 746 8 838 47 q 547 -30 654 -30 q 349 8 440 -30 q 189 115 257 47 q 82 275 120 183 q 44 474 44 367 m 206 474 q 231 332 206 398 q 301 217 256 267 q 409 140 347 168 q 547 113 472 113 q 686 140 623 113 q 794 217 749 168 q 865 332 840 267 q 890 474 890 398 q 865 615 890 549 q 794 730 840 681 q 686 808 749 780 q 547 836 623 836 q 409 808 472 836 q 301 730 347 780 q 231 615 256 681 q 206 474 206 549 m 608 506 q 604 563 608 535 q 585 607 599 590 q 544 624 572 624 q 492 587 508 624 q 476 475 476 549 q 502 370 476 405 q 578 335 529 335 q 634 348 603 335 q 692 378 664 362 q 729 336 712 365 q 749 283 746 308 q 660 228 717 251 q 551 206 602 206 q 404 246 457 206 q 330 348 351 286 q 309 475 309 410 q 346 633 309 574 q 439 718 383 692 q 551 744 494 744 q 657 723 610 744 q 730 665 703 701 q 757 583 757 628 q 735 519 757 540 q 667 498 713 498 q 636 500 653 498 q 608 506 618 502 z "},"®":{"ha":835,"x_min":38,"x_max":798,"o":"m 38 652 q 88 845 38 759 q 224 983 138 932 q 417 1033 310 1033 q 610 983 524 1033 q 747 845 697 932 q 798 652 798 759 q 747 459 798 545 q 610 323 697 374 q 417 273 524 273 q 224 323 310 273 q 88 459 138 374 q 38 652 38 545 m 163 652 q 195 519 163 579 q 286 423 228 458 q 417 387 344 387 q 549 423 491 387 q 640 519 606 458 q 673 652 673 579 q 640 786 673 726 q 549 883 606 847 q 417 919 491 919 q 286 883 344 919 q 195 786 228 847 q 163 652 163 726 m 569 735 q 547 670 569 692 q 499 641 526 647 q 527 619 517 634 q 545 590 538 605 l 560 560 q 574 536 566 548 q 592 519 581 525 q 559 491 581 501 q 516 480 538 480 q 481 490 494 480 q 456 522 467 500 l 426 582 q 413 600 419 594 q 389 606 406 606 l 331 606 l 331 687 q 375 688 348 687 q 411 688 402 688 q 445 699 435 688 q 454 723 454 709 q 445 746 454 736 q 415 756 435 756 q 398 756 404 756 q 381 756 392 756 l 381 487 q 327 481 362 481 q 273 487 292 481 l 273 830 l 277 833 q 355 835 316 834 q 427 837 393 837 q 537 806 506 837 q 569 735 569 774 z "},"™":{"ha":1335,"x_min":6,"x_max":1278,"o":"m 13 796 q 7 839 8 820 q 6 873 6 857 q 7 910 6 890 q 13 951 8 930 l 519 951 q 526 917 524 936 q 529 878 529 897 q 501 812 529 828 q 420 796 473 796 l 13 796 m 165 731 q 166 763 165 749 q 167 796 167 777 l 167 873 l 359 873 l 359 796 q 360 763 359 777 q 360 731 360 749 l 360 336 q 308 330 333 331 q 262 328 283 328 q 218 330 242 328 q 165 336 193 331 l 165 731 m 590 951 q 655 958 620 956 q 720 960 690 960 q 784 958 750 960 q 849 951 818 956 l 878 789 q 892 694 885 747 q 905 585 899 642 l 913 585 q 926 694 919 642 q 940 789 933 747 l 969 951 q 1034 958 1000 956 q 1098 960 1068 960 q 1164 958 1128 960 q 1228 951 1199 956 l 1278 338 q 1230 331 1255 333 q 1179 329 1204 329 q 1136 330 1158 329 q 1094 335 1115 331 l 1087 499 q 1083 621 1084 557 q 1080 753 1081 685 l 1073 753 l 1008 419 q 958 415 985 417 q 909 414 932 414 q 860 415 886 414 q 810 419 833 417 l 745 753 l 738 753 q 736 621 738 685 q 731 499 735 557 l 724 335 q 682 330 703 331 q 638 329 660 329 q 589 331 614 329 q 540 338 564 333 l 590 951 z "},"№":{"ha":1393,"x_min":92,"x_max":1347,"o":"m 92 879 q 157 888 117 885 q 217 891 197 891 q 272 890 238 891 q 340 883 306 888 l 287 639 l 274 634 q 282 508 278 578 q 288 368 286 438 q 290 240 290 297 l 290 0 q 238 -7 264 -5 q 193 -8 212 -8 q 147 -7 176 -8 q 92 0 117 -5 l 92 879 m 347 453 q 308 554 325 508 q 278 637 290 600 l 105 854 l 340 883 l 521 432 q 565 320 545 372 q 599 234 585 269 l 771 30 l 533 0 l 347 453 m 783 884 l 783 4 q 716 -5 757 -2 q 656 -8 674 -8 q 603 -7 637 -8 q 533 0 569 -5 l 589 232 l 603 237 q 594 370 598 298 q 589 511 590 443 q 587 625 587 579 l 587 763 q 613 859 587 826 q 706 892 638 892 l 774 892 l 783 884 m 1347 635 q 1330 519 1347 572 q 1272 426 1313 467 q 1110 369 1213 369 q 1020 382 1063 369 q 947 426 978 395 q 889 522 905 469 q 872 635 872 575 q 890 751 872 698 q 947 842 908 804 q 1018 885 975 871 q 1110 899 1060 899 q 1200 885 1158 899 q 1272 842 1242 872 q 1331 748 1314 801 q 1347 635 1347 694 m 1042 635 q 1048 564 1042 594 q 1069 517 1055 533 q 1109 500 1084 500 q 1149 517 1135 500 q 1170 564 1164 533 q 1177 635 1177 594 q 1170 706 1177 676 q 1149 752 1164 736 q 1109 769 1135 769 q 1069 752 1084 769 q 1048 706 1055 736 q 1042 635 1042 676 m 900 163 q 892 206 894 184 q 891 239 891 228 q 892 273 891 251 q 900 315 894 294 l 1319 315 q 1326 273 1325 294 q 1328 239 1328 251 q 1326 206 1328 228 q 1319 163 1325 184 l 900 163 z "},"ª":{"ha":635,"x_min":54,"x_max":583,"o":"m 54 479 q 85 589 54 546 q 166 651 115 631 q 278 672 217 672 q 342 669 304 672 q 414 664 381 667 l 414 551 q 355 556 388 554 q 295 558 321 558 q 244 540 261 558 q 228 490 228 522 q 243 453 228 469 q 284 438 258 438 q 352 464 315 438 q 413 529 389 490 l 442 421 q 389 369 419 396 q 319 325 358 343 q 231 307 281 307 q 135 331 175 307 q 75 395 96 356 q 54 479 54 434 m 583 409 q 561 355 581 383 q 517 314 542 327 q 400 364 444 315 q 356 499 356 413 l 356 701 q 334 750 356 735 q 289 765 313 765 q 211 755 249 765 q 126 732 173 746 q 95 785 106 754 q 83 849 85 817 q 211 886 140 872 q 340 900 283 900 q 436 881 389 900 q 514 820 483 863 q 545 707 545 778 l 545 487 q 553 439 545 459 q 583 409 562 419 z "},"º":{"ha":633,"x_min":57,"x_max":576,"o":"m 576 603 q 557 476 576 536 q 492 369 539 415 q 414 321 460 337 q 317 306 368 306 q 218 321 263 306 q 141 369 173 337 q 76 476 94 415 q 57 603 57 536 q 76 731 57 671 q 141 837 94 790 q 317 900 205 900 q 414 884 368 900 q 492 837 460 869 q 557 731 538 790 q 576 603 576 671 m 235 603 q 243 519 235 556 q 269 462 251 483 q 317 442 287 442 q 365 462 347 442 q 390 519 382 483 q 397 603 397 556 q 390 688 397 651 q 365 744 382 724 q 317 764 347 764 q 269 744 287 764 q 243 688 251 724 q 235 603 235 651 z "},"‹":{"ha":485,"x_min":31,"x_max":442,"o":"m 267 358 l 442 144 q 416 99 436 122 q 372 58 397 76 q 323 35 347 41 l 42 292 q 31 354 31 317 q 42 416 31 391 l 321 678 q 391 637 356 671 q 437 568 426 603 l 267 358 z "},"›":{"ha":485,"x_min":43,"x_max":455,"o":"m 219 356 l 43 569 q 69 615 50 592 q 114 656 89 638 q 163 678 140 674 l 443 422 q 455 360 455 397 q 443 299 455 324 l 165 35 q 94 78 129 44 q 49 146 58 112 l 219 356 z "},"«":{"ha":856,"x_min":31,"x_max":813,"o":"m 638 358 l 813 144 q 787 99 807 122 q 742 58 767 76 q 694 35 717 41 l 413 292 q 401 354 401 317 q 413 416 401 391 l 692 678 q 762 637 726 671 q 808 568 797 603 l 638 358 m 267 358 l 442 144 q 416 99 436 122 q 372 58 397 76 q 323 35 347 41 l 42 292 q 31 354 31 317 q 42 416 31 391 l 321 678 q 391 637 356 671 q 437 568 426 603 l 267 358 z "},"»":{"ha":856,"x_min":43,"x_max":826,"o":"m 219 356 l 43 569 q 69 615 50 592 q 114 656 89 638 q 163 678 140 674 l 443 422 q 455 360 455 397 q 443 299 455 324 l 165 35 q 94 78 129 44 q 49 146 58 112 l 219 356 m 590 356 l 414 569 q 440 615 421 592 q 485 656 460 638 q 533 678 510 674 l 814 422 q 826 360 826 397 q 814 299 826 324 l 535 35 q 465 78 500 44 q 419 146 429 112 l 590 356 z "},"‘":{"ha":372,"x_min":53,"x_max":344,"o":"m 72 700 q 57 754 61 728 q 53 810 53 781 q 112 989 53 908 q 292 1105 171 1071 q 332 1063 320 1091 q 340 1005 344 1034 q 291 983 318 999 q 243 943 263 967 q 221 887 222 919 q 256 880 238 884 q 284 867 274 875 q 296 830 292 853 q 301 785 301 806 q 296 739 301 765 q 284 700 292 713 q 235 682 265 689 q 178 674 205 674 q 120 682 151 674 q 72 700 90 689 z "},"’":{"ha":372,"x_min":30,"x_max":319,"o":"m 301 1079 q 315 1025 311 1051 q 319 969 319 999 q 260 790 319 872 q 81 674 202 709 q 41 717 53 688 q 33 774 30 745 q 82 797 55 781 q 130 836 110 812 q 151 892 150 860 q 116 900 134 896 q 88 913 99 905 q 77 950 81 926 q 72 994 72 974 q 77 1040 72 1014 q 88 1079 81 1066 q 137 1098 107 1090 q 195 1105 167 1105 q 253 1098 222 1105 q 301 1079 283 1090 z "},"‚":{"ha":373,"x_min":26,"x_max":316,"o":"m 299 174 q 312 120 308 147 q 316 65 316 94 q 257 -115 316 -33 q 78 -231 199 -196 q 38 -188 50 -217 q 29 -131 26 -160 q 79 -108 52 -124 q 127 -69 106 -93 q 149 -12 147 -45 q 114 -5 131 -9 q 85 8 96 0 q 74 45 78 21 q 69 89 69 69 q 74 135 69 109 q 85 174 78 161 q 134 193 104 185 q 192 200 165 200 q 250 193 219 200 q 299 174 281 185 z "},"“":{"ha":699,"x_min":49,"x_max":667,"o":"m 67 700 q 53 754 57 728 q 49 810 49 781 q 108 989 49 908 q 288 1105 167 1071 q 328 1063 316 1091 q 336 1005 340 1034 q 286 983 314 999 q 239 943 259 967 q 217 887 218 919 q 252 880 234 884 q 280 867 270 875 q 292 830 288 853 q 297 785 297 806 q 292 739 297 765 q 280 700 288 713 q 231 682 261 689 q 174 674 201 674 q 116 682 147 674 q 67 700 85 689 m 394 700 q 380 754 384 728 q 376 810 376 781 q 435 989 376 908 q 615 1105 494 1071 q 655 1063 643 1091 q 663 1005 667 1034 q 614 983 641 999 q 566 943 586 967 q 544 887 545 919 q 579 880 561 884 q 607 867 597 875 q 619 830 615 853 q 624 785 624 806 q 619 739 624 765 q 607 700 615 713 q 558 682 588 689 q 501 674 528 674 q 443 682 474 674 q 394 700 413 689 z "},"”":{"ha":699,"x_min":36,"x_max":652,"o":"m 308 1079 q 321 1025 317 1051 q 325 969 325 999 q 267 790 325 872 q 87 674 208 709 q 48 717 59 688 q 39 774 36 745 q 89 797 61 781 q 136 836 116 812 q 158 892 156 860 q 123 900 140 896 q 94 913 105 905 q 83 950 88 926 q 78 994 78 974 q 83 1040 78 1014 q 94 1079 88 1066 q 143 1098 113 1090 q 201 1105 174 1105 q 259 1098 228 1105 q 308 1079 290 1090 m 635 1079 q 648 1025 644 1051 q 652 969 652 999 q 594 790 652 872 q 414 674 535 709 q 375 717 386 688 q 366 774 363 745 q 416 797 388 781 q 463 836 443 812 q 485 892 483 860 q 450 900 467 896 q 422 913 432 905 q 410 950 415 926 q 406 994 406 974 q 410 1040 406 1014 q 422 1079 415 1066 q 470 1098 440 1090 q 528 1105 501 1105 q 586 1098 556 1105 q 635 1079 617 1090 z "},"„":{"ha":699,"x_min":26,"x_max":642,"o":"m 299 174 q 312 120 308 147 q 316 65 316 94 q 257 -115 316 -33 q 78 -231 199 -196 q 38 -188 50 -217 q 29 -131 26 -160 q 79 -108 52 -124 q 127 -69 106 -93 q 149 -12 147 -45 q 114 -5 131 -9 q 85 8 96 0 q 74 45 78 21 q 69 89 69 69 q 74 135 69 109 q 85 174 78 161 q 134 193 104 185 q 192 200 165 200 q 250 193 219 200 q 299 174 281 185 m 625 174 q 639 120 635 147 q 642 65 642 94 q 584 -115 642 -33 q 404 -231 525 -196 q 365 -188 376 -217 q 356 -131 353 -160 q 406 -108 378 -124 q 453 -69 433 -93 q 475 -12 474 -45 q 440 -5 458 -9 q 412 8 422 0 q 400 45 405 21 q 396 89 396 69 q 400 135 396 109 q 412 174 405 161 q 461 193 431 185 q 518 200 491 200 q 576 193 546 200 q 625 174 607 185 z "},"†":{"ha":560,"x_min":17,"x_max":543,"o":"m 163 360 q 169 440 160 394 q 188 532 178 485 q 200 610 198 578 q 189 690 199 642 q 169 784 178 738 q 160 855 160 831 l 160 949 q 220 958 187 955 q 280 962 253 962 q 401 949 342 962 l 401 855 q 392 784 401 831 q 372 690 382 738 q 360 610 362 642 q 373 532 363 578 q 392 439 383 485 q 398 360 400 393 l 364 -168 q 319 -175 340 -174 q 281 -177 299 -177 q 242 -175 263 -177 q 197 -168 220 -174 l 163 360 m 465 526 q 409 533 445 527 q 337 544 373 538 q 281 550 301 550 q 225 544 262 550 q 151 533 188 538 q 95 526 114 527 l 28 524 q 20 570 22 544 q 17 610 17 596 q 20 650 17 625 q 28 697 22 676 l 95 694 q 150 689 113 694 q 226 677 188 683 q 281 671 263 671 q 338 676 302 671 q 409 688 373 682 q 465 694 444 694 l 533 697 q 541 651 538 678 q 543 610 543 625 q 541 571 543 596 q 533 524 538 546 l 465 526 z "},"‡":{"ha":612,"x_min":43,"x_max":569,"o":"m 192 369 q 197 448 190 403 q 214 539 205 494 q 226 617 223 585 q 214 695 224 649 q 195 786 204 742 q 185 855 185 831 l 185 947 q 246 957 213 953 q 306 960 279 960 q 426 947 367 960 l 426 855 q 417 786 426 831 q 397 695 407 742 q 385 617 387 649 q 397 539 388 585 q 414 448 406 494 q 420 369 422 403 l 388 -168 q 344 -175 364 -174 q 306 -177 325 -177 q 268 -175 288 -177 q 224 -168 247 -174 l 192 369 m 491 533 q 434 540 470 534 q 362 551 398 545 q 306 557 326 557 q 251 551 288 557 q 177 540 214 545 q 121 533 140 534 l 53 531 q 45 577 48 551 q 43 617 43 603 q 45 657 43 632 q 53 704 48 683 l 121 701 q 176 695 139 701 q 251 684 214 690 q 306 678 288 678 q 363 683 327 678 q 434 695 398 689 q 491 701 469 701 l 558 704 q 566 658 564 685 q 569 617 569 632 q 566 578 569 603 q 558 531 564 553 l 491 533 m 491 126 q 434 132 470 126 q 362 144 398 138 q 306 150 326 150 q 251 144 288 150 q 177 132 214 138 q 121 126 140 126 l 53 123 q 45 169 48 144 q 43 210 43 195 q 45 250 43 224 q 53 297 48 275 l 121 294 q 176 288 139 294 q 251 276 214 282 q 306 270 288 270 q 363 276 327 270 q 434 287 398 281 q 491 294 469 293 l 558 297 q 566 251 564 278 q 569 210 569 224 q 566 170 569 195 q 558 123 564 145 l 491 126 z "},"…":{"ha":1194,"x_min":74,"x_max":1121,"o":"m 74 94 q 77 133 74 107 q 90 178 81 160 q 141 197 111 190 q 199 204 172 204 q 257 197 226 204 q 308 178 288 190 q 321 133 317 160 q 324 94 324 107 q 321 56 324 82 q 308 10 317 29 q 257 -9 288 -3 q 199 -15 226 -15 q 141 -9 172 -15 q 90 10 111 -3 q 77 56 81 29 q 74 94 74 82 m 472 94 q 476 133 472 107 q 489 178 480 160 q 540 197 510 190 q 598 204 570 204 q 656 197 625 204 q 707 178 686 190 q 719 133 716 160 q 723 94 723 107 q 719 56 723 82 q 707 10 716 29 q 656 -9 686 -3 q 598 -15 625 -15 q 540 -9 570 -15 q 489 10 510 -3 q 476 56 480 29 q 472 94 472 82 m 870 94 q 874 133 870 107 q 887 178 878 160 q 938 197 908 190 q 996 204 968 204 q 1053 197 1023 204 q 1105 178 1084 190 q 1117 133 1114 160 q 1121 94 1121 107 q 1117 56 1121 82 q 1105 10 1114 29 q 1053 -9 1084 -3 q 996 -15 1023 -15 q 938 -9 968 -15 q 887 10 908 -3 q 874 56 878 29 q 870 94 870 82 z "},"¶":{"ha":1042,"x_min":36,"x_max":1028,"o":"m 383 88 q 372 7 383 40 q 333 -43 360 -26 q 258 -59 306 -59 q 188 -50 224 -59 q 120 -31 151 -42 q 85 -110 97 -63 q 75 -187 74 -158 q 164 -210 109 -199 q 279 -222 218 -222 q 468 -182 398 -222 q 569 -64 538 -142 q 600 133 600 15 l 600 940 l 591 950 q 482 955 531 952 q 379 957 432 957 q 203 926 281 957 q 81 826 126 894 q 36 644 36 757 q 81 467 36 537 q 200 362 125 397 q 366 328 275 328 l 383 328 l 383 88 m 685 939 l 694 949 l 905 949 l 905 -181 q 848 -189 877 -187 q 797 -190 819 -190 q 744 -189 777 -190 q 685 -181 711 -187 l 685 939 m 796 949 l 1017 949 q 1026 892 1024 928 q 1026 819 1028 856 q 1017 763 1024 783 l 980 763 q 922 765 951 763 q 865 767 894 767 l 796 767 l 796 949 z "},"ʼ":{"ha":303,"x_min":10,"x_max":269,"o":"m 253 1040 q 266 992 263 1015 q 269 944 269 970 q 217 786 269 858 q 57 685 165 715 q 20 724 31 697 q 13 776 10 751 q 56 794 31 782 q 99 827 80 807 q 119 876 117 847 q 88 883 103 879 q 63 892 73 888 q 54 927 58 906 q 50 964 50 948 q 54 1005 50 982 q 63 1040 58 1028 q 108 1056 83 1050 q 158 1062 134 1062 q 210 1056 183 1062 q 253 1040 237 1050 z "},"ʻ":{"ha":303,"x_min":34,"x_max":294,"o":"m 51 706 q 38 753 41 732 q 34 801 34 775 q 87 959 34 888 q 247 1060 140 1031 q 283 1022 273 1049 q 291 969 294 996 q 248 951 273 964 q 205 919 224 939 q 185 870 186 899 q 216 863 201 867 q 240 853 231 859 q 249 819 245 840 q 253 782 253 798 q 250 740 253 763 q 240 706 246 717 q 195 690 221 696 q 145 684 169 684 q 94 690 122 684 q 51 706 67 696 z "},"ʺ":{"ha":663,"x_min":46,"x_max":672,"o":"m 443 581 q 381 597 416 583 q 331 634 347 611 l 476 1049 q 583 1035 528 1052 q 672 985 638 1017 l 443 581 m 155 581 q 95 597 128 583 q 46 634 62 611 l 178 1049 q 284 1035 230 1052 q 373 985 339 1017 l 155 581 z "},"ˉ":{"ha":553,"x_min":-224,"x_max":224,"o":"m -212 794 q -224 872 -224 831 q -212 949 -224 910 l 214 949 q 222 913 219 928 q 224 874 224 897 q 214 794 224 833 l -212 794 z "},"ˋ":{"ha":553,"x_min":-203,"x_max":143,"o":"m -72 1069 q -150 1021 -110 1057 q -203 944 -190 985 l 54 751 q 107 782 81 759 q 143 835 132 805 l -72 1069 z "},"ʹ":{"ha":377,"x_min":46,"x_max":386,"o":"m 158 581 q 97 597 131 583 q 46 634 62 611 l 192 1049 q 298 1035 244 1052 q 386 985 352 1017 l 158 581 z "},"ʿ":{"ha":398,"x_min":22,"x_max":380,"o":"m 339 715 q 362 650 358 687 q 363 585 366 613 q 315 574 342 578 q 263 571 288 571 q 87 632 153 571 q 22 795 22 692 q 57 927 22 872 q 153 1013 92 983 q 294 1042 215 1042 q 339 1040 319 1042 q 374 1032 359 1038 q 373 958 380 994 q 351 901 365 922 q 333 903 342 902 q 310 905 324 905 q 230 876 258 904 q 201 804 201 848 q 227 734 201 759 q 295 709 253 709 q 320 711 309 709 q 339 715 331 713 z "},"ʾ":{"ha":398,"x_min":19,"x_max":376,"o":"m 59 898 q 36 964 40 926 q 35 1029 32 1001 q 82 1039 56 1035 q 135 1042 109 1042 q 310 982 245 1042 q 376 818 376 921 q 341 686 376 742 q 245 601 306 631 q 103 571 183 571 q 59 574 79 571 q 24 581 39 576 q 26 656 19 620 q 47 713 33 692 q 65 710 56 711 q 87 708 74 708 q 168 737 140 709 q 197 809 197 765 q 171 879 197 854 q 102 904 145 904 q 78 902 89 904 q 59 898 67 901 z "},"ˊ":{"ha":553,"x_min":-130,"x_max":217,"o":"m 86 1069 q 165 1021 125 1057 q 217 944 204 985 l -40 751 q -93 782 -67 759 q -130 835 -119 805 l 86 1069 z "},"ˌ":{"ha":274,"x_min":44,"x_max":231,"o":"m 44 171 q 86 178 62 175 q 137 181 110 181 q 188 178 163 181 q 231 171 212 175 l 218 -262 q 138 -270 183 -270 q 93 -268 114 -270 q 56 -262 72 -265 l 44 171 z "},"ˈ":{"ha":274,"x_min":44,"x_max":231,"o":"m 44 1022 q 86 1028 62 1026 q 137 1031 110 1031 q 188 1028 163 1031 q 231 1022 212 1026 l 218 589 q 138 581 183 581 q 93 583 114 581 q 56 589 72 585 l 44 1022 z "},"̈":{"ha":0,"x_min":-242,"x_max":242,"o":"m -242 869 q -240 903 -242 883 q -230 939 -237 922 q -187 956 -212 950 q -140 961 -163 961 q -93 956 -117 961 q -50 939 -68 950 q -41 903 -44 922 q -38 869 -38 883 q -41 836 -38 856 q -50 800 -44 816 q -93 783 -68 789 q -140 778 -117 778 q -187 783 -163 778 q -230 800 -212 789 q -240 836 -237 816 q -242 869 -242 856 m 38 869 q 41 903 38 883 q 50 939 44 922 q 93 956 68 950 q 140 961 117 961 q 188 956 163 961 q 230 939 213 950 q 240 903 237 922 q 242 869 242 883 q 240 836 242 856 q 230 800 237 816 q 188 783 213 789 q 140 778 163 778 q 93 783 117 778 q 50 800 68 789 q 41 836 44 816 q 38 869 38 856 z "},"̇":{"ha":0,"x_min":-119,"x_max":119,"o":"m -119 888 q -115 929 -119 908 q -103 969 -111 950 q -57 985 -85 978 q 0 991 -28 991 q 58 985 28 991 q 103 969 88 978 q 115 928 111 950 q 119 888 119 906 q 115 848 119 869 q 103 808 111 826 q 58 792 88 799 q 0 786 28 786 q -58 792 -28 786 q -103 808 -87 798 q -115 848 -111 826 q -119 888 -119 869 z "},"̀":{"ha":0,"x_min":-203,"x_max":143,"o":"m -72 1069 q -150 1021 -110 1057 q -203 944 -190 985 l 54 751 q 107 782 81 759 q 143 835 132 805 l -72 1069 z "},"́":{"ha":0,"x_min":-130,"x_max":217,"o":"m 86 1069 q 165 1021 125 1057 q 217 944 204 985 l -40 751 q -93 782 -67 759 q -130 835 -119 805 l 86 1069 z "},"̋":{"ha":0,"x_min":-210,"x_max":324,"o":"m 163 1072 q 256 1047 215 1073 q 324 986 297 1022 l 123 760 q 70 782 99 764 q 28 824 42 799 l 163 1072 m -92 1072 q 2 1054 -40 1076 q 74 999 44 1032 l -111 760 q -166 777 -136 761 q -210 817 -196 794 l -92 1072 z "},"̂":{"ha":0,"x_min":-214,"x_max":227,"o":"m 99 1028 l 227 853 q 184 797 214 821 q 133 766 155 774 l 6 886 l -120 766 q -171 797 -142 774 q -214 853 -201 821 l -87 1028 q -43 1036 -67 1033 q 6 1039 -19 1039 q 57 1036 33 1039 q 99 1028 81 1033 z "},"̌":{"ha":0,"x_min":-220,"x_max":221,"o":"m -93 781 l -220 954 q -177 1011 -207 988 q -127 1042 -148 1035 l 0 922 l 127 1042 q 178 1011 149 1035 q 221 954 208 988 l 93 781 q 0 769 53 769 q -93 781 -53 769 z "},"̆":{"ha":0,"x_min":-239,"x_max":239,"o":"m 239 961 q 157 823 221 878 q 0 768 93 768 q -157 823 -93 768 q -239 961 -221 878 q -190 997 -221 984 q -126 1008 -158 1009 q -78 944 -110 967 q 0 921 -46 921 q 78 944 46 921 q 126 1008 110 967 q 190 997 158 1009 q 239 961 221 984 z "},"̊":{"ha":0,"x_min":-196,"x_max":196,"o":"m -196 933 q -143 806 -196 859 q 0 753 -90 753 q 143 806 90 753 q 196 933 196 859 q 143 1058 196 1006 q 0 1110 90 1110 q -143 1058 -90 1110 q -196 933 -196 1006 m -68 933 q -50 982 -68 962 q 0 1003 -31 1003 q 50 982 31 1003 q 68 933 68 962 q 50 882 68 903 q 0 862 31 862 q -50 882 -31 862 q -68 933 -68 903 z "},"̃":{"ha":0,"x_min":-259,"x_max":258,"o":"m -57 824 q -74 832 -62 826 q -97 837 -85 837 q -129 824 -117 837 q -146 803 -141 810 l -158 786 q -217 805 -187 786 q -259 851 -248 823 l -247 878 q -183 966 -224 932 q -88 1000 -142 1000 q -35 991 -59 1000 q 2 976 -12 983 l 57 947 q 74 939 62 944 q 97 934 85 934 q 129 948 117 934 q 146 968 141 961 l 158 985 q 217 967 187 985 q 258 919 247 949 l 247 893 q 182 805 224 839 q 88 772 140 772 q 39 779 61 772 q -2 796 16 787 l -57 824 z "},"̄":{"ha":0,"x_min":-224,"x_max":224,"o":"m -212 794 q -224 872 -224 831 q -212 949 -224 910 l 214 949 q 222 913 219 928 q 224 874 224 897 q 214 794 224 833 l -212 794 z "},"̉":{"ha":0,"x_min":-149,"x_max":158,"o":"m -75 846 q -1 913 -1 872 q -14 939 -1 927 q -48 951 -26 951 q -78 947 -62 951 q -108 935 -94 942 q -137 982 -128 955 q -149 1036 -147 1009 q -81 1060 -118 1051 q -6 1070 -43 1070 q 113 1034 68 1070 q 158 937 158 997 q 108 826 158 873 q -22 751 58 780 q -57 791 -42 765 q -75 846 -72 816 z "},"̏":{"ha":0,"x_min":-317,"x_max":217,"o":"m -156 1072 l -22 824 q -63 782 -35 799 q -116 760 -92 764 l -317 986 q -249 1047 -290 1022 q -156 1072 -208 1073 m 99 1072 l 217 817 q 173 777 203 794 q 118 760 143 761 l -67 999 q 5 1054 -37 1032 q 99 1072 47 1076 z "},"̑":{"ha":0,"x_min":-239,"x_max":239,"o":"m 239 815 q 190 779 221 792 q 126 768 158 766 q 78 831 110 808 q 0 854 46 854 q -78 831 -46 854 q -126 768 -110 808 q -190 779 -158 766 q -239 815 -221 792 q -157 952 -221 897 q 0 1008 -93 1008 q 157 952 93 1008 q 239 815 221 897 z "},"̒":{"ha":0,"x_min":-101,"x_max":172,"o":"m -85 778 q -96 816 -92 793 q -101 860 -101 839 q -45 1001 -101 941 q 108 1090 11 1061 q 150 1058 133 1081 q 172 1005 167 1035 q 81 871 81 954 q 86 836 81 854 q 99 801 90 817 q 46 777 77 785 q -17 768 15 768 q -52 770 -35 768 q -85 778 -69 773 z "},"̛":{"ha":0,"x_min":-217,"x_max":166,"o":"m -83 701 q -25 719 -44 701 q -6 763 -6 737 q -12 799 -6 780 q -28 834 -19 819 q 35 871 -8 856 q 128 882 78 885 q 153 829 141 864 q 166 757 166 794 q 105 633 166 685 q -83 581 44 581 l -217 581 l -217 701 l -83 701 z "},"̣":{"ha":0,"x_min":-119,"x_max":119,"o":"m -119 -185 q -115 -144 -119 -165 q -103 -103 -111 -123 q -58 -88 -87 -94 q 0 -82 -28 -82 q 58 -88 28 -82 q 103 -103 88 -94 q 115 -144 111 -123 q 119 -185 119 -165 q 115 -224 119 -203 q 103 -265 111 -246 q 58 -281 88 -274 q 0 -287 28 -287 q -57 -281 -28 -287 q -103 -265 -85 -274 q -115 -225 -111 -246 q -119 -185 -119 -203 z "},"̤":{"ha":0,"x_min":-242,"x_max":242,"o":"m -242 -174 q -240 -140 -242 -160 q -230 -104 -237 -121 q -187 -87 -212 -93 q -140 -82 -163 -82 q -93 -87 -117 -82 q -50 -104 -68 -93 q -41 -140 -44 -121 q -38 -174 -38 -160 q -41 -207 -38 -187 q -50 -243 -44 -227 q -93 -260 -68 -254 q -140 -265 -117 -265 q -187 -260 -163 -265 q -230 -243 -212 -254 q -240 -207 -237 -227 q -242 -174 -242 -187 m 38 -174 q 41 -140 38 -160 q 50 -104 44 -121 q 93 -87 68 -93 q 140 -82 117 -82 q 188 -87 163 -82 q 230 -104 213 -93 q 240 -140 237 -121 q 242 -174 242 -160 q 240 -207 242 -187 q 230 -243 237 -227 q 188 -260 213 -254 q 140 -265 163 -265 q 93 -260 117 -265 q 50 -243 68 -254 q 41 -207 44 -227 q 38 -174 38 -187 z "},"̦":{"ha":0,"x_min":-170,"x_max":108,"o":"m 91 -85 q 108 -171 108 -120 q 51 -317 108 -255 q -105 -409 -6 -380 q -148 -376 -131 -400 q -170 -321 -165 -352 q -78 -182 -78 -268 q -83 -145 -78 -164 q -97 -108 -87 -126 q 22 -74 -48 -74 q 91 -85 60 -74 z "},"̧":{"ha":0,"x_min":-149,"x_max":163,"o":"m -103 -108 q -78 -50 -96 -85 q -48 8 -61 -14 l 65 8 q 48 -17 57 -1 q 33 -44 38 -33 q 127 -83 90 -49 q 163 -167 163 -118 q 109 -279 163 -236 q -30 -322 56 -322 q -97 -312 -64 -322 q -149 -290 -131 -303 q -139 -240 -148 -266 q -114 -197 -130 -214 q -85 -209 -102 -203 q -49 -215 -68 -215 q -12 -204 -25 -215 q 1 -175 1 -193 q -12 -145 1 -157 q -44 -133 -24 -133 q -60 -135 -53 -133 q -73 -139 -67 -137 q -91 -126 -82 -135 q -103 -108 -100 -117 z "},"̨":{"ha":0,"x_min":-267,"x_max":63,"o":"m -103 -303 q -222 -265 -176 -303 q -267 -165 -267 -228 q -237 -75 -267 -117 q -165 -1 -207 -33 q -88 50 -124 31 q -41 33 -64 45 q 0 0 -18 20 q -76 -53 -42 -22 q -110 -119 -110 -84 q -93 -157 -110 -144 q -53 -169 -76 -169 q -15 -163 -33 -169 q 17 -149 3 -156 q 47 -190 34 -165 q 63 -247 60 -216 q -8 -286 35 -269 q -103 -303 -52 -303 z "},"̮":{"ha":0,"x_min":-239,"x_max":239,"o":"m 239 -128 q 157 -266 221 -211 q 0 -322 93 -322 q -157 -266 -93 -322 q -239 -128 -221 -211 q -190 -93 -221 -106 q -126 -82 -158 -81 q -78 -145 -110 -122 q 0 -169 -46 -169 q 78 -145 46 -169 q 126 -82 110 -122 q 190 -93 158 -81 q 239 -128 221 -106 z "},"̱":{"ha":0,"x_min":-223,"x_max":224,"o":"m 213 -101 q 222 -140 219 -122 q 224 -179 224 -157 q 222 -217 224 -199 q 213 -257 219 -235 l -213 -257 q -220 -220 -218 -235 q -223 -181 -223 -205 q -213 -101 -223 -140 l 213 -101 z "},"̵":{"ha":0,"x_min":-267,"x_max":267,"o":"m 258 436 q 265 402 263 416 q 267 369 267 388 q 265 334 267 349 q 258 300 263 319 l -258 300 q -265 334 -262 319 q -267 369 -267 349 q -265 402 -267 388 q -258 436 -262 416 l 258 436 z "},"¨":{"ha":553,"x_min":34,"x_max":519,"o":"m 34 869 q 37 903 34 883 q 47 939 40 922 q 89 956 65 950 q 136 961 113 961 q 184 956 159 961 q 226 939 208 950 q 235 903 233 922 q 238 869 238 883 q 235 836 238 856 q 226 800 233 816 q 184 783 208 789 q 136 778 159 778 q 89 783 113 778 q 47 800 65 789 q 37 836 40 816 q 34 869 34 856 m 315 869 q 317 903 315 883 q 326 939 320 922 q 369 956 344 950 q 417 961 394 961 q 464 956 440 961 q 506 939 489 950 q 516 903 513 922 q 519 869 519 883 q 516 836 519 856 q 506 800 513 816 q 464 783 489 789 q 417 778 440 778 q 369 783 394 778 q 326 800 344 789 q 317 836 320 816 q 315 869 315 856 z "},"˙":{"ha":553,"x_min":157,"x_max":396,"o":"m 157 888 q 161 929 157 908 q 173 969 165 950 q 220 985 191 978 q 276 991 249 991 q 334 985 305 991 q 380 969 364 978 q 392 928 388 950 q 396 888 396 906 q 392 848 396 869 q 380 808 388 826 q 334 792 364 799 q 276 786 305 786 q 219 792 249 786 q 173 808 189 798 q 161 848 165 826 q 157 888 157 869 z "},"`":{"ha":553,"x_min":103,"x_max":449,"o":"m 234 1069 q 156 1021 196 1057 q 103 944 116 985 l 360 751 q 413 782 388 759 q 449 835 438 805 l 234 1069 z "},"´":{"ha":553,"x_min":103,"x_max":449,"o":"m 319 1069 q 397 1021 358 1057 q 449 944 437 985 l 192 751 q 140 782 165 759 q 103 835 114 805 l 319 1069 z "},"˝":{"ha":553,"x_min":10,"x_max":543,"o":"m 382 1072 q 475 1047 434 1073 q 543 986 516 1022 l 342 760 q 290 782 318 764 q 248 824 261 799 l 382 1072 m 127 1072 q 221 1054 179 1076 q 293 999 263 1032 l 108 760 q 53 777 83 761 q 10 817 24 794 l 127 1072 z "},"ˆ":{"ha":553,"x_min":56,"x_max":497,"o":"m 369 1028 l 497 853 q 455 797 484 821 q 403 766 425 774 l 276 886 l 150 766 q 99 797 128 774 q 56 853 69 821 l 183 1028 q 227 1036 203 1033 q 276 1039 251 1039 q 327 1036 303 1039 q 369 1028 351 1033 z "},"ˇ":{"ha":553,"x_min":56,"x_max":497,"o":"m 183 781 l 56 954 q 99 1011 69 988 q 149 1042 128 1035 l 276 922 l 403 1042 q 455 1011 425 1035 q 497 954 484 988 l 369 781 q 276 769 329 769 q 183 781 224 769 z "},"˘":{"ha":553,"x_min":38,"x_max":515,"o":"m 515 961 q 433 823 497 878 q 276 768 369 768 q 119 823 183 768 q 38 961 56 878 q 87 997 56 984 q 151 1008 118 1009 q 199 944 167 967 q 276 921 231 921 q 355 944 322 921 q 402 1008 387 967 q 466 997 435 1009 q 515 961 497 984 z "},"˚":{"ha":553,"x_min":81,"x_max":472,"o":"m 81 933 q 134 806 81 859 q 276 753 187 753 q 419 806 366 753 q 472 933 472 859 q 419 1058 472 1006 q 276 1110 366 1110 q 134 1058 187 1110 q 81 933 81 1006 m 208 933 q 227 982 208 962 q 276 1003 245 1003 q 326 982 308 1003 q 344 933 344 962 q 326 882 344 903 q 276 862 308 862 q 227 882 245 862 q 208 933 208 903 z "},"˜":{"ha":553,"x_min":17,"x_max":535,"o":"m 219 824 q 203 832 215 826 q 179 837 191 837 q 148 824 160 837 q 131 803 135 810 l 119 786 q 59 805 90 786 q 17 851 28 823 l 29 878 q 93 966 52 932 q 188 1000 135 1000 q 241 991 217 1000 q 278 976 265 983 l 333 947 q 350 939 338 944 q 374 934 362 934 q 405 948 393 934 q 422 968 417 961 l 434 985 q 493 967 463 985 q 535 919 524 949 l 524 893 q 459 805 501 839 q 364 772 417 772 q 315 779 338 772 q 274 796 292 787 l 219 824 z "},"¯":{"ha":553,"x_min":53,"x_max":500,"o":"m 64 794 q 53 872 53 831 q 64 949 53 910 l 490 949 q 498 913 496 928 q 500 874 500 897 q 490 794 500 833 l 64 794 z "},"¸":{"ha":553,"x_min":120,"x_max":433,"o":"m 166 -108 q 191 -50 174 -85 q 222 8 208 -14 l 335 8 q 317 -17 326 -1 q 303 -44 308 -33 q 396 -83 360 -49 q 433 -167 433 -118 q 379 -279 433 -236 q 240 -322 325 -322 q 172 -312 206 -322 q 120 -290 139 -303 q 131 -240 122 -266 q 156 -197 140 -214 q 184 -209 167 -203 q 220 -215 201 -215 q 257 -204 244 -215 q 270 -175 270 -193 q 258 -145 270 -157 q 225 -133 245 -133 q 210 -135 217 -133 q 197 -139 203 -137 q 178 -126 188 -135 q 166 -108 169 -117 z "},"˛":{"ha":553,"x_min":112,"x_max":442,"o":"m 276 -303 q 157 -265 203 -303 q 112 -165 112 -228 q 142 -75 112 -117 q 214 -1 172 -33 q 291 50 256 31 q 338 33 315 45 q 379 0 361 20 q 303 -53 337 -22 q 269 -119 269 -84 q 286 -157 269 -144 q 326 -169 303 -169 q 364 -163 346 -169 q 396 -149 383 -156 q 426 -190 413 -165 q 442 -247 440 -216 q 371 -286 415 -269 q 276 -303 327 -303 z "},"Á":{"ha":886,"x_min":12,"x_max":874,"o":"m 319 949 q 382 955 345 953 q 447 957 419 957 q 511 955 474 957 q 576 947 549 953 l 874 15 q 815 -6 851 1 q 747 -12 778 -12 q 665 12 694 -12 q 615 108 635 37 l 515 460 q 478 598 499 519 q 439 746 457 677 l 431 746 q 412 660 424 708 q 387 566 400 613 q 363 481 374 519 l 222 -1 q 177 -8 201 -6 q 127 -10 153 -10 q 70 -6 102 -10 q 20 6 39 -1 l 12 17 l 319 949 m 335 199 q 313 199 326 199 q 288 200 300 199 q 265 200 275 200 l 148 200 l 215 373 l 318 373 q 340 373 328 373 q 365 374 353 374 q 388 374 378 374 l 489 374 q 511 374 499 374 q 536 373 524 374 q 559 373 549 373 l 665 373 l 722 200 l 604 200 q 582 200 594 200 q 556 199 569 199 q 533 199 543 199 l 335 199 m 585 1304 q 621 1264 603 1291 q 653 1205 640 1238 q 669 1141 667 1173 l 335 1010 q 295 1054 313 1022 q 274 1114 278 1086 l 585 1304 z "},"Ă":{"ha":886,"x_min":12,"x_max":874,"o":"m 319 949 q 382 955 345 953 q 447 957 419 957 q 511 955 474 957 q 576 947 549 953 l 874 15 q 815 -6 851 1 q 747 -12 778 -12 q 665 12 694 -12 q 615 108 635 37 l 515 460 q 478 598 499 519 q 439 746 457 677 l 431 746 q 412 660 424 708 q 387 566 400 613 q 363 481 374 519 l 222 -1 q 177 -8 201 -6 q 127 -10 153 -10 q 70 -6 102 -10 q 20 6 39 -1 l 12 17 l 319 949 m 335 199 q 313 199 326 199 q 288 200 300 199 q 265 200 275 200 l 148 200 l 215 373 l 318 373 q 340 373 328 373 q 365 374 353 374 q 388 374 378 374 l 489 374 q 511 374 499 374 q 536 373 524 374 q 559 373 549 373 l 665 373 l 722 200 l 604 200 q 582 200 594 200 q 556 199 569 199 q 533 199 543 199 l 335 199 m 703 1219 q 615 1081 684 1137 q 447 1026 545 1026 q 280 1081 349 1026 q 191 1219 210 1137 q 243 1254 210 1242 q 310 1265 276 1267 q 364 1202 328 1225 q 447 1178 399 1178 q 531 1202 495 1178 q 585 1265 566 1225 q 651 1254 619 1267 q 703 1219 684 1242 z "},"Ắ":{"ha":886,"x_min":12,"x_max":874,"o":"m 319 949 q 382 955 345 953 q 447 957 419 957 q 511 955 474 957 q 576 947 549 953 l 874 15 q 815 -6 851 1 q 747 -12 778 -12 q 665 12 694 -12 q 615 108 635 37 l 515 460 q 478 598 499 519 q 439 746 457 677 l 431 746 q 412 660 424 708 q 387 566 400 613 q 363 481 374 519 l 222 -1 q 177 -8 201 -6 q 127 -10 153 -10 q 70 -6 102 -10 q 20 6 39 -1 l 12 17 l 319 949 m 335 199 q 313 199 326 199 q 288 200 300 199 q 265 200 275 200 l 148 200 l 215 373 l 318 373 q 340 373 328 373 q 365 374 353 374 q 388 374 378 374 l 489 374 q 511 374 499 374 q 536 373 524 374 q 559 373 549 373 l 665 373 l 722 200 l 604 200 q 582 200 594 200 q 556 199 569 199 q 533 199 543 199 l 335 199 m 201 1211 q 251 1245 219 1233 q 315 1256 283 1258 q 367 1195 333 1217 q 447 1173 401 1173 q 527 1195 493 1173 q 579 1256 562 1217 q 643 1245 612 1258 q 693 1211 675 1233 q 609 1079 675 1132 q 447 1026 542 1026 q 286 1079 353 1026 q 201 1211 219 1132 m 569 1549 l 253 1399 q 265 1343 256 1370 q 294 1298 275 1316 l 633 1392 q 614 1483 633 1438 q 569 1549 594 1528 z "},"Ặ":{"ha":886,"x_min":12,"x_max":874,"o":"m 319 949 q 382 955 345 953 q 447 957 419 957 q 511 955 474 957 q 576 947 549 953 l 874 15 q 815 -6 851 1 q 747 -12 778 -12 q 665 12 694 -12 q 615 108 635 37 l 515 460 q 478 598 499 519 q 439 746 457 677 l 431 746 q 412 660 424 708 q 387 566 400 613 q 363 481 374 519 l 222 -1 q 177 -8 201 -6 q 127 -10 153 -10 q 70 -6 102 -10 q 20 6 39 -1 l 12 17 l 319 949 m 335 199 q 313 199 326 199 q 288 200 300 199 q 265 200 275 200 l 148 200 l 215 373 l 318 373 q 340 373 328 373 q 365 374 353 374 q 388 374 378 374 l 489 374 q 511 374 499 374 q 536 373 524 374 q 559 373 549 373 l 665 373 l 722 200 l 604 200 q 582 200 594 200 q 556 199 569 199 q 533 199 543 199 l 335 199 m 328 -185 q 332 -144 328 -165 q 344 -103 336 -123 q 390 -88 360 -94 q 447 -82 419 -82 q 505 -88 476 -82 q 551 -103 535 -94 q 563 -144 558 -123 q 567 -185 567 -165 q 563 -224 567 -203 q 551 -265 558 -246 q 505 -281 535 -274 q 447 -287 476 -287 q 391 -281 419 -287 q 344 -265 362 -274 q 332 -225 336 -246 q 328 -185 328 -203 m 703 1219 q 615 1081 684 1137 q 447 1026 545 1026 q 280 1081 349 1026 q 191 1219 210 1137 q 243 1254 210 1242 q 310 1265 276 1267 q 364 1202 328 1225 q 447 1178 399 1178 q 531 1202 495 1178 q 585 1265 566 1225 q 651 1254 619 1267 q 703 1219 684 1242 z "},"Ằ":{"ha":886,"x_min":12,"x_max":874,"o":"m 319 949 q 382 955 345 953 q 447 957 419 957 q 511 955 474 957 q 576 947 549 953 l 874 15 q 815 -6 851 1 q 747 -12 778 -12 q 665 12 694 -12 q 615 108 635 37 l 515 460 q 478 598 499 519 q 439 746 457 677 l 431 746 q 412 660 424 708 q 387 566 400 613 q 363 481 374 519 l 222 -1 q 177 -8 201 -6 q 127 -10 153 -10 q 70 -6 102 -10 q 20 6 39 -1 l 12 17 l 319 949 m 335 199 q 313 199 326 199 q 288 200 300 199 q 265 200 275 200 l 148 200 l 215 373 l 318 373 q 340 373 328 373 q 365 374 353 374 q 388 374 378 374 l 489 374 q 511 374 499 374 q 536 373 524 374 q 559 373 549 373 l 665 373 l 722 200 l 604 200 q 582 200 594 200 q 556 199 569 199 q 533 199 543 199 l 335 199 m 693 1211 q 608 1079 675 1132 q 447 1026 542 1026 q 286 1079 353 1026 q 201 1211 219 1132 q 251 1245 219 1233 q 315 1256 283 1258 q 367 1195 333 1217 q 447 1173 401 1173 q 527 1195 493 1173 q 579 1256 562 1217 q 643 1245 612 1258 q 693 1211 675 1233 m 325 1549 q 281 1483 301 1528 q 261 1392 261 1438 l 600 1298 q 629 1343 619 1316 q 641 1399 639 1370 l 325 1549 z "},"Ẳ":{"ha":886,"x_min":12,"x_max":874,"o":"m 319 949 q 382 955 345 953 q 447 957 419 957 q 511 955 474 957 q 576 947 549 953 l 874 15 q 815 -6 851 1 q 747 -12 778 -12 q 665 12 694 -12 q 615 108 635 37 l 515 460 q 478 598 499 519 q 439 746 457 677 l 431 746 q 412 660 424 708 q 387 566 400 613 q 363 481 374 519 l 222 -1 q 177 -8 201 -6 q 127 -10 153 -10 q 70 -6 102 -10 q 20 6 39 -1 l 12 17 l 319 949 m 335 199 q 313 199 326 199 q 288 200 300 199 q 265 200 275 200 l 148 200 l 215 373 l 318 373 q 340 373 328 373 q 365 374 353 374 q 388 374 378 374 l 489 374 q 511 374 499 374 q 536 373 524 374 q 559 373 549 373 l 665 373 l 722 200 l 604 200 q 582 200 594 200 q 556 199 569 199 q 533 199 543 199 l 335 199 m 376 1347 q 431 1372 413 1358 q 450 1406 450 1387 q 438 1431 450 1422 q 406 1440 425 1440 q 374 1435 389 1440 q 342 1423 358 1431 q 315 1467 324 1441 q 305 1518 306 1492 q 368 1541 331 1532 q 444 1551 406 1551 q 561 1513 522 1551 q 600 1426 600 1475 q 552 1325 600 1369 q 424 1258 504 1280 q 390 1296 402 1272 q 376 1347 378 1319 m 693 1211 q 608 1079 675 1132 q 447 1026 542 1026 q 286 1079 353 1026 q 201 1211 219 1132 q 251 1245 219 1233 q 315 1256 283 1258 q 367 1195 333 1217 q 447 1173 401 1173 q 527 1195 493 1173 q 579 1256 562 1217 q 643 1245 612 1258 q 693 1211 675 1233 z "},"Ẵ":{"ha":886,"x_min":12,"x_max":874,"o":"m 319 949 q 382 955 345 953 q 447 957 419 957 q 511 955 474 957 q 576 947 549 953 l 874 15 q 815 -6 851 1 q 747 -12 778 -12 q 665 12 694 -12 q 615 108 635 37 l 515 460 q 478 598 499 519 q 439 746 457 677 l 431 746 q 412 660 424 708 q 387 566 400 613 q 363 481 374 519 l 222 -1 q 177 -8 201 -6 q 127 -10 153 -10 q 70 -6 102 -10 q 20 6 39 -1 l 12 17 l 319 949 m 335 199 q 313 199 326 199 q 288 200 300 199 q 265 200 275 200 l 148 200 l 215 373 l 318 373 q 340 373 328 373 q 365 374 353 374 q 388 374 378 374 l 489 374 q 511 374 499 374 q 536 373 524 374 q 559 373 549 373 l 665 373 l 722 200 l 604 200 q 582 200 594 200 q 556 199 569 199 q 533 199 543 199 l 335 199 m 693 1211 q 608 1079 675 1132 q 447 1026 542 1026 q 286 1079 353 1026 q 201 1211 219 1132 q 251 1245 219 1233 q 315 1256 283 1258 q 367 1195 333 1217 q 447 1173 401 1173 q 527 1195 493 1173 q 579 1256 562 1217 q 643 1245 612 1258 q 693 1211 675 1233 m 390 1367 q 370 1375 381 1372 q 349 1378 360 1378 q 326 1371 338 1378 q 303 1348 315 1364 l 292 1332 q 234 1349 264 1332 q 192 1392 203 1366 l 203 1416 q 267 1497 228 1465 q 362 1528 307 1528 q 407 1522 384 1528 q 447 1506 429 1515 l 505 1477 q 525 1469 515 1473 q 545 1465 535 1465 q 568 1473 557 1465 q 592 1497 579 1480 l 603 1512 q 661 1495 631 1512 q 702 1452 691 1478 l 691 1428 q 627 1348 667 1380 q 533 1315 587 1315 q 488 1323 510 1315 q 447 1339 465 1330 l 390 1367 z "},"Â":{"ha":886,"x_min":12,"x_max":874,"o":"m 319 949 q 382 955 345 953 q 447 957 419 957 q 511 955 474 957 q 576 947 549 953 l 874 15 q 815 -6 851 1 q 747 -12 778 -12 q 665 12 694 -12 q 615 108 635 37 l 515 460 q 478 598 499 519 q 439 746 457 677 l 431 746 q 412 660 424 708 q 387 566 400 613 q 363 481 374 519 l 222 -1 q 177 -8 201 -6 q 127 -10 153 -10 q 70 -6 102 -10 q 20 6 39 -1 l 12 17 l 319 949 m 335 199 q 313 199 326 199 q 288 200 300 199 q 265 200 275 200 l 148 200 l 215 373 l 318 373 q 340 373 328 373 q 365 374 353 374 q 388 374 378 374 l 489 374 q 511 374 499 374 q 536 373 524 374 q 559 373 549 373 l 665 373 l 722 200 l 604 200 q 582 200 594 200 q 556 199 569 199 q 533 199 543 199 l 335 199 m 535 1264 l 693 1110 q 656 1053 683 1078 q 608 1021 629 1029 l 444 1124 l 282 1021 q 233 1053 260 1029 q 196 1110 206 1078 l 354 1264 q 397 1270 373 1267 q 444 1272 420 1272 q 492 1270 469 1272 q 535 1264 516 1267 z "},"Ấ":{"ha":886,"x_min":12,"x_max":874,"o":"m 319 949 q 382 955 345 953 q 447 957 419 957 q 511 955 474 957 q 576 947 549 953 l 874 15 q 815 -6 851 1 q 747 -12 778 -12 q 665 12 694 -12 q 615 108 635 37 l 515 460 q 478 598 499 519 q 439 746 457 677 l 431 746 q 412 660 424 708 q 387 566 400 613 q 363 481 374 519 l 222 -1 q 177 -8 201 -6 q 127 -10 153 -10 q 70 -6 102 -10 q 20 6 39 -1 l 12 17 l 319 949 m 335 199 q 313 199 326 199 q 288 200 300 199 q 265 200 275 200 l 148 200 l 215 373 l 318 373 q 340 373 328 373 q 365 374 353 374 q 388 374 378 374 l 489 374 q 511 374 499 374 q 536 373 524 374 q 559 373 549 373 l 665 373 l 722 200 l 604 200 q 582 200 594 200 q 556 199 569 199 q 533 199 543 199 l 335 199 m 533 1250 l 687 1108 q 651 1053 678 1076 q 604 1021 624 1029 l 444 1128 l 285 1021 q 239 1053 265 1029 q 203 1108 213 1076 l 357 1250 q 444 1259 397 1259 q 533 1250 492 1259 m 569 1549 l 253 1399 q 265 1343 255 1370 q 294 1298 274 1316 l 633 1392 q 613 1483 633 1438 q 569 1549 594 1528 z "},"Ậ":{"ha":886,"x_min":12,"x_max":874,"o":"m 319 949 q 382 955 345 953 q 447 957 419 957 q 511 955 474 957 q 576 947 549 953 l 874 15 q 815 -6 851 1 q 747 -12 778 -12 q 665 12 694 -12 q 615 108 635 37 l 515 460 q 478 598 499 519 q 439 746 457 677 l 431 746 q 412 660 424 708 q 387 566 400 613 q 363 481 374 519 l 222 -1 q 177 -8 201 -6 q 127 -10 153 -10 q 70 -6 102 -10 q 20 6 39 -1 l 12 17 l 319 949 m 335 199 q 313 199 326 199 q 288 200 300 199 q 265 200 275 200 l 148 200 l 215 373 l 318 373 q 340 373 328 373 q 365 374 353 374 q 388 374 378 374 l 489 374 q 511 374 499 374 q 536 373 524 374 q 559 373 549 373 l 665 373 l 722 200 l 604 200 q 582 200 594 200 q 556 199 569 199 q 533 199 543 199 l 335 199 m 328 -185 q 332 -144 328 -165 q 344 -103 336 -123 q 390 -88 360 -94 q 447 -82 419 -82 q 505 -88 476 -82 q 551 -103 535 -94 q 563 -144 558 -123 q 567 -185 567 -165 q 563 -224 567 -203 q 551 -265 558 -246 q 505 -281 535 -274 q 447 -287 476 -287 q 391 -281 419 -287 q 344 -265 362 -274 q 332 -225 336 -246 q 328 -185 328 -203 m 535 1264 l 693 1110 q 656 1053 683 1078 q 608 1021 629 1029 l 444 1124 l 282 1021 q 233 1053 260 1029 q 196 1110 206 1078 l 354 1264 q 397 1270 373 1267 q 444 1272 420 1272 q 492 1270 469 1272 q 535 1264 516 1267 z "},"Ầ":{"ha":886,"x_min":12,"x_max":874,"o":"m 319 949 q 382 955 345 953 q 447 957 419 957 q 511 955 474 957 q 576 947 549 953 l 874 15 q 815 -6 851 1 q 747 -12 778 -12 q 665 12 694 -12 q 615 108 635 37 l 515 460 q 478 598 499 519 q 439 746 457 677 l 431 746 q 412 660 424 708 q 387 566 400 613 q 363 481 374 519 l 222 -1 q 177 -8 201 -6 q 127 -10 153 -10 q 70 -6 102 -10 q 20 6 39 -1 l 12 17 l 319 949 m 335 199 q 313 199 326 199 q 288 200 300 199 q 265 200 275 200 l 148 200 l 215 373 l 318 373 q 340 373 328 373 q 365 374 353 374 q 388 374 378 374 l 489 374 q 511 374 499 374 q 536 373 524 374 q 559 373 549 373 l 665 373 l 722 200 l 604 200 q 582 200 594 200 q 556 199 569 199 q 533 199 543 199 l 335 199 m 357 1250 q 444 1259 397 1259 q 533 1250 492 1259 l 687 1108 q 651 1053 678 1076 q 604 1021 624 1029 l 444 1128 l 285 1021 q 239 1053 265 1029 q 203 1108 213 1076 l 357 1250 m 320 1549 q 277 1483 297 1528 q 256 1392 257 1438 l 595 1298 q 625 1343 615 1316 q 637 1399 635 1370 l 320 1549 z "},"Ẩ":{"ha":886,"x_min":12,"x_max":874,"o":"m 319 949 q 382 955 345 953 q 447 957 419 957 q 511 955 474 957 q 576 947 549 953 l 874 15 q 815 -6 851 1 q 747 -12 778 -12 q 665 12 694 -12 q 615 108 635 37 l 515 460 q 478 598 499 519 q 439 746 457 677 l 431 746 q 412 660 424 708 q 387 566 400 613 q 363 481 374 519 l 222 -1 q 177 -8 201 -6 q 127 -10 153 -10 q 70 -6 102 -10 q 20 6 39 -1 l 12 17 l 319 949 m 335 199 q 313 199 326 199 q 288 200 300 199 q 265 200 275 200 l 148 200 l 215 373 l 318 373 q 340 373 328 373 q 365 374 353 374 q 388 374 378 374 l 489 374 q 511 374 499 374 q 536 373 524 374 q 559 373 549 373 l 665 373 l 722 200 l 604 200 q 582 200 594 200 q 556 199 569 199 q 533 199 543 199 l 335 199 m 533 1250 l 687 1108 q 651 1053 678 1076 q 604 1021 624 1029 l 444 1128 l 285 1021 q 239 1053 265 1029 q 203 1108 213 1076 l 357 1250 q 444 1259 397 1259 q 533 1250 492 1259 m 569 1334 q 620 1359 602 1344 q 638 1392 638 1374 q 625 1417 638 1408 q 594 1426 612 1426 q 562 1422 577 1426 q 531 1409 547 1417 q 505 1453 514 1428 q 494 1505 495 1479 q 556 1528 519 1518 q 631 1538 593 1538 q 747 1500 708 1538 q 785 1413 785 1462 q 738 1311 785 1356 q 615 1245 692 1266 q 582 1283 594 1259 q 569 1334 570 1306 z "},"Ẫ":{"ha":886,"x_min":12,"x_max":874,"o":"m 319 949 q 382 955 345 953 q 447 957 419 957 q 511 955 474 957 q 576 947 549 953 l 874 15 q 815 -6 851 1 q 747 -12 778 -12 q 665 12 694 -12 q 615 108 635 37 l 515 460 q 478 598 499 519 q 439 746 457 677 l 431 746 q 412 660 424 708 q 387 566 400 613 q 363 481 374 519 l 222 -1 q 177 -8 201 -6 q 127 -10 153 -10 q 70 -6 102 -10 q 20 6 39 -1 l 12 17 l 319 949 m 335 199 q 313 199 326 199 q 288 200 300 199 q 265 200 275 200 l 148 200 l 215 373 l 318 373 q 340 373 328 373 q 365 374 353 374 q 388 374 378 374 l 489 374 q 511 374 499 374 q 536 373 524 374 q 559 373 549 373 l 665 373 l 722 200 l 604 200 q 582 200 594 200 q 556 199 569 199 q 533 199 543 199 l 335 199 m 390 1367 q 370 1374 381 1371 q 349 1378 360 1378 q 326 1370 338 1378 q 303 1347 315 1363 l 292 1331 q 234 1348 264 1331 q 192 1392 203 1365 l 203 1415 q 267 1496 228 1464 q 362 1528 307 1528 q 407 1521 384 1528 q 447 1505 430 1514 l 505 1476 q 525 1468 515 1472 q 545 1465 535 1465 q 568 1472 557 1465 q 592 1496 580 1480 l 603 1511 q 661 1494 631 1511 q 702 1451 691 1478 l 691 1428 q 627 1347 667 1379 q 533 1315 587 1315 q 488 1322 510 1315 q 447 1338 465 1329 l 390 1367 m 533 1250 l 687 1108 q 651 1053 678 1076 q 604 1021 624 1029 l 444 1128 l 285 1021 q 239 1053 265 1029 q 203 1108 213 1076 l 357 1250 q 444 1259 397 1259 q 533 1250 492 1259 z "},"Ȁ":{"ha":886,"x_min":12,"x_max":874,"o":"m 319 949 q 382 955 345 953 q 447 957 419 957 q 511 955 474 957 q 576 947 549 953 l 874 15 q 815 -6 851 1 q 747 -12 778 -12 q 665 12 694 -12 q 615 108 635 37 l 515 460 q 478 598 499 519 q 439 746 457 677 l 431 746 q 412 660 424 708 q 387 566 400 613 q 363 481 374 519 l 222 -1 q 177 -8 201 -6 q 127 -10 153 -10 q 70 -6 102 -10 q 20 6 39 -1 l 12 17 l 319 949 m 335 199 q 313 199 326 199 q 288 200 300 199 q 265 200 275 200 l 148 200 l 215 373 l 318 373 q 340 373 328 373 q 365 374 353 374 q 388 374 378 374 l 489 374 q 511 374 499 374 q 536 373 524 374 q 559 373 549 373 l 665 373 l 722 200 l 604 200 q 582 200 594 200 q 556 199 569 199 q 533 199 543 199 l 335 199 m 226 1306 l 421 1093 q 389 1042 414 1066 q 342 1010 365 1018 l 93 1187 q 143 1261 109 1228 q 226 1306 177 1294 m 516 1306 l 710 1093 q 678 1043 703 1067 q 631 1010 654 1018 l 382 1187 q 432 1261 398 1228 q 516 1306 466 1294 z "},"Ä":{"ha":886,"x_min":12,"x_max":874,"o":"m 319 949 q 382 955 345 953 q 447 957 419 957 q 511 955 474 957 q 576 947 549 953 l 874 15 q 815 -6 851 1 q 747 -12 778 -12 q 665 12 694 -12 q 615 108 635 37 l 515 460 q 478 598 499 519 q 439 746 457 677 l 431 746 q 412 660 424 708 q 387 566 400 613 q 363 481 374 519 l 222 -1 q 177 -8 201 -6 q 127 -10 153 -10 q 70 -6 102 -10 q 20 6 39 -1 l 12 17 l 319 949 m 335 199 q 313 199 326 199 q 288 200 300 199 q 265 200 275 200 l 148 200 l 215 373 l 318 373 q 340 373 328 373 q 365 374 353 374 q 388 374 378 374 l 489 374 q 511 374 499 374 q 536 373 524 374 q 559 373 549 373 l 665 373 l 722 200 l 604 200 q 582 200 594 200 q 556 199 569 199 q 533 199 543 199 l 335 199 m 606 1031 q 558 1036 583 1031 q 515 1053 533 1042 q 506 1091 508 1070 q 503 1124 503 1111 q 506 1158 503 1138 q 515 1195 508 1178 q 558 1212 533 1206 q 606 1218 583 1218 q 654 1212 629 1218 q 697 1195 678 1206 q 706 1158 703 1178 q 708 1124 708 1138 q 706 1091 708 1111 q 697 1053 703 1070 q 654 1036 678 1042 q 606 1031 629 1031 m 286 1031 q 238 1036 263 1031 q 195 1053 213 1042 q 186 1091 189 1070 q 183 1124 183 1111 q 186 1158 183 1138 q 195 1195 189 1178 q 238 1212 213 1206 q 286 1218 263 1218 q 334 1212 310 1218 q 377 1195 359 1206 q 386 1158 384 1178 q 389 1124 389 1138 q 386 1091 389 1111 q 377 1053 384 1070 q 334 1036 359 1042 q 286 1031 310 1031 z "},"Ạ":{"ha":886,"x_min":12,"x_max":874,"o":"m 319 949 q 382 955 345 953 q 447 957 419 957 q 511 955 474 957 q 576 947 549 953 l 874 15 q 815 -6 851 1 q 747 -12 778 -12 q 665 12 694 -12 q 615 108 635 37 l 515 460 q 478 598 499 519 q 439 746 457 677 l 431 746 q 412 660 424 708 q 387 566 400 613 q 363 481 374 519 l 222 -1 q 177 -8 201 -6 q 127 -10 153 -10 q 70 -6 102 -10 q 20 6 39 -1 l 12 17 l 319 949 m 335 199 q 313 199 326 199 q 288 200 300 199 q 265 200 275 200 l 148 200 l 215 373 l 318 373 q 340 373 328 373 q 365 374 353 374 q 388 374 378 374 l 489 374 q 511 374 499 374 q 536 373 524 374 q 559 373 549 373 l 665 373 l 722 200 l 604 200 q 582 200 594 200 q 556 199 569 199 q 533 199 543 199 l 335 199 m 328 -185 q 332 -144 328 -165 q 344 -103 336 -123 q 390 -88 360 -94 q 447 -82 419 -82 q 505 -88 476 -82 q 551 -103 535 -94 q 563 -144 558 -123 q 567 -185 567 -165 q 563 -224 567 -203 q 551 -265 558 -246 q 505 -281 535 -274 q 447 -287 476 -287 q 391 -281 419 -287 q 344 -265 362 -274 q 332 -225 336 -246 q 328 -185 328 -203 z "},"À":{"ha":886,"x_min":12,"x_max":874,"o":"m 319 949 q 382 955 345 953 q 447 957 419 957 q 511 955 474 957 q 576 947 549 953 l 874 15 q 815 -6 851 1 q 747 -12 778 -12 q 665 12 694 -12 q 615 108 635 37 l 515 460 q 478 598 499 519 q 439 746 457 677 l 431 746 q 412 660 424 708 q 387 566 400 613 q 363 481 374 519 l 222 -1 q 177 -8 201 -6 q 127 -10 153 -10 q 70 -6 102 -10 q 20 6 39 -1 l 12 17 l 319 949 m 335 199 q 313 199 326 199 q 288 200 300 199 q 265 200 275 200 l 148 200 l 215 373 l 318 373 q 340 373 328 373 q 365 374 353 374 q 388 374 378 374 l 489 374 q 511 374 499 374 q 536 373 524 374 q 559 373 549 373 l 665 373 l 722 200 l 604 200 q 582 200 594 200 q 556 199 569 199 q 533 199 543 199 l 335 199 m 322 1304 q 287 1264 306 1291 q 254 1205 268 1238 q 238 1141 240 1173 l 572 1010 q 614 1055 599 1025 q 633 1114 628 1084 l 322 1304 z "},"Ả":{"ha":886,"x_min":12,"x_max":874,"o":"m 319 949 q 382 955 345 953 q 447 957 419 957 q 511 955 474 957 q 576 947 549 953 l 874 15 q 815 -6 851 1 q 747 -12 778 -12 q 665 12 694 -12 q 615 108 635 37 l 515 460 q 478 598 499 519 q 439 746 457 677 l 431 746 q 412 660 424 708 q 387 566 400 613 q 363 481 374 519 l 222 -1 q 177 -8 201 -6 q 127 -10 153 -10 q 70 -6 102 -10 q 20 6 39 -1 l 12 17 l 319 949 m 335 199 q 313 199 326 199 q 288 200 300 199 q 265 200 275 200 l 148 200 l 215 373 l 318 373 q 340 373 328 373 q 365 374 353 374 q 388 374 378 374 l 489 374 q 511 374 499 374 q 536 373 524 374 q 559 373 549 373 l 665 373 l 722 200 l 604 200 q 582 200 594 200 q 556 199 569 199 q 533 199 543 199 l 335 199 m 370 1102 q 430 1130 409 1114 q 451 1165 451 1146 q 437 1192 451 1183 q 402 1202 423 1202 q 368 1197 385 1202 q 334 1183 351 1192 q 306 1230 315 1203 q 296 1283 297 1256 q 363 1309 324 1299 q 443 1319 403 1319 q 567 1279 526 1319 q 608 1186 608 1239 q 557 1080 608 1127 q 422 1010 506 1033 q 385 1048 399 1024 q 370 1102 372 1073 z "},"Ȃ":{"ha":886,"x_min":12,"x_max":874,"o":"m 319 949 q 382 955 345 953 q 447 957 419 957 q 511 955 474 957 q 576 947 549 953 l 874 15 q 815 -6 851 1 q 747 -12 778 -12 q 665 12 694 -12 q 615 108 635 37 l 515 460 q 478 598 499 519 q 439 746 457 677 l 431 746 q 412 660 424 708 q 387 566 400 613 q 363 481 374 519 l 222 -1 q 177 -8 201 -6 q 127 -10 153 -10 q 70 -6 102 -10 q 20 6 39 -1 l 12 17 l 319 949 m 335 199 q 313 199 326 199 q 288 200 300 199 q 265 200 275 200 l 148 200 l 215 373 l 318 373 q 340 373 328 373 q 365 374 353 374 q 388 374 378 374 l 489 374 q 511 374 499 374 q 536 373 524 374 q 559 373 549 373 l 665 373 l 722 200 l 604 200 q 582 200 594 200 q 556 199 569 199 q 533 199 543 199 l 335 199 m 703 1080 q 651 1044 684 1057 q 585 1033 619 1031 q 531 1096 566 1073 q 447 1119 495 1119 q 364 1096 399 1119 q 310 1033 328 1073 q 243 1044 276 1031 q 191 1080 210 1057 q 280 1217 210 1163 q 447 1272 349 1272 q 615 1217 545 1272 q 703 1080 684 1163 z "},"Ā":{"ha":886,"x_min":12,"x_max":874,"o":"m 319 949 q 382 955 345 953 q 447 957 419 957 q 511 955 474 957 q 576 947 549 953 l 874 15 q 815 -6 851 1 q 747 -12 778 -12 q 665 12 694 -12 q 615 108 635 37 l 515 460 q 478 598 499 519 q 439 746 457 677 l 431 746 q 412 660 424 708 q 387 566 400 613 q 363 481 374 519 l 222 -1 q 177 -8 201 -6 q 127 -10 153 -10 q 70 -6 102 -10 q 20 6 39 -1 l 12 17 l 319 949 m 335 199 q 313 199 326 199 q 288 200 300 199 q 265 200 275 200 l 148 200 l 215 373 l 318 373 q 340 373 328 373 q 365 374 353 374 q 388 374 378 374 l 489 374 q 511 374 499 374 q 536 373 524 374 q 559 373 549 373 l 665 373 l 722 200 l 604 200 q 582 200 594 200 q 556 199 569 199 q 533 199 543 199 l 335 199 m 224 1050 q 213 1128 213 1087 q 224 1206 213 1167 l 672 1206 q 680 1169 678 1184 q 682 1130 682 1153 q 672 1050 682 1089 l 224 1050 z "},"Ą":{"ha":886,"x_min":12,"x_max":928,"o":"m 883 -149 q 913 -190 900 -165 q 928 -247 926 -216 q 858 -286 901 -269 q 764 -303 814 -303 q 644 -265 691 -303 q 598 -165 598 -228 q 625 -73 598 -115 q 690 -2 653 -32 q 756 42 727 28 l 874 15 q 786 -49 817 -15 q 756 -119 756 -82 q 772 -157 756 -144 q 813 -169 789 -169 q 850 -163 832 -169 q 883 -149 869 -156 m 319 949 q 382 955 345 953 q 447 957 419 957 q 511 955 474 957 q 576 947 549 953 l 874 15 q 815 -6 851 1 q 747 -12 778 -12 q 665 12 694 -12 q 615 108 635 37 l 515 460 q 478 598 499 519 q 439 746 457 677 l 431 746 q 412 660 424 708 q 387 566 400 613 q 363 481 374 519 l 222 -1 q 177 -8 201 -6 q 127 -10 153 -10 q 70 -6 102 -10 q 20 6 39 -1 l 12 17 l 319 949 m 335 199 q 313 199 326 199 q 288 200 300 199 q 265 200 275 200 l 148 200 l 215 373 l 318 373 q 340 373 328 373 q 365 374 353 374 q 388 374 378 374 l 489 374 q 511 374 499 374 q 536 373 524 374 q 559 373 549 373 l 665 373 l 722 200 l 604 200 q 582 200 594 200 q 556 199 569 199 q 533 199 543 199 l 335 199 z "},"Å":{"ha":886,"x_min":12,"x_max":874,"o":"m 322 959 l 572 959 l 874 15 q 815 -6 851 1 q 747 -12 778 -12 q 665 12 694 -12 q 615 108 635 37 l 515 460 q 478 598 499 519 q 439 746 457 677 l 431 746 q 412 660 424 708 q 387 566 400 613 q 363 481 374 519 l 222 -1 q 177 -8 201 -6 q 127 -10 153 -10 q 70 -6 102 -10 q 20 6 39 -1 l 12 17 l 322 959 m 335 199 q 313 199 326 199 q 288 200 300 199 q 265 200 275 200 l 148 200 l 215 373 l 318 373 q 340 373 328 373 q 365 374 353 374 q 388 374 378 374 l 489 374 q 511 374 499 374 q 536 373 524 374 q 559 373 549 373 l 665 373 l 722 200 l 604 200 q 582 200 594 200 q 556 199 569 199 q 533 199 543 199 l 335 199 m 251 1094 q 304 1220 251 1169 q 447 1272 358 1272 q 590 1220 537 1272 q 643 1094 643 1169 q 590 969 643 1021 q 447 917 537 917 q 304 969 358 917 q 251 1094 251 1021 m 378 1094 q 397 1044 378 1065 q 447 1024 416 1024 q 497 1044 478 1024 q 515 1094 515 1065 q 497 1144 515 1124 q 447 1165 478 1165 q 397 1144 416 1165 q 378 1094 378 1124 z "},"Ǻ":{"ha":886,"x_min":12,"x_max":874,"o":"m 322 959 l 572 959 l 874 15 q 815 -6 851 1 q 747 -12 778 -12 q 665 12 694 -12 q 615 108 635 37 l 515 460 q 478 598 499 519 q 439 746 457 677 l 431 746 q 412 660 424 708 q 387 566 400 613 q 363 481 374 519 l 222 -1 q 177 -8 201 -6 q 127 -10 153 -10 q 70 -6 102 -10 q 20 6 39 -1 l 12 17 l 322 959 m 335 199 q 313 199 326 199 q 288 200 300 199 q 265 200 275 200 l 148 200 l 215 373 l 318 373 q 340 373 328 373 q 365 374 353 374 q 388 374 378 374 l 489 374 q 511 374 499 374 q 536 373 524 374 q 559 373 549 373 l 665 373 l 722 200 l 604 200 q 582 200 594 200 q 556 199 569 199 q 533 199 543 199 l 335 199 m 251 1094 q 304 1220 251 1169 q 447 1272 358 1272 q 590 1220 537 1272 q 643 1094 643 1169 q 590 969 643 1021 q 447 917 537 917 q 304 969 358 917 q 251 1094 251 1021 m 378 1094 q 397 1044 378 1065 q 447 1024 416 1024 q 497 1044 478 1024 q 515 1094 515 1065 q 497 1144 515 1124 q 447 1165 478 1165 q 397 1144 416 1165 q 378 1094 378 1124 m 585 1580 q 621 1540 603 1567 q 653 1481 640 1513 q 669 1417 667 1449 l 335 1285 q 295 1330 313 1298 q 274 1390 278 1362 l 585 1580 z "},"Ã":{"ha":886,"x_min":12,"x_max":874,"o":"m 319 949 q 382 955 345 953 q 447 957 419 957 q 511 955 474 957 q 576 947 549 953 l 874 15 q 815 -6 851 1 q 747 -12 778 -12 q 665 12 694 -12 q 615 108 635 37 l 515 460 q 478 598 499 519 q 439 746 457 677 l 431 746 q 412 660 424 708 q 387 566 400 613 q 363 481 374 519 l 222 -1 q 177 -8 201 -6 q 127 -10 153 -10 q 70 -6 102 -10 q 20 6 39 -1 l 12 17 l 319 949 m 335 199 q 313 199 326 199 q 288 200 300 199 q 265 200 275 200 l 148 200 l 215 373 l 318 373 q 340 373 328 373 q 365 374 353 374 q 388 374 378 374 l 489 374 q 511 374 499 374 q 536 373 524 374 q 559 373 549 373 l 665 373 l 722 200 l 604 200 q 582 200 594 200 q 556 199 569 199 q 533 199 543 199 l 335 199 m 383 1085 q 363 1094 374 1090 q 340 1097 352 1097 q 315 1090 328 1097 q 290 1064 302 1083 l 278 1047 q 214 1065 247 1047 q 169 1112 181 1083 l 181 1138 q 250 1226 206 1192 q 353 1260 294 1260 q 403 1253 378 1260 q 447 1236 427 1246 l 510 1205 q 532 1196 520 1200 q 554 1192 543 1192 q 579 1200 566 1192 q 605 1226 592 1207 l 617 1243 q 681 1224 647 1242 q 725 1178 714 1206 l 713 1152 q 644 1064 688 1099 q 541 1029 600 1029 q 491 1037 516 1029 q 448 1053 466 1044 l 383 1085 z "},"Æ":{"ha":1231,"x_min":6,"x_max":1183,"o":"m 417 930 q 480 945 441 941 q 551 949 519 949 l 684 949 l 544 746 l 535 746 q 485 613 513 684 q 431 480 458 541 l 231 0 q 180 -7 206 -6 q 128 -8 154 -8 q 67 -5 100 -8 q 14 6 34 -1 l 6 18 l 417 930 m 370 199 q 332 199 355 199 q 294 200 309 200 l 203 200 l 279 371 l 363 371 q 398 372 379 371 q 433 372 417 372 l 492 372 q 515 372 502 372 q 540 371 527 372 q 563 371 552 371 l 644 371 l 644 200 l 563 200 q 541 200 553 200 q 516 199 528 199 q 493 199 503 199 l 370 199 m 541 939 l 551 949 l 754 949 l 754 766 q 755 714 754 737 q 756 663 756 691 l 756 283 q 755 233 756 256 q 754 181 754 209 l 754 -4 l 667 -4 q 574 31 608 -4 q 541 126 541 65 l 541 939 m 1065 567 q 1076 521 1073 547 q 1078 476 1078 494 q 1076 433 1078 458 q 1065 386 1073 408 l 849 386 q 801 386 833 386 q 738 388 770 387 q 683 389 705 388 l 683 565 q 738 566 705 565 q 801 567 770 567 q 849 567 833 567 l 1065 567 m 1148 949 q 1155 902 1153 924 q 1156 861 1156 880 q 1151 815 1156 842 q 1138 763 1147 788 l 849 763 q 801 763 833 763 q 738 764 770 763 q 683 765 705 765 l 683 949 l 1148 949 m 1183 182 q 1149 36 1183 77 q 1037 -4 1115 -4 l 683 -4 l 683 175 q 767 180 728 177 q 857 182 806 182 l 1183 182 z "},"Ǽ":{"ha":1231,"x_min":6,"x_max":1183,"o":"m 417 930 q 480 945 441 941 q 551 949 519 949 l 684 949 l 544 746 l 535 746 q 485 613 513 684 q 431 480 458 541 l 231 0 q 180 -7 206 -6 q 128 -8 154 -8 q 67 -5 100 -8 q 14 6 34 -1 l 6 18 l 417 930 m 370 199 q 332 199 355 199 q 294 200 309 200 l 203 200 l 279 371 l 363 371 q 398 372 379 371 q 433 372 417 372 l 492 372 q 515 372 502 372 q 540 371 527 372 q 563 371 552 371 l 644 371 l 644 200 l 563 200 q 541 200 553 200 q 516 199 528 199 q 493 199 503 199 l 370 199 m 541 939 l 551 949 l 754 949 l 754 766 q 755 714 754 737 q 756 663 756 691 l 756 283 q 755 233 756 256 q 754 181 754 209 l 754 -4 l 667 -4 q 574 31 608 -4 q 541 126 541 65 l 541 939 m 1065 567 q 1076 521 1073 547 q 1078 476 1078 494 q 1076 433 1078 458 q 1065 386 1073 408 l 849 386 q 801 386 833 386 q 738 388 770 387 q 683 389 705 388 l 683 565 q 738 566 705 565 q 801 567 770 567 q 849 567 833 567 l 1065 567 m 1148 949 q 1155 902 1153 924 q 1156 861 1156 880 q 1151 815 1156 842 q 1138 763 1147 788 l 849 763 q 801 763 833 763 q 738 764 770 763 q 683 765 705 765 l 683 949 l 1148 949 m 1183 182 q 1149 36 1183 77 q 1037 -4 1115 -4 l 683 -4 l 683 175 q 767 180 728 177 q 857 182 806 182 l 1183 182 m 789 1304 q 825 1264 806 1291 q 857 1205 843 1238 q 873 1141 871 1173 l 539 1010 q 499 1054 516 1022 q 478 1114 481 1086 l 789 1304 z "},"Ć":{"ha":846,"x_min":50,"x_max":813,"o":"m 601 571 q 590 680 603 628 q 544 762 577 731 q 449 794 510 794 q 321 710 359 794 q 283 469 283 627 q 333 247 283 321 q 474 173 383 173 q 603 203 546 173 q 710 270 661 234 q 774 207 742 249 q 812 127 805 166 q 712 54 772 88 q 581 0 653 20 q 433 -21 510 -21 q 250 22 324 -21 q 132 136 176 65 q 69 294 88 207 q 50 471 50 381 q 106 756 50 646 q 253 918 161 866 q 456 970 345 970 q 644 932 564 970 q 768 828 724 894 q 813 681 813 763 q 779 588 813 616 q 685 559 745 559 q 642 563 662 559 q 601 571 622 566 m 592 1306 q 627 1266 609 1292 q 660 1207 646 1239 q 676 1142 674 1174 l 342 1011 q 301 1056 319 1024 q 281 1115 284 1088 l 592 1306 z "},"Č":{"ha":846,"x_min":50,"x_max":813,"o":"m 601 571 q 590 680 603 628 q 544 762 577 731 q 449 794 510 794 q 321 710 359 794 q 283 469 283 627 q 333 247 283 321 q 474 173 383 173 q 603 203 546 173 q 710 270 661 234 q 774 207 742 249 q 812 127 805 166 q 712 54 772 88 q 581 0 653 20 q 433 -21 510 -21 q 250 22 324 -21 q 132 136 176 65 q 69 294 88 207 q 50 471 50 381 q 106 756 50 646 q 253 918 161 866 q 456 970 345 970 q 644 932 564 970 q 768 828 724 894 q 813 681 813 763 q 779 588 813 616 q 685 559 745 559 q 642 563 662 559 q 601 571 622 566 m 617 1278 q 665 1246 638 1270 q 702 1189 692 1222 l 544 1035 q 502 1030 526 1031 q 453 1028 478 1028 q 405 1030 429 1028 q 363 1035 381 1031 l 205 1189 q 242 1246 215 1222 q 290 1278 269 1270 l 453 1175 l 617 1278 z "},"Ç":{"ha":846,"x_min":50,"x_max":813,"o":"m 601 571 q 590 680 603 628 q 544 762 577 731 q 449 794 510 794 q 321 710 359 794 q 283 469 283 627 q 333 247 283 321 q 474 173 383 173 q 603 203 546 173 q 710 270 661 234 q 774 207 742 249 q 812 127 805 166 q 712 54 772 88 q 581 0 653 20 q 433 -21 510 -21 q 250 22 324 -21 q 132 136 176 65 q 69 294 88 207 q 50 471 50 381 q 106 756 50 646 q 253 918 161 866 q 456 970 345 970 q 644 932 564 970 q 768 828 724 894 q 813 681 813 763 q 779 588 813 616 q 685 559 745 559 q 642 563 662 559 q 601 571 622 566 m 351 -108 q 376 -50 358 -85 q 406 8 393 -14 l 519 8 q 502 -17 511 -1 q 488 -44 492 -33 q 581 -83 544 -49 q 617 -167 617 -118 q 564 -279 617 -236 q 424 -322 510 -322 q 357 -312 390 -322 q 305 -290 324 -303 q 315 -240 306 -266 q 340 -197 324 -214 q 369 -209 352 -203 q 405 -215 386 -215 q 442 -204 429 -215 q 455 -175 455 -193 q 442 -145 455 -157 q 410 -133 430 -133 q 394 -135 401 -133 q 381 -139 388 -137 q 363 -126 372 -135 q 351 -108 354 -117 z "},"Ḉ":{"ha":846,"x_min":50,"x_max":813,"o":"m 601 571 q 590 680 603 628 q 544 762 577 731 q 449 794 510 794 q 321 710 359 794 q 283 469 283 627 q 333 247 283 321 q 474 173 383 173 q 603 203 546 173 q 710 270 661 234 q 774 207 742 249 q 812 127 805 166 q 712 54 772 88 q 581 0 653 20 q 433 -21 510 -21 q 250 22 324 -21 q 132 136 176 65 q 69 294 88 207 q 50 471 50 381 q 106 756 50 646 q 253 918 161 866 q 456 970 345 970 q 644 932 564 970 q 768 828 724 894 q 813 681 813 763 q 779 588 813 616 q 685 559 745 559 q 642 563 662 559 q 601 571 622 566 m 351 -108 q 376 -50 358 -85 q 406 8 393 -14 l 519 8 q 502 -17 511 -1 q 488 -44 492 -33 q 581 -83 544 -49 q 617 -167 617 -118 q 564 -279 617 -236 q 424 -322 510 -322 q 357 -312 390 -322 q 305 -290 324 -303 q 315 -240 306 -266 q 340 -197 324 -214 q 369 -209 352 -203 q 405 -215 386 -215 q 442 -204 429 -215 q 455 -175 455 -193 q 442 -145 455 -157 q 410 -133 430 -133 q 394 -135 401 -133 q 381 -139 388 -137 q 363 -126 372 -135 q 351 -108 354 -117 m 592 1306 q 627 1266 609 1292 q 660 1207 646 1239 q 676 1142 674 1174 l 342 1011 q 301 1056 319 1024 q 281 1115 284 1088 l 592 1306 z "},"Ĉ":{"ha":846,"x_min":50,"x_max":813,"o":"m 601 571 q 590 680 603 628 q 544 762 577 731 q 449 794 510 794 q 321 710 359 794 q 283 469 283 627 q 333 247 283 321 q 474 173 383 173 q 603 203 546 173 q 710 270 661 234 q 774 207 742 249 q 812 127 805 166 q 712 54 772 88 q 581 0 653 20 q 433 -21 510 -21 q 250 22 324 -21 q 132 136 176 65 q 69 294 88 207 q 50 471 50 381 q 106 756 50 646 q 253 918 161 866 q 456 970 345 970 q 644 932 564 970 q 768 828 724 894 q 813 681 813 763 q 779 588 813 616 q 685 559 745 559 q 642 563 662 559 q 601 571 622 566 m 542 1265 l 699 1112 q 663 1055 690 1079 q 614 1022 635 1031 l 451 1126 l 288 1022 q 240 1055 267 1031 q 202 1112 213 1079 l 360 1265 q 403 1271 379 1269 q 451 1274 426 1274 q 499 1271 475 1274 q 542 1265 522 1269 z "},"Ċ":{"ha":846,"x_min":50,"x_max":813,"o":"m 601 571 q 590 680 603 628 q 544 762 577 731 q 449 794 510 794 q 321 710 359 794 q 283 469 283 627 q 333 247 283 321 q 474 173 383 173 q 603 203 546 173 q 710 270 661 234 q 774 207 742 249 q 812 127 805 166 q 712 54 772 88 q 581 0 653 20 q 433 -21 510 -21 q 250 22 324 -21 q 132 136 176 65 q 69 294 88 207 q 50 471 50 381 q 106 756 50 646 q 253 918 161 866 q 456 970 345 970 q 644 932 564 970 q 768 828 724 894 q 813 681 813 763 q 779 588 813 616 q 685 559 745 559 q 642 563 662 559 q 601 571 622 566 m 334 1135 q 338 1175 334 1153 q 350 1215 342 1196 q 397 1231 368 1224 q 453 1237 426 1237 q 511 1231 482 1237 q 557 1215 541 1224 q 569 1174 565 1196 q 573 1135 573 1153 q 557 1053 573 1093 q 511 1038 541 1044 q 453 1032 482 1032 q 396 1038 426 1032 q 350 1053 366 1044 q 334 1135 334 1093 z "},"Ð":{"ha":948,"x_min":24,"x_max":897,"o":"m 897 475 q 885 318 897 394 q 840 178 874 243 q 740 61 807 113 q 664 21 709 36 q 572 -1 619 6 q 487 -8 525 -8 q 369 -8 427 -8 q 254 -6 312 -7 q 136 -3 197 -4 l 126 7 l 126 942 l 136 951 q 254 955 197 953 q 369 957 312 956 q 487 957 427 957 q 572 950 525 957 q 664 927 619 943 q 740 887 709 912 q 840 770 806 835 q 885 630 873 705 q 897 475 897 556 m 668 475 q 662 582 668 528 q 637 682 656 637 q 582 756 618 728 q 487 784 547 784 q 415 784 451 784 q 343 785 380 785 l 343 164 q 415 165 380 165 q 487 165 451 165 q 582 193 547 165 q 637 267 618 221 q 662 368 656 313 q 668 475 668 422 m 33 392 q 25 435 27 413 q 24 479 24 457 q 25 524 24 499 q 33 571 27 549 l 519 571 q 526 527 524 549 q 528 482 528 505 q 519 392 528 432 l 33 392 z "},"Ď":{"ha":927,"x_min":106,"x_max":876,"o":"m 876 475 q 864 318 876 394 q 819 178 853 243 q 719 61 786 113 q 642 21 688 36 q 550 -1 597 6 q 465 -8 503 -8 q 348 -8 405 -8 q 233 -6 290 -7 q 115 -3 176 -4 l 106 7 l 106 942 l 115 951 q 232 955 175 953 q 347 957 290 956 q 465 957 405 957 q 551 950 503 957 q 643 927 598 943 q 719 887 688 912 q 819 770 785 835 q 864 630 852 705 q 876 475 876 556 m 647 475 q 641 582 647 528 q 615 682 634 637 q 560 756 597 728 q 465 784 524 784 q 397 784 429 784 q 327 785 364 785 l 327 164 q 397 165 364 165 q 465 165 429 165 q 560 193 524 165 q 615 267 597 221 q 641 368 634 313 q 647 475 647 422 m 608 1276 q 657 1244 629 1269 q 694 1188 684 1220 l 535 1034 q 493 1028 517 1030 q 445 1026 469 1026 q 397 1028 421 1026 q 355 1034 373 1030 l 197 1188 q 234 1244 206 1220 q 282 1276 261 1269 l 445 1174 l 608 1276 z "},"Đ":{"ha":948,"x_min":24,"x_max":897,"o":"m 897 475 q 885 318 897 394 q 840 178 874 243 q 740 61 807 113 q 664 21 709 36 q 572 -1 619 6 q 487 -8 525 -8 q 369 -8 427 -8 q 254 -6 312 -7 q 136 -3 197 -4 l 126 7 l 126 942 l 136 951 q 254 955 197 953 q 369 957 312 956 q 487 957 427 957 q 572 950 525 957 q 664 927 619 943 q 740 887 709 912 q 840 770 806 835 q 885 630 873 705 q 897 475 897 556 m 668 475 q 662 582 668 528 q 637 682 656 637 q 582 756 618 728 q 487 784 547 784 q 415 784 451 784 q 343 785 380 785 l 343 164 q 415 165 380 165 q 487 165 451 165 q 582 193 547 165 q 637 267 618 221 q 662 368 656 313 q 668 475 668 422 m 33 392 q 25 435 27 413 q 24 479 24 457 q 25 524 24 499 q 33 571 27 549 l 519 571 q 526 527 524 549 q 528 482 528 505 q 519 392 528 432 l 33 392 z "},"Ḍ":{"ha":927,"x_min":106,"x_max":876,"o":"m 876 475 q 864 318 876 394 q 819 178 853 243 q 719 61 786 113 q 642 21 688 36 q 550 -1 597 6 q 465 -8 503 -8 q 348 -8 405 -8 q 233 -6 290 -7 q 115 -3 176 -4 l 106 7 l 106 942 l 115 951 q 232 955 175 953 q 347 957 290 956 q 465 957 405 957 q 551 950 503 957 q 643 927 598 943 q 719 887 688 912 q 819 770 785 835 q 864 630 852 705 q 876 475 876 556 m 647 475 q 641 582 647 528 q 615 682 634 637 q 560 756 597 728 q 465 784 524 784 q 397 784 429 784 q 327 785 364 785 l 327 164 q 397 165 364 165 q 465 165 429 165 q 560 193 524 165 q 615 267 597 221 q 641 368 634 313 q 647 475 647 422 m 319 -185 q 323 -144 319 -165 q 335 -103 327 -123 q 381 -88 351 -94 q 438 -82 410 -82 q 496 -88 467 -82 q 542 -103 526 -94 q 553 -144 549 -123 q 558 -185 558 -165 q 553 -224 558 -203 q 542 -265 549 -246 q 496 -281 526 -274 q 438 -287 467 -287 q 382 -281 410 -287 q 335 -265 353 -274 q 323 -225 327 -246 q 319 -185 319 -203 z "},"Ḏ":{"ha":927,"x_min":106,"x_max":876,"o":"m 876 475 q 864 318 876 394 q 819 178 853 243 q 719 61 786 113 q 642 21 688 36 q 550 -1 597 6 q 465 -8 503 -8 q 348 -8 405 -8 q 233 -6 290 -7 q 115 -3 176 -4 l 106 7 l 106 942 l 115 951 q 232 955 175 953 q 347 957 290 956 q 465 957 405 957 q 551 950 503 957 q 643 927 598 943 q 719 887 688 912 q 819 770 785 835 q 864 630 852 705 q 876 475 876 556 m 647 475 q 641 582 647 528 q 615 682 634 637 q 560 756 597 728 q 465 784 524 784 q 397 784 429 784 q 327 785 364 785 l 327 164 q 397 165 364 165 q 465 165 429 165 q 560 193 524 165 q 615 267 597 221 q 641 368 634 313 q 647 475 647 422 m 663 -101 q 671 -140 669 -122 q 673 -179 673 -157 q 671 -217 673 -199 q 663 -257 669 -235 l 214 -257 q 207 -220 209 -235 q 204 -181 204 -205 q 214 -101 204 -140 l 663 -101 z "},"É":{"ha":796,"x_min":104,"x_max":747,"o":"m 104 939 l 114 949 l 323 949 l 323 766 q 324 714 323 737 q 324 663 324 691 l 324 281 q 324 231 324 253 q 323 181 323 209 l 323 -4 l 232 -4 q 138 31 172 -4 q 104 126 104 65 l 104 939 m 630 567 q 640 521 638 547 q 643 476 643 494 q 640 433 643 458 q 630 386 638 408 l 418 386 q 369 386 401 386 q 303 388 337 387 q 247 389 269 388 l 247 565 q 303 566 269 565 q 369 567 337 567 q 418 567 401 567 l 630 567 m 713 949 q 719 902 718 924 q 720 861 720 880 q 716 815 720 842 q 702 763 711 788 l 418 763 q 369 763 401 763 q 303 764 337 763 q 247 765 269 765 l 247 949 l 713 949 m 747 182 q 719 43 747 90 q 601 -4 690 -4 l 247 -4 l 247 175 q 334 180 292 177 q 426 182 375 182 l 747 182 m 553 1304 q 589 1264 571 1291 q 622 1205 608 1238 q 638 1141 635 1173 l 303 1010 q 263 1054 281 1022 q 242 1114 246 1086 l 553 1304 z "},"Ĕ":{"ha":796,"x_min":104,"x_max":747,"o":"m 104 939 l 114 949 l 323 949 l 323 766 q 324 714 323 737 q 324 663 324 691 l 324 281 q 324 231 324 253 q 323 181 323 209 l 323 -4 l 232 -4 q 138 31 172 -4 q 104 126 104 65 l 104 939 m 630 567 q 640 521 638 547 q 643 476 643 494 q 640 433 643 458 q 630 386 638 408 l 418 386 q 369 386 401 386 q 303 388 337 387 q 247 389 269 388 l 247 565 q 303 566 269 565 q 369 567 337 567 q 418 567 401 567 l 630 567 m 713 949 q 719 902 718 924 q 720 861 720 880 q 716 815 720 842 q 702 763 711 788 l 418 763 q 369 763 401 763 q 303 764 337 763 q 247 765 269 765 l 247 949 l 713 949 m 747 182 q 719 43 747 90 q 601 -4 690 -4 l 247 -4 l 247 175 q 334 180 292 177 q 426 182 375 182 l 747 182 m 672 1219 q 583 1081 652 1137 q 415 1026 513 1026 q 248 1081 317 1026 q 159 1219 178 1137 q 211 1254 178 1242 q 278 1265 244 1267 q 332 1202 297 1225 q 415 1178 367 1178 q 499 1202 463 1178 q 553 1265 534 1225 q 619 1254 587 1267 q 672 1219 652 1242 z "},"Ě":{"ha":796,"x_min":104,"x_max":747,"o":"m 104 939 l 114 949 l 323 949 l 323 766 q 324 714 323 737 q 324 663 324 691 l 324 281 q 324 231 324 253 q 323 181 323 209 l 323 -4 l 232 -4 q 138 31 172 -4 q 104 126 104 65 l 104 939 m 630 567 q 640 521 638 547 q 643 476 643 494 q 640 433 643 458 q 630 386 638 408 l 418 386 q 369 386 401 386 q 303 388 337 387 q 247 389 269 388 l 247 565 q 303 566 269 565 q 369 567 337 567 q 418 567 401 567 l 630 567 m 713 949 q 719 902 718 924 q 720 861 720 880 q 716 815 720 842 q 702 763 711 788 l 418 763 q 369 763 401 763 q 303 764 337 763 q 247 765 269 765 l 247 949 l 713 949 m 747 182 q 719 43 747 90 q 601 -4 690 -4 l 247 -4 l 247 175 q 334 180 292 177 q 426 182 375 182 l 747 182 m 578 1276 q 627 1244 599 1269 q 664 1188 654 1220 l 506 1034 q 464 1028 488 1030 q 415 1026 440 1026 q 367 1028 391 1026 q 325 1034 343 1030 l 167 1188 q 204 1244 176 1220 q 252 1276 231 1269 l 415 1174 l 578 1276 z "},"Ḝ":{"ha":796,"x_min":104,"x_max":747,"o":"m 104 939 l 114 949 l 323 949 l 323 766 q 324 714 323 737 q 324 663 324 691 l 324 281 q 324 231 324 253 q 323 181 323 209 l 323 -4 l 232 -4 q 138 31 172 -4 q 104 126 104 65 l 104 939 m 630 567 q 640 521 638 547 q 643 476 643 494 q 640 433 643 458 q 630 386 638 408 l 418 386 q 369 386 401 386 q 303 388 337 387 q 247 389 269 388 l 247 565 q 303 566 269 565 q 369 567 337 567 q 418 567 401 567 l 630 567 m 713 949 q 719 902 718 924 q 720 861 720 880 q 716 815 720 842 q 702 763 711 788 l 418 763 q 369 763 401 763 q 303 764 337 763 q 247 765 269 765 l 247 949 l 713 949 m 747 182 q 719 43 747 90 q 601 -4 690 -4 l 247 -4 l 247 175 q 334 180 292 177 q 426 182 375 182 l 747 182 m 328 -108 q 353 -50 335 -85 q 383 8 370 -14 l 497 8 q 479 -17 488 -1 q 465 -44 469 -33 q 558 -83 522 -49 q 594 -167 594 -118 q 541 -279 594 -236 q 401 -322 487 -322 q 334 -312 367 -322 q 282 -290 301 -303 q 292 -240 283 -266 q 317 -197 301 -214 q 346 -209 329 -203 q 382 -215 363 -215 q 419 -204 406 -215 q 432 -175 432 -193 q 419 -145 432 -157 q 387 -133 407 -133 q 372 -135 378 -133 q 358 -139 365 -137 q 340 -126 349 -135 q 328 -108 331 -117 m 672 1219 q 583 1081 652 1137 q 415 1026 513 1026 q 248 1081 317 1026 q 159 1219 178 1137 q 211 1254 178 1242 q 278 1265 244 1267 q 332 1202 297 1225 q 415 1178 367 1178 q 499 1202 463 1178 q 553 1265 534 1225 q 619 1254 587 1267 q 672 1219 652 1242 z "},"Ê":{"ha":796,"x_min":104,"x_max":747,"o":"m 104 939 l 114 949 l 323 949 l 323 766 q 324 714 323 737 q 324 663 324 691 l 324 281 q 324 231 324 253 q 323 181 323 209 l 323 -4 l 232 -4 q 138 31 172 -4 q 104 126 104 65 l 104 939 m 630 567 q 640 521 638 547 q 643 476 643 494 q 640 433 643 458 q 630 386 638 408 l 418 386 q 369 386 401 386 q 303 388 337 387 q 247 389 269 388 l 247 565 q 303 566 269 565 q 369 567 337 567 q 418 567 401 567 l 630 567 m 713 949 q 719 902 718 924 q 720 861 720 880 q 716 815 720 842 q 702 763 711 788 l 418 763 q 369 763 401 763 q 303 764 337 763 q 247 765 269 765 l 247 949 l 713 949 m 747 182 q 719 43 747 90 q 601 -4 690 -4 l 247 -4 l 247 175 q 334 180 292 177 q 426 182 375 182 l 747 182 m 503 1264 l 661 1110 q 624 1053 651 1078 q 576 1021 597 1029 l 413 1124 l 250 1021 q 201 1053 228 1029 q 164 1110 174 1078 l 322 1264 q 365 1270 341 1267 q 413 1272 388 1272 q 460 1270 437 1272 q 503 1264 484 1267 z "},"Ế":{"ha":796,"x_min":104,"x_max":747,"o":"m 104 939 l 114 949 l 323 949 l 323 766 q 324 714 323 737 q 324 663 324 691 l 324 281 q 324 231 324 253 q 323 181 323 209 l 323 -4 l 232 -4 q 138 31 172 -4 q 104 126 104 65 l 104 939 m 630 567 q 640 521 638 547 q 643 476 643 494 q 640 433 643 458 q 630 386 638 408 l 418 386 q 369 386 401 386 q 303 388 337 387 q 247 389 269 388 l 247 565 q 303 566 269 565 q 369 567 337 567 q 418 567 401 567 l 630 567 m 713 949 q 719 902 718 924 q 720 861 720 880 q 716 815 720 842 q 702 763 711 788 l 418 763 q 369 763 401 763 q 303 764 337 763 q 247 765 269 765 l 247 949 l 713 949 m 747 182 q 719 43 747 90 q 601 -4 690 -4 l 247 -4 l 247 175 q 334 180 292 177 q 426 182 375 182 l 747 182 m 501 1250 l 655 1108 q 619 1053 646 1076 q 572 1021 592 1029 l 413 1128 l 253 1021 q 207 1053 233 1029 q 171 1108 181 1076 l 325 1250 q 413 1259 365 1259 q 501 1250 460 1259 m 538 1549 l 221 1399 q 233 1343 223 1370 q 262 1298 242 1316 l 601 1392 q 581 1483 601 1438 q 538 1549 562 1528 z "},"Ệ":{"ha":796,"x_min":104,"x_max":747,"o":"m 104 939 l 114 949 l 323 949 l 323 766 q 324 714 323 737 q 324 663 324 691 l 324 281 q 324 231 324 253 q 323 181 323 209 l 323 -4 l 232 -4 q 138 31 172 -4 q 104 126 104 65 l 104 939 m 630 567 q 640 521 638 547 q 643 476 643 494 q 640 433 643 458 q 630 386 638 408 l 418 386 q 369 386 401 386 q 303 388 337 387 q 247 389 269 388 l 247 565 q 303 566 269 565 q 369 567 337 567 q 418 567 401 567 l 630 567 m 713 949 q 719 902 718 924 q 720 861 720 880 q 716 815 720 842 q 702 763 711 788 l 418 763 q 369 763 401 763 q 303 764 337 763 q 247 765 269 765 l 247 949 l 713 949 m 747 182 q 719 43 747 90 q 601 -4 690 -4 l 247 -4 l 247 175 q 334 180 292 177 q 426 182 375 182 l 747 182 m 312 -185 q 316 -144 312 -165 q 328 -103 320 -123 q 374 -88 344 -94 q 431 -82 403 -82 q 489 -88 460 -82 q 535 -103 519 -94 q 547 -144 542 -123 q 551 -185 551 -165 q 547 -224 551 -203 q 535 -265 542 -246 q 489 -281 519 -274 q 431 -287 460 -287 q 375 -281 403 -287 q 328 -265 346 -274 q 316 -225 320 -246 q 312 -185 312 -203 m 503 1264 l 661 1110 q 624 1053 651 1078 q 576 1021 597 1029 l 413 1124 l 250 1021 q 201 1053 228 1029 q 164 1110 174 1078 l 322 1264 q 365 1270 341 1267 q 413 1272 388 1272 q 460 1270 437 1272 q 503 1264 484 1267 z "},"Ề":{"ha":796,"x_min":104,"x_max":747,"o":"m 104 939 l 114 949 l 323 949 l 323 766 q 324 714 323 737 q 324 663 324 691 l 324 281 q 324 231 324 253 q 323 181 323 209 l 323 -4 l 232 -4 q 138 31 172 -4 q 104 126 104 65 l 104 939 m 630 567 q 640 521 638 547 q 643 476 643 494 q 640 433 643 458 q 630 386 638 408 l 418 386 q 369 386 401 386 q 303 388 337 387 q 247 389 269 388 l 247 565 q 303 566 269 565 q 369 567 337 567 q 418 567 401 567 l 630 567 m 713 949 q 719 902 718 924 q 720 861 720 880 q 716 815 720 842 q 702 763 711 788 l 418 763 q 369 763 401 763 q 303 764 337 763 q 247 765 269 765 l 247 949 l 713 949 m 747 182 q 719 43 747 90 q 601 -4 690 -4 l 247 -4 l 247 175 q 334 180 292 177 q 426 182 375 182 l 747 182 m 325 1250 q 413 1259 365 1259 q 501 1250 460 1259 l 655 1108 q 619 1053 646 1076 q 572 1021 592 1029 l 413 1128 l 253 1021 q 207 1053 233 1029 q 171 1108 181 1076 l 325 1250 m 288 1549 q 245 1483 265 1528 q 224 1392 225 1438 l 563 1298 q 593 1343 583 1316 q 605 1399 603 1370 l 288 1549 z "},"Ể":{"ha":796,"x_min":104,"x_max":753,"o":"m 104 939 l 114 949 l 323 949 l 323 766 q 324 714 323 737 q 324 663 324 691 l 324 281 q 324 231 324 253 q 323 181 323 209 l 323 -4 l 232 -4 q 138 31 172 -4 q 104 126 104 65 l 104 939 m 630 567 q 640 521 638 547 q 643 476 643 494 q 640 433 643 458 q 630 386 638 408 l 418 386 q 369 386 401 386 q 303 388 337 387 q 247 389 269 388 l 247 565 q 303 566 269 565 q 369 567 337 567 q 418 567 401 567 l 630 567 m 713 949 q 719 902 718 924 q 720 861 720 880 q 716 815 720 842 q 702 763 711 788 l 418 763 q 369 763 401 763 q 303 764 337 763 q 247 765 269 765 l 247 949 l 713 949 m 747 182 q 719 43 747 90 q 601 -4 690 -4 l 247 -4 l 247 175 q 334 180 292 177 q 426 182 375 182 l 747 182 m 501 1250 l 655 1108 q 619 1053 646 1076 q 572 1021 592 1029 l 413 1128 l 253 1021 q 207 1053 233 1029 q 171 1108 181 1076 l 325 1250 q 413 1259 365 1259 q 501 1250 460 1259 m 537 1334 q 588 1359 570 1344 q 606 1392 606 1374 q 593 1417 606 1408 q 562 1426 580 1426 q 530 1422 545 1426 q 499 1409 515 1417 q 473 1453 482 1428 q 463 1505 463 1479 q 524 1528 488 1518 q 599 1538 561 1538 q 715 1500 676 1538 q 753 1413 753 1462 q 706 1311 753 1356 q 583 1245 660 1266 q 550 1283 563 1259 q 537 1334 538 1306 z "},"Ễ":{"ha":796,"x_min":104,"x_max":747,"o":"m 104 939 l 114 949 l 323 949 l 323 766 q 324 714 323 737 q 324 663 324 691 l 324 281 q 324 231 324 253 q 323 181 323 209 l 323 -4 l 232 -4 q 138 31 172 -4 q 104 126 104 65 l 104 939 m 630 567 q 640 521 638 547 q 643 476 643 494 q 640 433 643 458 q 630 386 638 408 l 418 386 q 369 386 401 386 q 303 388 337 387 q 247 389 269 388 l 247 565 q 303 566 269 565 q 369 567 337 567 q 418 567 401 567 l 630 567 m 713 949 q 719 902 718 924 q 720 861 720 880 q 716 815 720 842 q 702 763 711 788 l 418 763 q 369 763 401 763 q 303 764 337 763 q 247 765 269 765 l 247 949 l 713 949 m 747 182 q 719 43 747 90 q 601 -4 690 -4 l 247 -4 l 247 175 q 334 180 292 177 q 426 182 375 182 l 747 182 m 358 1367 q 338 1374 349 1371 q 317 1378 328 1378 q 294 1370 306 1378 q 271 1347 283 1363 l 260 1331 q 202 1348 232 1331 q 160 1392 172 1365 l 172 1415 q 235 1496 196 1464 q 330 1528 275 1528 q 375 1521 352 1528 q 415 1505 398 1514 l 473 1476 q 493 1468 483 1472 q 513 1465 503 1465 q 536 1472 525 1465 q 560 1496 548 1480 l 571 1511 q 629 1494 599 1511 q 670 1451 659 1478 l 659 1428 q 595 1347 635 1379 q 501 1315 555 1315 q 456 1322 478 1315 q 415 1338 433 1329 l 358 1367 m 501 1250 l 655 1108 q 619 1053 646 1076 q 572 1021 592 1029 l 413 1128 l 253 1021 q 207 1053 233 1029 q 171 1108 181 1076 l 325 1250 q 413 1259 365 1259 q 501 1250 460 1259 z "},"Ȅ":{"ha":796,"x_min":61,"x_max":747,"o":"m 104 939 l 114 949 l 323 949 l 323 766 q 324 714 323 737 q 324 663 324 691 l 324 281 q 324 231 324 253 q 323 181 323 209 l 323 -4 l 232 -4 q 138 31 172 -4 q 104 126 104 65 l 104 939 m 630 567 q 640 521 638 547 q 643 476 643 494 q 640 433 643 458 q 630 386 638 408 l 418 386 q 369 386 401 386 q 303 388 337 387 q 247 389 269 388 l 247 565 q 303 566 269 565 q 369 567 337 567 q 418 567 401 567 l 630 567 m 713 949 q 719 902 718 924 q 720 861 720 880 q 716 815 720 842 q 702 763 711 788 l 418 763 q 369 763 401 763 q 303 764 337 763 q 247 765 269 765 l 247 949 l 713 949 m 747 182 q 719 43 747 90 q 601 -4 690 -4 l 247 -4 l 247 175 q 334 180 292 177 q 426 182 375 182 l 747 182 m 194 1306 l 389 1093 q 357 1042 382 1066 q 310 1010 333 1018 l 61 1187 q 111 1261 77 1228 q 194 1306 145 1294 m 484 1306 l 678 1093 q 647 1043 671 1067 q 599 1010 622 1018 l 350 1187 q 400 1261 366 1228 q 484 1306 434 1294 z "},"Ë":{"ha":796,"x_min":104,"x_max":747,"o":"m 104 939 l 114 949 l 323 949 l 323 766 q 324 714 323 737 q 324 663 324 691 l 324 281 q 324 231 324 253 q 323 181 323 209 l 323 -4 l 232 -4 q 138 31 172 -4 q 104 126 104 65 l 104 939 m 630 567 q 640 521 638 547 q 643 476 643 494 q 640 433 643 458 q 630 386 638 408 l 418 386 q 369 386 401 386 q 303 388 337 387 q 247 389 269 388 l 247 565 q 303 566 269 565 q 369 567 337 567 q 418 567 401 567 l 630 567 m 713 949 q 719 902 718 924 q 720 861 720 880 q 716 815 720 842 q 702 763 711 788 l 418 763 q 369 763 401 763 q 303 764 337 763 q 247 765 269 765 l 247 949 l 713 949 m 747 182 q 719 43 747 90 q 601 -4 690 -4 l 247 -4 l 247 175 q 334 180 292 177 q 426 182 375 182 l 747 182 m 574 1031 q 526 1036 551 1031 q 483 1053 501 1042 q 474 1091 476 1070 q 471 1124 471 1111 q 474 1158 471 1138 q 483 1195 476 1178 q 526 1212 501 1206 q 574 1218 551 1218 q 622 1212 597 1218 q 665 1195 647 1206 q 674 1158 672 1178 q 676 1124 676 1138 q 674 1091 676 1111 q 665 1053 672 1070 q 622 1036 647 1042 q 574 1031 597 1031 m 254 1031 q 206 1036 231 1031 q 163 1053 181 1042 q 154 1091 157 1070 q 151 1124 151 1111 q 154 1158 151 1138 q 163 1195 157 1178 q 206 1212 181 1206 q 254 1218 231 1218 q 302 1212 278 1218 q 345 1195 327 1206 q 355 1158 352 1178 q 357 1124 357 1138 q 355 1091 357 1111 q 345 1053 352 1070 q 302 1036 327 1042 q 254 1031 278 1031 z "},"Ė":{"ha":796,"x_min":104,"x_max":747,"o":"m 104 939 l 114 949 l 323 949 l 323 766 q 324 714 323 737 q 324 663 324 691 l 324 281 q 324 231 324 253 q 323 181 323 209 l 323 -4 l 232 -4 q 138 31 172 -4 q 104 126 104 65 l 104 939 m 630 567 q 640 521 638 547 q 643 476 643 494 q 640 433 643 458 q 630 386 638 408 l 418 386 q 369 386 401 386 q 303 388 337 387 q 247 389 269 388 l 247 565 q 303 566 269 565 q 369 567 337 567 q 418 567 401 567 l 630 567 m 713 949 q 719 902 718 924 q 720 861 720 880 q 716 815 720 842 q 702 763 711 788 l 418 763 q 369 763 401 763 q 303 764 337 763 q 247 765 269 765 l 247 949 l 713 949 m 747 182 q 719 43 747 90 q 601 -4 690 -4 l 247 -4 l 247 175 q 334 180 292 177 q 426 182 375 182 l 747 182 m 296 1133 q 300 1173 296 1152 q 312 1214 304 1194 q 359 1229 330 1223 q 415 1235 388 1235 q 473 1229 444 1235 q 519 1214 503 1223 q 531 1173 526 1194 q 535 1133 535 1151 q 519 1052 535 1092 q 473 1037 503 1043 q 415 1031 444 1031 q 358 1036 388 1031 q 312 1052 328 1042 q 296 1133 296 1092 z "},"Ẹ":{"ha":796,"x_min":104,"x_max":747,"o":"m 104 939 l 114 949 l 323 949 l 323 766 q 324 714 323 737 q 324 663 324 691 l 324 281 q 324 231 324 253 q 323 181 323 209 l 323 -4 l 232 -4 q 138 31 172 -4 q 104 126 104 65 l 104 939 m 630 567 q 640 521 638 547 q 643 476 643 494 q 640 433 643 458 q 630 386 638 408 l 418 386 q 369 386 401 386 q 303 388 337 387 q 247 389 269 388 l 247 565 q 303 566 269 565 q 369 567 337 567 q 418 567 401 567 l 630 567 m 713 949 q 719 902 718 924 q 720 861 720 880 q 716 815 720 842 q 702 763 711 788 l 418 763 q 369 763 401 763 q 303 764 337 763 q 247 765 269 765 l 247 949 l 713 949 m 747 182 q 719 43 747 90 q 601 -4 690 -4 l 247 -4 l 247 175 q 334 180 292 177 q 426 182 375 182 l 747 182 m 312 -185 q 316 -144 312 -165 q 328 -103 320 -123 q 374 -88 344 -94 q 431 -82 403 -82 q 489 -88 460 -82 q 535 -103 519 -94 q 547 -144 542 -123 q 551 -185 551 -165 q 547 -224 551 -203 q 535 -265 542 -246 q 489 -281 519 -274 q 431 -287 460 -287 q 375 -281 403 -287 q 328 -265 346 -274 q 316 -225 320 -246 q 312 -185 312 -203 z "},"È":{"ha":796,"x_min":104,"x_max":747,"o":"m 104 939 l 114 949 l 323 949 l 323 766 q 324 714 323 737 q 324 663 324 691 l 324 281 q 324 231 324 253 q 323 181 323 209 l 323 -4 l 232 -4 q 138 31 172 -4 q 104 126 104 65 l 104 939 m 630 567 q 640 521 638 547 q 643 476 643 494 q 640 433 643 458 q 630 386 638 408 l 418 386 q 369 386 401 386 q 303 388 337 387 q 247 389 269 388 l 247 565 q 303 566 269 565 q 369 567 337 567 q 418 567 401 567 l 630 567 m 713 949 q 719 902 718 924 q 720 861 720 880 q 716 815 720 842 q 702 763 711 788 l 418 763 q 369 763 401 763 q 303 764 337 763 q 247 765 269 765 l 247 949 l 713 949 m 747 182 q 719 43 747 90 q 601 -4 690 -4 l 247 -4 l 247 175 q 334 180 292 177 q 426 182 375 182 l 747 182 m 290 1304 q 255 1264 274 1291 q 222 1205 236 1238 q 206 1141 208 1173 l 540 1010 q 582 1055 567 1025 q 601 1114 597 1084 l 290 1304 z "},"Ẻ":{"ha":796,"x_min":104,"x_max":747,"o":"m 104 939 l 114 949 l 323 949 l 323 766 q 324 714 323 737 q 324 663 324 691 l 324 281 q 324 231 324 253 q 323 181 323 209 l 323 -4 l 232 -4 q 138 31 172 -4 q 104 126 104 65 l 104 939 m 630 567 q 640 521 638 547 q 643 476 643 494 q 640 433 643 458 q 630 386 638 408 l 418 386 q 369 386 401 386 q 303 388 337 387 q 247 389 269 388 l 247 565 q 303 566 269 565 q 369 567 337 567 q 418 567 401 567 l 630 567 m 713 949 q 719 902 718 924 q 720 861 720 880 q 716 815 720 842 q 702 763 711 788 l 418 763 q 369 763 401 763 q 303 764 337 763 q 247 765 269 765 l 247 949 l 713 949 m 747 182 q 719 43 747 90 q 601 -4 690 -4 l 247 -4 l 247 175 q 334 180 292 177 q 426 182 375 182 l 747 182 m 338 1102 q 398 1130 377 1114 q 419 1165 419 1146 q 405 1192 419 1183 q 370 1202 391 1202 q 336 1197 353 1202 q 302 1183 319 1192 q 274 1230 283 1203 q 264 1283 265 1256 q 331 1309 292 1299 q 411 1319 371 1319 q 535 1279 494 1319 q 576 1186 576 1239 q 525 1080 576 1127 q 390 1010 474 1033 q 353 1048 367 1024 q 338 1102 340 1073 z "},"Ȇ":{"ha":796,"x_min":104,"x_max":747,"o":"m 104 939 l 114 949 l 323 949 l 323 766 q 324 714 323 737 q 324 663 324 691 l 324 281 q 324 231 324 253 q 323 181 323 209 l 323 -4 l 232 -4 q 138 31 172 -4 q 104 126 104 65 l 104 939 m 630 567 q 640 521 638 547 q 643 476 643 494 q 640 433 643 458 q 630 386 638 408 l 418 386 q 369 386 401 386 q 303 388 337 387 q 247 389 269 388 l 247 565 q 303 566 269 565 q 369 567 337 567 q 418 567 401 567 l 630 567 m 713 949 q 719 902 718 924 q 720 861 720 880 q 716 815 720 842 q 702 763 711 788 l 418 763 q 369 763 401 763 q 303 764 337 763 q 247 765 269 765 l 247 949 l 713 949 m 747 182 q 719 43 747 90 q 601 -4 690 -4 l 247 -4 l 247 175 q 334 180 292 177 q 426 182 375 182 l 747 182 m 672 1080 q 619 1044 652 1057 q 553 1033 587 1031 q 499 1096 534 1073 q 415 1119 463 1119 q 332 1096 367 1119 q 278 1033 297 1073 q 211 1044 244 1031 q 159 1080 178 1057 q 248 1217 178 1163 q 415 1272 317 1272 q 583 1217 513 1272 q 672 1080 652 1163 z "},"Ē":{"ha":796,"x_min":104,"x_max":747,"o":"m 104 939 l 114 949 l 323 949 l 323 766 q 324 714 323 737 q 324 663 324 691 l 324 281 q 324 231 324 253 q 323 181 323 209 l 323 -4 l 232 -4 q 138 31 172 -4 q 104 126 104 65 l 104 939 m 630 567 q 640 521 638 547 q 643 476 643 494 q 640 433 643 458 q 630 386 638 408 l 418 386 q 369 386 401 386 q 303 388 337 387 q 247 389 269 388 l 247 565 q 303 566 269 565 q 369 567 337 567 q 418 567 401 567 l 630 567 m 713 949 q 719 902 718 924 q 720 861 720 880 q 716 815 720 842 q 702 763 711 788 l 418 763 q 369 763 401 763 q 303 764 337 763 q 247 765 269 765 l 247 949 l 713 949 m 747 182 q 719 43 747 90 q 601 -4 690 -4 l 247 -4 l 247 175 q 334 180 292 177 q 426 182 375 182 l 747 182 m 192 1050 q 181 1128 181 1087 q 192 1206 181 1167 l 640 1206 q 648 1169 646 1184 q 650 1130 650 1153 q 640 1050 650 1089 l 192 1050 z "},"Ḗ":{"ha":796,"x_min":104,"x_max":747,"o":"m 104 939 l 114 949 l 323 949 l 323 766 q 324 714 323 737 q 324 663 324 691 l 324 281 q 324 231 324 253 q 323 181 323 209 l 323 -4 l 232 -4 q 138 31 172 -4 q 104 126 104 65 l 104 939 m 630 567 q 640 521 638 547 q 643 476 643 494 q 640 433 643 458 q 630 386 638 408 l 418 386 q 369 386 401 386 q 303 388 337 387 q 247 389 269 388 l 247 565 q 303 566 269 565 q 369 567 337 567 q 418 567 401 567 l 630 567 m 713 949 q 719 902 718 924 q 720 861 720 880 q 716 815 720 842 q 702 763 711 788 l 418 763 q 369 763 401 763 q 303 764 337 763 q 247 765 269 765 l 247 949 l 713 949 m 747 182 q 719 43 747 90 q 601 -4 690 -4 l 247 -4 l 247 175 q 334 180 292 177 q 426 182 375 182 l 747 182 m 192 1050 q 181 1128 181 1087 q 192 1206 181 1167 l 640 1206 q 648 1169 646 1184 q 650 1130 650 1153 q 640 1050 650 1089 l 192 1050 m 553 1556 q 589 1516 571 1542 q 622 1457 608 1489 q 638 1392 635 1424 l 303 1261 q 263 1306 281 1274 q 242 1365 246 1338 l 553 1556 z "},"Ḕ":{"ha":796,"x_min":104,"x_max":747,"o":"m 104 939 l 114 949 l 323 949 l 323 766 q 324 714 323 737 q 324 663 324 691 l 324 281 q 324 231 324 253 q 323 181 323 209 l 323 -4 l 232 -4 q 138 31 172 -4 q 104 126 104 65 l 104 939 m 630 567 q 640 521 638 547 q 643 476 643 494 q 640 433 643 458 q 630 386 638 408 l 418 386 q 369 386 401 386 q 303 388 337 387 q 247 389 269 388 l 247 565 q 303 566 269 565 q 369 567 337 567 q 418 567 401 567 l 630 567 m 713 949 q 719 902 718 924 q 720 861 720 880 q 716 815 720 842 q 702 763 711 788 l 418 763 q 369 763 401 763 q 303 764 337 763 q 247 765 269 765 l 247 949 l 713 949 m 747 182 q 719 43 747 90 q 601 -4 690 -4 l 247 -4 l 247 175 q 334 180 292 177 q 426 182 375 182 l 747 182 m 192 1050 q 181 1128 181 1087 q 192 1206 181 1167 l 640 1206 q 648 1169 646 1184 q 650 1130 650 1153 q 640 1050 650 1089 l 192 1050 m 290 1556 q 255 1516 274 1542 q 222 1457 236 1489 q 206 1392 208 1424 l 540 1261 q 582 1306 567 1276 q 601 1365 597 1335 l 290 1556 z "},"Ę":{"ha":797,"x_min":104,"x_max":747,"o":"m 685 -149 q 715 -190 702 -165 q 731 -247 728 -216 q 660 -286 703 -269 q 566 -303 616 -303 q 447 -265 493 -303 q 400 -162 400 -228 q 444 -44 400 -94 q 544 35 489 7 q 614 33 577 40 q 671 8 651 26 q 585 -51 611 -15 q 558 -119 558 -86 q 575 -157 558 -144 q 615 -169 592 -169 q 653 -163 635 -169 q 685 -149 672 -156 m 104 939 l 114 949 l 323 949 l 323 766 q 324 714 323 737 q 324 663 324 691 l 324 281 q 324 231 324 253 q 323 181 323 209 l 323 -4 l 232 -4 q 138 31 172 -4 q 104 126 104 65 l 104 939 m 630 567 q 640 521 638 547 q 643 476 643 494 q 640 433 643 458 q 630 386 638 408 l 418 386 q 369 386 401 386 q 303 388 337 387 q 247 389 269 388 l 247 565 q 303 566 269 565 q 369 567 337 567 q 418 567 401 567 l 630 567 m 713 949 q 719 902 718 924 q 720 861 720 880 q 716 815 720 842 q 702 763 711 788 l 418 763 q 369 763 401 763 q 303 764 337 763 q 247 765 269 765 l 247 949 l 713 949 m 747 182 q 730 60 747 96 q 671 8 712 24 q 601 -4 641 -4 l 247 -4 l 247 175 q 334 180 292 177 q 426 182 375 182 l 747 182 z "},"Ẽ":{"ha":796,"x_min":104,"x_max":747,"o":"m 104 939 l 114 949 l 323 949 l 323 766 q 324 714 323 737 q 324 663 324 691 l 324 281 q 324 231 324 253 q 323 181 323 209 l 323 -4 l 232 -4 q 138 31 172 -4 q 104 126 104 65 l 104 939 m 630 567 q 640 521 638 547 q 643 476 643 494 q 640 433 643 458 q 630 386 638 408 l 418 386 q 369 386 401 386 q 303 388 337 387 q 247 389 269 388 l 247 565 q 303 566 269 565 q 369 567 337 567 q 418 567 401 567 l 630 567 m 713 949 q 719 902 718 924 q 720 861 720 880 q 716 815 720 842 q 702 763 711 788 l 418 763 q 369 763 401 763 q 303 764 337 763 q 247 765 269 765 l 247 949 l 713 949 m 747 182 q 719 43 747 90 q 601 -4 690 -4 l 247 -4 l 247 175 q 334 180 292 177 q 426 182 375 182 l 747 182 m 351 1085 q 331 1094 342 1090 q 308 1097 320 1097 q 283 1090 297 1097 q 258 1064 270 1083 l 246 1047 q 182 1065 215 1047 q 138 1112 149 1083 l 149 1138 q 218 1226 174 1192 q 322 1260 262 1260 q 371 1253 347 1260 q 415 1236 395 1246 l 478 1205 q 500 1196 488 1200 q 522 1192 511 1192 q 547 1200 534 1192 q 573 1226 560 1207 l 585 1243 q 649 1224 615 1242 q 693 1178 682 1206 l 681 1152 q 612 1064 656 1099 q 509 1029 568 1029 q 459 1037 484 1029 q 416 1053 434 1044 l 351 1085 z "},"Ğ":{"ha":909,"x_min":50,"x_max":837,"o":"m 835 870 q 800 778 831 823 q 735 710 769 733 q 625 765 685 744 q 506 785 565 785 q 385 752 436 785 q 305 649 333 719 q 277 467 277 578 q 337 229 277 304 q 509 154 397 154 q 631 167 577 154 q 721 189 685 179 l 837 37 q 740 10 797 24 q 615 -12 683 -3 q 471 -21 547 -21 q 285 13 364 -21 q 153 111 206 47 q 76 265 101 175 q 50 468 50 356 q 87 689 50 594 q 187 845 124 783 q 329 939 250 908 q 493 969 408 969 q 676 942 588 969 q 835 870 764 915 m 628 258 q 632 362 628 307 q 649 464 635 417 l 837 401 l 837 37 l 628 34 l 628 258 m 690 539 q 805 500 773 539 q 837 401 837 462 l 837 354 l 563 354 q 483 374 510 354 q 457 447 457 394 q 461 494 457 469 q 473 539 466 519 l 690 539 m 742 1219 q 653 1081 723 1137 q 486 1026 584 1026 q 319 1081 388 1026 q 230 1219 249 1137 q 282 1254 249 1242 q 349 1265 315 1267 q 403 1202 367 1225 q 486 1178 438 1178 q 569 1202 534 1178 q 624 1265 605 1225 q 690 1254 658 1267 q 742 1219 723 1242 z "},"Ǧ":{"ha":909,"x_min":50,"x_max":837,"o":"m 835 870 q 800 778 831 823 q 735 710 769 733 q 625 765 685 744 q 506 785 565 785 q 385 752 436 785 q 305 649 333 719 q 277 467 277 578 q 337 229 277 304 q 509 154 397 154 q 631 167 577 154 q 721 189 685 179 l 837 37 q 740 10 797 24 q 615 -12 683 -3 q 471 -21 547 -21 q 285 13 364 -21 q 153 111 206 47 q 76 265 101 175 q 50 468 50 356 q 87 689 50 594 q 187 845 124 783 q 329 939 250 908 q 493 969 408 969 q 676 942 588 969 q 835 870 764 915 m 628 258 q 632 362 628 307 q 649 464 635 417 l 837 401 l 837 37 l 628 34 l 628 258 m 690 539 q 805 500 773 539 q 837 401 837 462 l 837 354 l 563 354 q 483 374 510 354 q 457 447 457 394 q 461 494 457 469 q 473 539 466 519 l 690 539 m 649 1276 q 698 1244 670 1269 q 735 1188 725 1220 l 576 1034 q 534 1028 558 1030 q 486 1026 510 1026 q 438 1028 462 1026 q 396 1034 414 1030 l 238 1188 q 275 1244 247 1220 q 323 1276 302 1269 l 486 1174 l 649 1276 z "},"Ĝ":{"ha":909,"x_min":50,"x_max":837,"o":"m 835 870 q 800 778 831 823 q 735 710 769 733 q 625 765 685 744 q 506 785 565 785 q 385 752 436 785 q 305 649 333 719 q 277 467 277 578 q 337 229 277 304 q 509 154 397 154 q 631 167 577 154 q 721 189 685 179 l 837 37 q 740 10 797 24 q 615 -12 683 -3 q 471 -21 547 -21 q 285 13 364 -21 q 153 111 206 47 q 76 265 101 175 q 50 468 50 356 q 87 689 50 594 q 187 845 124 783 q 329 939 250 908 q 493 969 408 969 q 676 942 588 969 q 835 870 764 915 m 628 258 q 632 362 628 307 q 649 464 635 417 l 837 401 l 837 37 l 628 34 l 628 258 m 690 539 q 805 500 773 539 q 837 401 837 462 l 837 354 l 563 354 q 483 374 510 354 q 457 447 457 394 q 461 494 457 469 q 473 539 466 519 l 690 539 m 574 1264 l 732 1110 q 695 1053 722 1078 q 647 1021 668 1029 l 483 1124 l 321 1021 q 272 1053 299 1029 q 235 1110 245 1078 l 393 1264 q 435 1270 412 1267 q 483 1272 459 1272 q 531 1270 508 1272 q 574 1264 555 1267 z "},"Ģ":{"ha":909,"x_min":50,"x_max":837,"o":"m 835 870 q 800 778 831 823 q 735 710 769 733 q 625 765 685 744 q 506 785 565 785 q 385 752 436 785 q 305 649 333 719 q 277 467 277 578 q 337 229 277 304 q 509 154 397 154 q 631 167 577 154 q 721 189 685 179 l 837 37 q 740 10 797 24 q 615 -12 683 -3 q 471 -21 547 -21 q 285 13 364 -21 q 153 111 206 47 q 76 265 101 175 q 50 468 50 356 q 87 689 50 594 q 187 845 124 783 q 329 939 250 908 q 493 969 408 969 q 676 942 588 969 q 835 870 764 915 m 628 258 q 632 362 628 307 q 649 464 635 417 l 837 401 l 837 37 l 628 34 l 628 258 m 690 539 q 805 500 773 539 q 837 401 837 462 l 837 354 l 563 354 q 483 374 510 354 q 457 447 457 394 q 461 494 457 469 q 473 539 466 519 l 690 539 m 569 -85 q 585 -171 585 -120 q 528 -317 585 -255 q 373 -409 472 -380 q 330 -376 347 -400 q 308 -321 313 -352 q 399 -182 399 -268 q 395 -145 399 -164 q 381 -108 391 -126 q 500 -74 430 -74 q 569 -85 538 -74 z "},"Ġ":{"ha":909,"x_min":50,"x_max":837,"o":"m 835 870 q 800 778 831 823 q 735 710 769 733 q 625 765 685 744 q 506 785 565 785 q 385 752 436 785 q 305 649 333 719 q 277 467 277 578 q 337 229 277 304 q 509 154 397 154 q 631 167 577 154 q 721 189 685 179 l 837 37 q 740 10 797 24 q 615 -12 683 -3 q 471 -21 547 -21 q 285 13 364 -21 q 153 111 206 47 q 76 265 101 175 q 50 468 50 356 q 87 689 50 594 q 187 845 124 783 q 329 939 250 908 q 493 969 408 969 q 676 942 588 969 q 835 870 764 915 m 628 258 q 632 362 628 307 q 649 464 635 417 l 837 401 l 837 37 l 628 34 l 628 258 m 690 539 q 805 500 773 539 q 837 401 837 462 l 837 354 l 563 354 q 483 374 510 354 q 457 447 457 394 q 461 494 457 469 q 473 539 466 519 l 690 539 m 367 1133 q 371 1173 367 1152 q 383 1214 375 1194 q 430 1229 401 1223 q 486 1235 458 1235 q 544 1229 515 1235 q 590 1214 574 1223 q 601 1173 597 1194 q 606 1133 606 1151 q 590 1052 606 1092 q 544 1037 574 1043 q 486 1031 515 1031 q 428 1036 458 1031 q 383 1052 399 1042 q 367 1133 367 1092 z "},"Ḡ":{"ha":909,"x_min":50,"x_max":837,"o":"m 835 870 q 800 778 831 823 q 735 710 769 733 q 625 765 685 744 q 506 785 565 785 q 385 752 436 785 q 305 649 333 719 q 277 467 277 578 q 337 229 277 304 q 509 154 397 154 q 631 167 577 154 q 721 189 685 179 l 837 37 q 740 10 797 24 q 615 -12 683 -3 q 471 -21 547 -21 q 285 13 364 -21 q 153 111 206 47 q 76 265 101 175 q 50 468 50 356 q 87 689 50 594 q 187 845 124 783 q 329 939 250 908 q 493 969 408 969 q 676 942 588 969 q 835 870 764 915 m 628 258 q 632 362 628 307 q 649 464 635 417 l 837 401 l 837 37 l 628 34 l 628 258 m 690 539 q 805 500 773 539 q 837 401 837 462 l 837 354 l 563 354 q 483 374 510 354 q 457 447 457 394 q 461 494 457 469 q 473 539 466 519 l 690 539 m 263 1050 q 251 1128 251 1087 q 263 1206 251 1167 l 711 1206 q 719 1169 717 1184 q 721 1130 721 1153 q 711 1050 721 1089 l 263 1050 z "},"Ħ":{"ha":965,"x_min":10,"x_max":954,"o":"m 22 678 q 10 758 10 715 q 13 797 10 778 q 22 838 15 816 l 944 838 q 952 800 950 816 q 954 760 954 783 q 944 678 954 717 l 22 678 m 402 392 q 380 393 392 392 q 355 393 367 393 q 333 394 343 394 q 266 393 300 394 q 199 392 231 392 l 199 576 q 266 575 231 576 q 333 574 300 574 q 355 575 343 574 q 380 575 367 575 q 402 576 392 576 l 563 576 q 585 575 573 576 q 610 575 597 575 q 632 574 622 574 q 699 575 665 574 q 766 576 733 576 l 766 392 q 699 393 733 392 q 632 394 665 394 q 610 393 622 394 q 585 393 597 393 q 563 392 573 392 l 402 392 m 334 0 q 275 -7 306 -5 q 222 -8 244 -8 q 170 -7 203 -8 q 111 0 138 -5 l 111 949 q 170 956 138 954 q 222 957 203 957 q 275 956 244 957 q 334 949 306 954 l 334 680 q 333 627 334 651 q 333 574 333 603 l 333 394 q 333 343 333 366 q 334 291 334 320 l 334 0 m 631 291 q 631 343 631 320 q 632 394 632 366 l 632 574 q 631 627 632 603 q 631 680 631 651 l 631 949 q 689 956 658 954 q 742 957 720 957 q 794 956 762 957 q 853 949 826 954 l 853 0 q 796 -7 825 -5 q 744 -8 767 -8 q 690 -7 721 -8 q 631 0 659 -5 l 631 291 z "},"Ḫ":{"ha":953,"x_min":106,"x_max":847,"o":"m 397 396 q 374 396 387 396 q 350 397 362 397 q 327 397 338 397 q 260 397 294 397 q 193 396 226 396 l 193 582 q 260 581 226 582 q 327 581 294 581 q 350 581 338 581 q 374 582 362 581 q 397 582 387 582 l 557 582 q 579 582 567 582 q 604 581 592 581 q 626 581 617 581 q 693 581 659 581 q 760 582 727 582 l 760 396 q 693 397 727 396 q 626 397 659 397 q 604 397 617 397 q 579 396 592 397 q 557 396 567 396 l 397 396 m 328 0 q 270 -7 301 -5 q 217 -8 239 -8 q 164 -7 197 -8 q 106 0 132 -5 l 106 949 q 164 956 132 954 q 217 957 197 957 q 270 956 239 957 q 328 949 301 954 l 328 683 q 328 632 328 654 q 327 581 327 609 l 327 397 q 328 347 327 369 q 328 294 328 324 l 328 0 m 625 294 q 626 347 625 324 q 626 397 626 369 l 626 581 q 626 632 626 609 q 625 683 625 654 l 625 949 q 683 956 653 954 q 736 957 714 957 q 789 956 756 957 q 847 949 821 954 l 847 0 q 791 -7 819 -5 q 739 -8 762 -8 q 684 -7 715 -8 q 625 0 653 -5 l 625 294 m 733 -128 q 644 -266 713 -210 q 476 -322 574 -322 q 309 -266 378 -322 q 220 -128 240 -210 q 272 -93 240 -106 q 339 -82 305 -81 q 393 -145 358 -122 q 476 -169 428 -169 q 560 -145 524 -169 q 614 -82 595 -122 q 681 -93 648 -81 q 733 -128 713 -106 z "},"Ĥ":{"ha":953,"x_min":106,"x_max":847,"o":"m 397 396 q 374 396 387 396 q 350 397 362 397 q 327 397 338 397 q 260 397 294 397 q 193 396 226 396 l 193 582 q 260 581 226 582 q 327 581 294 581 q 350 581 338 581 q 374 582 362 581 q 397 582 387 582 l 557 582 q 579 582 567 582 q 604 581 592 581 q 626 581 617 581 q 693 581 659 581 q 760 582 727 582 l 760 396 q 693 397 727 396 q 626 397 659 397 q 604 397 617 397 q 579 396 592 397 q 557 396 567 396 l 397 396 m 328 0 q 270 -7 301 -5 q 217 -8 239 -8 q 164 -7 197 -8 q 106 0 132 -5 l 106 949 q 164 956 132 954 q 217 957 197 957 q 270 956 239 957 q 328 949 301 954 l 328 683 q 328 632 328 654 q 327 581 327 609 l 327 397 q 328 347 327 369 q 328 294 328 324 l 328 0 m 625 294 q 626 347 625 324 q 626 397 626 369 l 626 581 q 626 632 626 609 q 625 683 625 654 l 625 949 q 683 956 653 954 q 736 957 714 957 q 789 956 756 957 q 847 949 821 954 l 847 0 q 791 -7 819 -5 q 739 -8 762 -8 q 684 -7 715 -8 q 625 0 653 -5 l 625 294 m 565 1265 l 722 1112 q 685 1055 713 1079 q 637 1022 658 1031 l 474 1126 l 311 1022 q 263 1055 290 1031 q 225 1112 235 1079 l 383 1265 q 426 1271 402 1269 q 474 1274 449 1274 q 522 1271 498 1274 q 565 1265 545 1269 z "},"Ḥ":{"ha":953,"x_min":106,"x_max":847,"o":"m 397 396 q 374 396 387 396 q 350 397 362 397 q 327 397 338 397 q 260 397 294 397 q 193 396 226 396 l 193 582 q 260 581 226 582 q 327 581 294 581 q 350 581 338 581 q 374 582 362 581 q 397 582 387 582 l 557 582 q 579 582 567 582 q 604 581 592 581 q 626 581 617 581 q 693 581 659 581 q 760 582 727 582 l 760 396 q 693 397 727 396 q 626 397 659 397 q 604 397 617 397 q 579 396 592 397 q 557 396 567 396 l 397 396 m 328 0 q 270 -7 301 -5 q 217 -8 239 -8 q 164 -7 197 -8 q 106 0 132 -5 l 106 949 q 164 956 132 954 q 217 957 197 957 q 270 956 239 957 q 328 949 301 954 l 328 683 q 328 632 328 654 q 327 581 327 609 l 327 397 q 328 347 327 369 q 328 294 328 324 l 328 0 m 625 294 q 626 347 625 324 q 626 397 626 369 l 626 581 q 626 632 626 609 q 625 683 625 654 l 625 949 q 683 956 653 954 q 736 957 714 957 q 789 956 756 957 q 847 949 821 954 l 847 0 q 791 -7 819 -5 q 739 -8 762 -8 q 684 -7 715 -8 q 625 0 653 -5 l 625 294 m 357 -185 q 361 -144 357 -165 q 373 -103 365 -123 q 419 -88 389 -94 q 476 -82 449 -82 q 534 -88 505 -82 q 580 -103 564 -94 q 592 -144 588 -123 q 596 -185 596 -165 q 592 -224 596 -203 q 580 -265 588 -246 q 534 -281 564 -274 q 476 -287 505 -287 q 420 -281 449 -287 q 373 -265 391 -274 q 361 -225 365 -246 q 357 -185 357 -203 z "},"Ĳ":{"ha":1092,"x_min":108,"x_max":1000,"o":"m 108 949 q 166 956 134 954 q 219 957 199 957 q 272 956 241 957 q 330 949 302 954 l 330 0 q 272 -7 302 -5 q 219 -8 241 -8 q 166 -7 199 -8 q 108 0 134 -5 l 108 949 m 528 211 q 589 182 557 194 q 653 169 620 169 q 753 215 728 169 q 777 343 777 261 l 777 949 q 836 956 804 954 q 889 957 869 957 q 942 956 911 957 q 1000 949 972 954 l 1000 364 q 986 213 1000 282 q 937 93 972 144 q 839 14 901 42 q 678 -14 776 -14 q 562 1 623 -14 q 451 47 501 16 q 478 133 458 89 q 528 211 498 178 z "},"Í":{"ha":438,"x_min":46,"x_max":441,"o":"m 108 949 q 166 956 134 954 q 219 957 199 957 q 272 956 241 957 q 330 949 302 954 l 330 0 q 272 -7 302 -5 q 219 -8 241 -8 q 166 -7 199 -8 q 108 0 134 -5 l 108 949 m 357 1306 q 393 1266 374 1292 q 425 1207 411 1239 q 441 1142 439 1174 l 107 1011 q 67 1056 84 1024 q 46 1115 49 1088 l 357 1306 z "},"Ĭ":{"ha":438,"x_min":-37,"x_max":475,"o":"m 108 949 q 166 956 134 954 q 219 957 199 957 q 272 956 241 957 q 330 949 302 954 l 330 0 q 272 -7 302 -5 q 219 -8 241 -8 q 166 -7 199 -8 q 108 0 134 -5 l 108 949 m 475 1220 q 386 1083 456 1138 q 219 1027 317 1027 q 51 1083 121 1027 q -37 1220 -18 1138 q 15 1256 -18 1243 q 81 1267 47 1268 q 135 1203 100 1226 q 219 1180 171 1180 q 302 1203 267 1180 q 356 1267 338 1226 q 423 1256 390 1268 q 475 1220 456 1243 z "},"Î":{"ha":438,"x_min":-33,"x_max":465,"o":"m 108 949 q 166 956 134 954 q 219 957 199 957 q 272 956 241 957 q 330 949 302 954 l 330 0 q 272 -7 302 -5 q 219 -8 241 -8 q 166 -7 199 -8 q 108 0 134 -5 l 108 949 m 307 1265 l 465 1112 q 428 1055 455 1079 q 379 1022 401 1031 l 216 1126 l 53 1022 q 5 1055 32 1031 q -33 1112 -22 1079 l 126 1265 q 168 1271 144 1269 q 216 1274 192 1274 q 264 1271 240 1274 q 307 1265 288 1269 z "},"Ȉ":{"ha":438,"x_min":-135,"x_max":481,"o":"m 108 949 q 166 956 134 954 q 219 957 199 957 q 272 956 241 957 q 330 949 302 954 l 330 0 q 272 -7 302 -5 q 219 -8 241 -8 q 166 -7 199 -8 q 108 0 134 -5 l 108 949 m -2 1307 l 192 1094 q 161 1043 185 1067 q 114 1011 136 1019 l -135 1188 q -85 1262 -119 1229 q -2 1307 -51 1295 m 288 1307 l 481 1094 q 450 1044 474 1069 q 403 1011 426 1019 l 153 1188 q 203 1262 169 1229 q 288 1307 238 1295 z "},"Ï":{"ha":438,"x_min":-45,"x_max":480,"o":"m 108 949 q 166 956 134 954 q 219 957 199 957 q 272 956 241 957 q 330 949 302 954 l 330 0 q 272 -7 302 -5 q 219 -8 241 -8 q 166 -7 199 -8 q 108 0 134 -5 l 108 949 m 377 1032 q 330 1038 354 1032 q 287 1055 305 1044 q 277 1092 280 1072 q 274 1126 274 1113 q 277 1160 274 1140 q 287 1197 280 1180 q 330 1214 305 1208 q 377 1219 354 1219 q 425 1214 401 1219 q 468 1197 450 1208 q 477 1160 475 1180 q 480 1126 480 1140 q 477 1092 480 1113 q 468 1055 475 1072 q 425 1038 450 1044 q 377 1032 401 1032 m 58 1032 q 10 1038 35 1032 q -33 1055 -15 1044 q -42 1092 -40 1072 q -45 1126 -45 1113 q -42 1160 -45 1140 q -33 1197 -40 1180 q 10 1214 -15 1208 q 58 1219 35 1219 q 106 1214 81 1219 q 149 1197 131 1208 q 158 1160 156 1180 q 160 1126 160 1140 q 158 1092 160 1113 q 149 1055 156 1072 q 106 1038 131 1044 q 58 1032 81 1032 z "},"Ḯ":{"ha":438,"x_min":-45,"x_max":480,"o":"m 108 949 q 166 956 134 954 q 219 957 199 957 q 272 956 241 957 q 330 949 302 954 l 330 0 q 272 -7 302 -5 q 219 -8 241 -8 q 166 -7 199 -8 q 108 0 134 -5 l 108 949 m 377 1032 q 330 1038 354 1032 q 287 1055 305 1044 q 277 1092 280 1072 q 274 1126 274 1113 q 277 1160 274 1140 q 287 1197 280 1180 q 330 1214 305 1208 q 377 1219 354 1219 q 425 1214 401 1219 q 468 1197 450 1208 q 477 1160 475 1180 q 480 1126 480 1140 q 477 1092 480 1113 q 468 1055 475 1072 q 425 1038 450 1044 q 377 1032 401 1032 m 58 1032 q 10 1038 35 1032 q -33 1055 -15 1044 q -42 1092 -40 1072 q -45 1126 -45 1113 q -42 1160 -45 1140 q -33 1197 -40 1180 q 10 1214 -15 1208 q 58 1219 35 1219 q 106 1214 81 1219 q 149 1197 131 1208 q 158 1160 156 1180 q 160 1126 160 1140 q 158 1092 160 1113 q 149 1055 156 1072 q 106 1038 131 1044 q 58 1032 81 1032 m 357 1547 q 393 1507 374 1533 q 425 1448 411 1480 q 441 1383 439 1415 l 107 1252 q 67 1297 84 1265 q 46 1356 49 1328 l 357 1547 z "},"İ":{"ha":438,"x_min":99,"x_max":338,"o":"m 108 949 q 166 956 134 954 q 219 957 199 957 q 272 956 241 957 q 330 949 302 954 l 330 0 q 272 -7 302 -5 q 219 -8 241 -8 q 166 -7 199 -8 q 108 0 134 -5 l 108 949 m 99 1135 q 103 1175 99 1153 q 115 1215 108 1196 q 162 1231 133 1224 q 219 1237 191 1237 q 277 1231 247 1237 q 322 1215 306 1224 q 334 1174 330 1196 q 338 1135 338 1153 q 322 1053 338 1093 q 277 1038 306 1044 q 219 1032 247 1032 q 161 1038 191 1032 q 115 1053 131 1044 q 99 1135 99 1093 z "},"Ị":{"ha":438,"x_min":99,"x_max":338,"o":"m 108 949 q 166 956 134 954 q 219 957 199 957 q 272 956 241 957 q 330 949 302 954 l 330 0 q 272 -7 302 -5 q 219 -8 241 -8 q 166 -7 199 -8 q 108 0 134 -5 l 108 949 m 99 -185 q 103 -144 99 -165 q 115 -103 108 -123 q 161 -88 131 -94 q 219 -82 191 -82 q 277 -88 247 -82 q 322 -103 306 -94 q 334 -144 330 -123 q 338 -185 338 -165 q 334 -224 338 -203 q 322 -265 330 -246 q 277 -281 306 -274 q 219 -287 247 -287 q 162 -281 191 -287 q 115 -265 133 -274 q 103 -225 108 -246 q 99 -185 99 -203 z "},"Ì":{"ha":438,"x_min":10,"x_max":405,"o":"m 108 949 q 166 956 134 954 q 219 957 199 957 q 272 956 241 957 q 330 949 302 954 l 330 0 q 272 -7 302 -5 q 219 -8 241 -8 q 166 -7 199 -8 q 108 0 134 -5 l 108 949 m 94 1306 q 58 1266 77 1292 q 26 1207 40 1239 q 10 1142 12 1174 l 344 1011 q 385 1056 370 1026 q 405 1115 400 1085 l 94 1306 z "},"Ỉ":{"ha":438,"x_min":67,"x_max":380,"o":"m 108 949 q 166 956 134 954 q 219 957 199 957 q 272 956 241 957 q 330 949 302 954 l 330 0 q 272 -7 302 -5 q 219 -8 241 -8 q 166 -7 199 -8 q 108 0 134 -5 l 108 949 m 142 1103 q 201 1131 181 1115 q 222 1167 222 1147 q 208 1194 222 1184 q 174 1203 194 1203 q 139 1199 156 1203 q 106 1185 122 1194 q 77 1231 86 1205 q 67 1285 69 1258 q 135 1310 95 1300 q 215 1320 174 1320 q 339 1280 297 1320 q 380 1188 380 1240 q 329 1082 380 1128 q 193 1011 278 1035 q 157 1050 171 1025 q 142 1103 143 1074 z "},"Ȋ":{"ha":438,"x_min":-37,"x_max":475,"o":"m 108 949 q 166 956 134 954 q 219 957 199 957 q 272 956 241 957 q 330 949 302 954 l 330 0 q 272 -7 302 -5 q 219 -8 241 -8 q 166 -7 199 -8 q 108 0 134 -5 l 108 949 m 475 1081 q 423 1045 456 1058 q 356 1035 390 1033 q 302 1098 338 1074 q 219 1121 267 1121 q 135 1098 171 1121 q 81 1035 100 1074 q 15 1045 47 1033 q -37 1081 -18 1058 q 51 1219 -18 1164 q 219 1274 121 1274 q 386 1219 317 1274 q 475 1081 456 1164 z "},"Ī":{"ha":438,"x_min":-16,"x_max":453,"o":"m 108 949 q 166 956 134 954 q 219 957 199 957 q 272 956 241 957 q 330 949 302 954 l 330 0 q 272 -7 302 -5 q 219 -8 241 -8 q 166 -7 199 -8 q 108 0 134 -5 l 108 949 m -5 1051 q -16 1129 -16 1088 q -5 1207 -16 1168 l 444 1207 q 451 1170 449 1185 q 453 1131 453 1155 q 444 1051 453 1090 l -5 1051 z "},"Į":{"ha":438,"x_min":59,"x_max":389,"o":"m 108 949 q 166 956 134 954 q 219 957 199 957 q 272 956 241 957 q 330 949 302 954 l 330 0 q 272 -7 302 -5 q 219 -8 241 -8 q 166 -7 199 -8 q 108 0 134 -5 l 108 949 m 224 -303 q 105 -265 150 -303 q 59 -165 59 -228 q 90 -75 59 -117 q 164 -2 121 -34 q 242 50 207 30 q 290 34 265 47 q 330 0 315 21 q 253 -53 290 -22 q 217 -119 217 -84 q 233 -157 217 -144 q 274 -169 250 -169 q 311 -163 293 -169 q 344 -149 330 -156 q 374 -190 361 -165 q 389 -247 387 -216 q 319 -286 363 -269 q 224 -303 275 -303 z "},"Ĩ":{"ha":438,"x_min":-59,"x_max":497,"o":"m 108 949 q 166 956 134 954 q 219 957 199 957 q 272 956 241 957 q 330 949 302 954 l 330 0 q 272 -7 302 -5 q 219 -8 241 -8 q 166 -7 199 -8 q 108 0 134 -5 l 108 949 m 155 1086 q 135 1095 146 1092 q 112 1099 124 1099 q 87 1091 100 1099 q 61 1065 74 1084 l 49 1049 q -14 1067 19 1049 q -59 1113 -47 1085 l -47 1140 q 22 1227 -22 1193 q 125 1262 65 1262 q 174 1255 150 1262 q 218 1238 199 1247 l 282 1206 q 303 1198 292 1201 q 326 1194 315 1194 q 351 1201 338 1194 q 376 1227 364 1208 l 388 1244 q 452 1226 419 1244 q 497 1179 485 1208 l 485 1153 q 416 1065 460 1100 q 313 1031 372 1031 q 263 1038 288 1031 q 219 1055 238 1046 l 155 1086 z "},"Ĵ":{"ha":654,"x_min":14,"x_max":697,"o":"m 90 211 q 151 182 119 194 q 215 169 183 169 q 315 215 291 169 q 340 343 340 261 l 340 949 q 399 956 367 954 q 451 957 431 957 q 504 956 474 957 q 563 949 535 954 l 563 364 q 549 213 563 282 q 499 93 535 144 q 401 14 464 42 q 240 -14 338 -14 q 124 1 185 -14 q 14 47 63 16 q 40 133 20 89 q 90 211 60 178 m 540 1264 l 697 1110 q 660 1053 688 1078 q 612 1021 633 1029 l 449 1124 l 286 1021 q 238 1053 265 1029 q 200 1110 210 1078 l 358 1264 q 401 1270 377 1267 q 449 1272 424 1272 q 497 1270 473 1272 q 540 1264 520 1267 z "},"Ķ":{"ha":862,"x_min":106,"x_max":853,"o":"m 106 949 q 164 956 132 954 q 217 957 197 957 q 270 956 239 957 q 328 949 301 954 l 328 0 q 270 -7 301 -5 q 217 -8 239 -8 q 164 -7 197 -8 q 106 0 132 -5 l 106 949 m 853 55 q 791 6 831 23 q 706 -12 750 -12 q 618 19 645 -12 q 571 115 591 51 l 519 277 q 468 371 498 343 q 389 399 438 399 q 313 395 358 399 q 215 387 268 392 l 215 523 l 492 523 q 615 501 570 523 q 685 441 660 478 q 724 357 709 403 l 781 185 q 805 122 794 145 q 826 84 815 99 q 853 55 837 69 m 558 880 q 601 938 578 919 q 672 956 624 956 q 736 955 699 956 q 806 950 773 953 l 817 935 l 649 616 q 548 498 610 541 q 384 456 487 456 l 215 456 l 215 581 q 290 582 252 581 q 363 583 327 583 q 401 593 390 583 q 426 631 412 603 l 558 880 m 548 -85 q 565 -171 565 -120 q 508 -317 565 -255 q 352 -409 451 -380 q 309 -376 326 -400 q 287 -321 292 -352 q 378 -182 378 -268 q 374 -145 378 -164 q 360 -108 370 -126 q 479 -74 409 -74 q 548 -85 517 -74 z "},"Ĺ":{"ha":726,"x_min":42,"x_max":698,"o":"m 327 -4 l 233 -4 q 139 31 174 -4 q 104 126 104 65 l 104 949 l 114 958 l 195 958 q 293 925 259 958 q 327 817 327 892 l 327 -4 m 698 188 q 664 39 698 82 q 547 -4 629 -4 l 233 -4 l 114 157 q 294 180 205 173 q 457 188 383 188 l 698 188 m 353 1298 q 389 1258 370 1285 q 421 1199 407 1231 q 437 1135 435 1167 l 103 1003 q 63 1048 80 1016 q 42 1108 45 1080 l 353 1298 z "},"Ľ":{"ha":726,"x_min":104,"x_max":698,"o":"m 327 -4 l 233 -4 q 139 31 174 -4 q 104 126 104 65 l 104 949 l 114 958 l 195 958 q 293 925 259 958 q 327 817 327 892 l 327 -4 m 698 188 q 664 39 698 82 q 547 -4 629 -4 l 233 -4 l 114 157 q 294 180 205 173 q 457 188 383 188 l 698 188 m 446 972 q 475 977 460 976 q 507 978 490 978 q 613 947 571 978 l 557 674 q 534 668 547 669 q 507 667 521 667 q 468 670 488 667 q 436 681 449 674 l 446 972 z "},"Ļ":{"ha":726,"x_min":104,"x_max":698,"o":"m 327 -4 l 233 -4 q 139 31 174 -4 q 104 126 104 65 l 104 949 l 114 958 l 195 958 q 293 925 259 958 q 327 817 327 892 l 327 -4 m 698 188 q 664 39 698 82 q 547 -4 629 -4 l 233 -4 l 114 157 q 294 180 205 173 q 457 188 383 188 l 698 188 m 488 -85 q 504 -171 504 -120 q 447 -317 504 -255 q 292 -409 390 -380 q 249 -376 266 -400 q 226 -321 231 -352 q 318 -182 318 -268 q 314 -145 318 -164 q 300 -108 310 -126 q 419 -74 349 -74 q 488 -85 457 -74 z "},"Ŀ":{"ha":726,"x_min":104,"x_max":698,"o":"m 327 -4 l 233 -4 q 139 31 174 -4 q 104 126 104 65 l 104 949 l 114 958 l 195 958 q 293 925 259 958 q 327 817 327 892 l 327 -4 m 698 188 q 664 39 698 82 q 547 -4 629 -4 l 233 -4 l 114 157 q 294 180 205 173 q 457 188 383 188 l 698 188 m 471 515 q 474 553 471 528 q 485 597 476 578 q 528 615 503 608 q 578 621 554 621 q 628 615 602 621 q 672 597 653 608 q 683 553 679 578 q 686 515 686 528 q 683 477 686 503 q 672 434 679 452 q 628 415 653 422 q 578 409 602 409 q 528 415 554 409 q 485 434 503 422 q 474 477 476 452 q 471 515 471 503 z "},"Ḷ":{"ha":726,"x_min":104,"x_max":698,"o":"m 327 -4 l 233 -4 q 139 31 174 -4 q 104 126 104 65 l 104 949 l 114 958 l 195 958 q 293 925 259 958 q 327 817 327 892 l 327 -4 m 698 188 q 664 39 698 82 q 547 -4 629 -4 l 233 -4 l 114 157 q 294 180 205 173 q 457 188 383 188 l 698 188 m 277 -185 q 281 -144 277 -165 q 293 -103 285 -123 q 339 -88 309 -94 q 397 -82 369 -82 q 455 -88 425 -82 q 500 -103 484 -94 q 512 -144 508 -123 q 516 -185 516 -165 q 512 -224 516 -203 q 500 -265 508 -246 q 455 -281 484 -274 q 397 -287 425 -287 q 340 -281 369 -287 q 293 -265 311 -274 q 281 -225 285 -246 q 277 -185 277 -203 z "},"Ḻ":{"ha":726,"x_min":104,"x_max":698,"o":"m 327 -4 l 233 -4 q 139 31 174 -4 q 104 126 104 65 l 104 949 l 114 958 l 195 958 q 293 925 259 958 q 327 817 327 892 l 327 -4 m 698 188 q 664 39 698 82 q 547 -4 629 -4 l 233 -4 l 114 157 q 294 180 205 173 q 457 188 383 188 l 698 188 m 621 -101 q 629 -140 627 -122 q 631 -179 631 -157 q 629 -217 631 -199 q 621 -257 627 -235 l 172 -257 q 165 -220 167 -235 q 163 -181 163 -205 q 172 -101 163 -140 l 621 -101 z "},"Ł":{"ha":740,"x_min":-6,"x_max":713,"o":"m 305 422 l 160 381 l 22 331 l 6 339 q -5 414 -4 367 q 2 501 -6 460 l 160 556 l 305 595 l 556 685 l 572 678 q 582 603 581 649 q 576 515 583 557 l 305 422 m 342 -4 l 247 -4 q 153 31 188 -4 q 119 126 119 65 l 119 949 l 128 958 l 210 958 q 308 925 274 958 q 342 817 342 892 l 342 -4 m 713 188 q 678 39 713 82 q 561 -4 644 -4 l 247 -4 l 128 157 q 309 180 219 173 q 472 188 398 188 l 713 188 z "},"Ṃ":{"ha":1158,"x_min":76,"x_max":1081,"o":"m 149 947 q 227 956 185 953 q 299 958 269 958 q 367 956 330 958 q 440 947 405 953 l 522 608 q 532 565 525 595 q 547 495 538 534 q 562 419 555 457 q 574 355 569 381 l 583 355 q 595 419 588 381 q 611 495 603 457 q 626 565 619 534 q 635 608 633 595 l 717 947 q 790 956 753 953 q 858 958 828 958 q 931 956 888 958 q 1008 947 973 953 l 1081 3 q 1026 -6 1058 -3 q 969 -8 995 -8 q 920 -7 944 -8 q 872 -1 896 -6 l 851 385 q 845 492 848 435 q 841 604 843 549 q 840 705 840 660 l 830 705 l 693 140 q 635 134 668 135 q 578 132 601 132 q 523 134 557 132 q 464 140 489 135 l 327 705 l 318 705 q 316 604 318 660 q 312 492 315 549 q 307 385 310 435 l 285 -1 q 238 -7 262 -6 q 188 -8 213 -8 q 131 -6 162 -8 q 76 3 100 -3 l 149 947 m 459 -185 q 463 -144 459 -165 q 475 -103 467 -123 q 521 -88 491 -94 q 578 -82 551 -82 q 636 -88 607 -82 q 682 -103 666 -94 q 694 -144 690 -123 q 698 -185 698 -165 q 694 -224 698 -203 q 682 -265 690 -246 q 636 -281 666 -274 q 578 -287 607 -287 q 522 -281 551 -287 q 475 -265 493 -274 q 463 -225 467 -246 q 459 -185 459 -203 z "},"Ń":{"ha":967,"x_min":106,"x_max":860,"o":"m 106 944 q 174 954 132 951 q 237 957 215 957 q 294 956 258 957 q 366 949 330 954 l 310 696 l 295 691 q 305 557 301 632 q 310 408 308 483 q 313 276 313 334 l 313 0 q 259 -7 285 -5 q 212 -8 233 -8 q 162 -7 192 -8 q 106 0 132 -5 l 106 944 m 378 497 q 335 602 355 551 q 301 694 315 653 l 198 813 l 366 949 l 580 453 q 629 336 606 392 q 667 242 651 281 l 779 120 l 598 0 l 378 497 m 860 949 l 860 4 q 791 -5 834 -2 q 726 -8 749 -8 q 670 -7 705 -8 q 598 0 635 -5 l 656 240 l 672 244 q 663 386 667 309 q 657 535 658 463 q 655 654 655 606 l 655 824 q 685 928 655 898 q 779 958 715 958 l 851 958 l 860 949 m 626 1304 q 662 1264 644 1291 q 694 1205 681 1238 q 710 1141 708 1173 l 376 1010 q 336 1054 353 1022 q 315 1114 319 1086 l 626 1304 z "},"Ň":{"ha":967,"x_min":106,"x_max":860,"o":"m 106 944 q 174 954 132 951 q 237 957 215 957 q 294 956 258 957 q 366 949 330 954 l 310 696 l 295 691 q 305 557 301 632 q 310 408 308 483 q 313 276 313 334 l 313 0 q 259 -7 285 -5 q 212 -8 233 -8 q 162 -7 192 -8 q 106 0 132 -5 l 106 944 m 378 497 q 335 602 355 551 q 301 694 315 653 l 198 813 l 366 949 l 580 453 q 629 336 606 392 q 667 242 651 281 l 779 120 l 598 0 l 378 497 m 860 949 l 860 4 q 791 -5 834 -2 q 726 -8 749 -8 q 670 -7 705 -8 q 598 0 635 -5 l 656 240 l 672 244 q 663 386 667 309 q 657 535 658 463 q 655 654 655 606 l 655 824 q 685 928 655 898 q 779 958 715 958 l 851 958 l 860 949 m 651 1276 q 700 1244 672 1269 q 737 1188 727 1220 l 578 1034 q 536 1028 560 1030 q 488 1026 513 1026 q 440 1028 464 1026 q 398 1034 416 1030 l 240 1188 q 277 1244 249 1220 q 325 1276 304 1269 l 488 1174 l 651 1276 z "},"Ņ":{"ha":967,"x_min":106,"x_max":860,"o":"m 106 944 q 174 954 132 951 q 237 957 215 957 q 294 956 258 957 q 366 949 330 954 l 310 696 l 295 691 q 305 557 301 632 q 310 408 308 483 q 313 276 313 334 l 313 0 q 259 -7 285 -5 q 212 -8 233 -8 q 162 -7 192 -8 q 106 0 132 -5 l 106 944 m 378 497 q 335 602 355 551 q 301 694 315 653 l 198 813 l 366 949 l 580 453 q 629 336 606 392 q 667 242 651 281 l 779 120 l 598 0 l 378 497 m 860 949 l 860 4 q 791 -5 834 -2 q 726 -8 749 -8 q 670 -7 705 -8 q 598 0 635 -5 l 656 240 l 672 244 q 663 386 667 309 q 657 535 658 463 q 655 654 655 606 l 655 824 q 685 928 655 898 q 779 958 715 958 l 851 958 l 860 949 m 574 -85 q 591 -171 591 -120 q 534 -317 591 -255 q 378 -409 477 -380 q 335 -376 353 -400 q 313 -321 318 -352 q 405 -182 405 -268 q 401 -145 405 -164 q 387 -108 397 -126 q 506 -74 435 -74 q 574 -85 544 -74 z "},"Ṅ":{"ha":967,"x_min":106,"x_max":860,"o":"m 106 944 q 174 954 132 951 q 237 957 215 957 q 294 956 258 957 q 366 949 330 954 l 310 696 l 295 691 q 305 557 301 632 q 310 408 308 483 q 313 276 313 334 l 313 0 q 259 -7 285 -5 q 212 -8 233 -8 q 162 -7 192 -8 q 106 0 132 -5 l 106 944 m 378 497 q 335 602 355 551 q 301 694 315 653 l 198 813 l 366 949 l 580 453 q 629 336 606 392 q 667 242 651 281 l 779 120 l 598 0 l 378 497 m 860 949 l 860 4 q 791 -5 834 -2 q 726 -8 749 -8 q 670 -7 705 -8 q 598 0 635 -5 l 656 240 l 672 244 q 663 386 667 309 q 657 535 658 463 q 655 654 655 606 l 655 824 q 685 928 655 898 q 779 958 715 958 l 851 958 l 860 949 m 369 1133 q 373 1173 369 1152 q 385 1214 377 1194 q 432 1229 403 1223 q 488 1235 460 1235 q 546 1229 517 1235 q 592 1214 576 1223 q 603 1173 599 1194 q 608 1133 608 1151 q 592 1052 608 1092 q 546 1037 576 1043 q 488 1031 517 1031 q 431 1036 460 1031 q 385 1052 401 1042 q 369 1133 369 1092 z "},"Ṇ":{"ha":967,"x_min":106,"x_max":860,"o":"m 106 944 q 174 954 132 951 q 237 957 215 957 q 294 956 258 957 q 366 949 330 954 l 310 696 l 295 691 q 305 557 301 632 q 310 408 308 483 q 313 276 313 334 l 313 0 q 259 -7 285 -5 q 212 -8 233 -8 q 162 -7 192 -8 q 106 0 132 -5 l 106 944 m 378 497 q 335 602 355 551 q 301 694 315 653 l 198 813 l 366 949 l 580 453 q 629 336 606 392 q 667 242 651 281 l 779 120 l 598 0 l 378 497 m 860 949 l 860 4 q 791 -5 834 -2 q 726 -8 749 -8 q 670 -7 705 -8 q 598 0 635 -5 l 656 240 l 672 244 q 663 386 667 309 q 657 535 658 463 q 655 654 655 606 l 655 824 q 685 928 655 898 q 779 958 715 958 l 851 958 l 860 949 m 364 -185 q 368 -144 364 -165 q 380 -103 372 -123 q 426 -88 396 -94 q 483 -82 456 -82 q 541 -88 512 -82 q 587 -103 571 -94 q 599 -144 594 -123 q 603 -185 603 -165 q 599 -224 603 -203 q 587 -265 594 -246 q 541 -281 571 -274 q 483 -287 512 -287 q 427 -281 456 -287 q 380 -265 398 -274 q 368 -225 372 -246 q 364 -185 364 -203 z "},"Ṉ":{"ha":967,"x_min":106,"x_max":860,"o":"m 106 944 q 174 954 132 951 q 237 957 215 957 q 294 956 258 957 q 366 949 330 954 l 310 696 l 295 691 q 305 557 301 632 q 310 408 308 483 q 313 276 313 334 l 313 0 q 259 -7 285 -5 q 212 -8 233 -8 q 162 -7 192 -8 q 106 0 132 -5 l 106 944 m 378 497 q 335 602 355 551 q 301 694 315 653 l 198 813 l 366 949 l 580 453 q 629 336 606 392 q 667 242 651 281 l 779 120 l 598 0 l 378 497 m 860 949 l 860 4 q 791 -5 834 -2 q 726 -8 749 -8 q 670 -7 705 -8 q 598 0 635 -5 l 656 240 l 672 244 q 663 386 667 309 q 657 535 658 463 q 655 654 655 606 l 655 824 q 685 928 655 898 q 779 958 715 958 l 851 958 l 860 949 m 708 -101 q 716 -140 714 -122 q 718 -179 718 -157 q 716 -217 718 -199 q 708 -257 714 -235 l 259 -257 q 252 -220 254 -235 q 249 -181 249 -205 q 259 -101 249 -140 l 708 -101 z "},"Ñ":{"ha":967,"x_min":106,"x_max":860,"o":"m 106 944 q 174 954 132 951 q 237 957 215 957 q 294 956 258 957 q 366 949 330 954 l 310 696 l 295 691 q 305 557 301 632 q 310 408 308 483 q 313 276 313 334 l 313 0 q 259 -7 285 -5 q 212 -8 233 -8 q 162 -7 192 -8 q 106 0 132 -5 l 106 944 m 378 497 q 335 602 355 551 q 301 694 315 653 l 198 813 l 366 949 l 580 453 q 629 336 606 392 q 667 242 651 281 l 779 120 l 598 0 l 378 497 m 860 949 l 860 4 q 791 -5 834 -2 q 726 -8 749 -8 q 670 -7 705 -8 q 598 0 635 -5 l 656 240 l 672 244 q 663 386 667 309 q 657 535 658 463 q 655 654 655 606 l 655 824 q 685 928 655 898 q 779 958 715 958 l 851 958 l 860 949 m 424 1085 q 404 1094 415 1090 q 381 1097 393 1097 q 356 1090 369 1097 q 331 1064 343 1083 l 319 1047 q 255 1065 288 1047 q 210 1112 222 1083 l 222 1138 q 291 1226 247 1192 q 394 1260 335 1260 q 444 1253 419 1260 q 488 1236 468 1246 l 551 1205 q 573 1196 561 1200 q 595 1192 584 1192 q 620 1200 607 1192 q 646 1226 633 1207 l 658 1243 q 722 1224 688 1242 q 766 1178 755 1206 l 754 1152 q 685 1064 729 1099 q 582 1029 641 1029 q 532 1037 557 1029 q 489 1053 507 1044 l 424 1085 z "},"Ŋ":{"ha":967,"x_min":106,"x_max":860,"o":"m 472 -120 q 561 -141 517 -141 q 640 -106 614 -141 q 667 -9 667 -71 l 667 31 l 860 31 l 860 4 q 831 -158 860 -86 q 738 -270 802 -229 q 570 -311 674 -311 q 491 -302 538 -311 q 411 -274 444 -292 q 472 -120 419 -191 m 106 944 q 174 954 132 951 q 237 957 215 957 q 294 956 258 957 q 366 949 330 954 l 310 696 l 295 691 q 305 557 301 632 q 310 408 308 483 q 313 276 313 334 l 313 0 q 259 -7 285 -5 q 212 -8 233 -8 q 162 -7 192 -8 q 106 0 132 -5 l 106 944 m 378 497 q 335 602 355 551 q 301 694 315 653 l 194 816 l 366 949 l 580 453 q 629 336 606 392 q 667 242 651 281 l 754 147 l 598 0 l 378 497 m 860 949 l 860 4 q 817 -3 843 0 q 766 -7 790 -6 q 726 -8 741 -8 q 670 -7 706 -8 q 598 0 635 -5 l 656 240 l 672 244 q 663 386 667 309 q 657 535 658 463 q 655 654 655 606 l 655 824 q 685 928 655 898 q 779 958 715 958 l 851 958 l 860 949 z "},"Ó":{"ha":926,"x_min":50,"x_max":876,"o":"m 282 475 q 288 363 282 420 q 312 258 294 306 q 367 180 331 210 q 463 150 403 150 q 559 180 524 150 q 614 258 595 210 q 638 363 632 306 q 644 475 644 420 q 638 586 644 530 q 614 691 632 643 q 559 769 595 740 q 463 799 524 799 q 367 769 403 799 q 312 691 331 740 q 288 586 294 643 q 282 475 282 530 m 50 475 q 95 735 50 624 q 231 908 140 846 q 463 969 323 969 q 696 907 604 969 q 832 734 788 845 q 876 475 876 623 q 831 214 876 326 q 695 41 786 103 q 463 -21 603 -21 q 231 42 322 -21 q 94 216 139 104 q 50 475 50 327 m 601 1304 q 637 1264 619 1291 q 669 1205 656 1238 q 685 1141 683 1173 l 351 1010 q 311 1054 328 1022 q 290 1114 294 1086 l 601 1304 z "},"Ŏ":{"ha":926,"x_min":50,"x_max":876,"o":"m 282 475 q 288 363 282 420 q 312 258 294 306 q 367 180 331 210 q 463 150 403 150 q 559 180 524 150 q 614 258 595 210 q 638 363 632 306 q 644 475 644 420 q 638 586 644 530 q 614 691 632 643 q 559 769 595 740 q 463 799 524 799 q 367 769 403 799 q 312 691 331 740 q 288 586 294 643 q 282 475 282 530 m 50 475 q 95 735 50 624 q 231 908 140 846 q 463 969 323 969 q 696 907 604 969 q 832 734 788 845 q 876 475 876 623 q 831 214 876 326 q 695 41 786 103 q 463 -21 603 -21 q 231 42 322 -21 q 94 216 139 104 q 50 475 50 327 m 719 1219 q 631 1081 700 1137 q 463 1026 561 1026 q 296 1081 365 1026 q 207 1219 226 1137 q 259 1254 226 1242 q 326 1265 292 1267 q 380 1202 344 1225 q 463 1178 415 1178 q 547 1202 511 1178 q 601 1265 582 1225 q 667 1254 635 1267 q 719 1219 700 1242 z "},"Ô":{"ha":926,"x_min":50,"x_max":876,"o":"m 282 475 q 288 363 282 420 q 312 258 294 306 q 367 180 331 210 q 463 150 403 150 q 559 180 524 150 q 614 258 595 210 q 638 363 632 306 q 644 475 644 420 q 638 586 644 530 q 614 691 632 643 q 559 769 595 740 q 463 799 524 799 q 367 769 403 799 q 312 691 331 740 q 288 586 294 643 q 282 475 282 530 m 50 475 q 95 735 50 624 q 231 908 140 846 q 463 969 323 969 q 696 907 604 969 q 832 734 788 845 q 876 475 876 623 q 831 214 876 326 q 695 41 786 103 q 463 -21 603 -21 q 231 42 322 -21 q 94 216 139 104 q 50 475 50 327 m 551 1264 l 709 1110 q 672 1053 699 1078 q 624 1021 645 1029 l 460 1124 l 298 1021 q 249 1053 276 1029 q 212 1110 222 1078 l 370 1264 q 413 1270 389 1267 q 460 1272 436 1272 q 508 1270 485 1272 q 551 1264 532 1267 z "},"Ố":{"ha":926,"x_min":50,"x_max":876,"o":"m 282 475 q 288 363 282 420 q 312 258 294 306 q 367 180 331 210 q 463 150 403 150 q 559 180 524 150 q 614 258 595 210 q 638 363 632 306 q 644 475 644 420 q 638 586 644 530 q 614 691 632 643 q 559 769 595 740 q 463 799 524 799 q 367 769 403 799 q 312 691 331 740 q 288 586 294 643 q 282 475 282 530 m 50 475 q 95 735 50 624 q 231 908 140 846 q 463 969 323 969 q 696 907 604 969 q 832 734 788 845 q 876 475 876 623 q 831 214 876 326 q 695 41 786 103 q 463 -21 603 -21 q 231 42 322 -21 q 94 216 139 104 q 50 475 50 327 m 549 1250 l 703 1108 q 667 1053 694 1076 q 620 1021 640 1029 l 460 1128 l 301 1021 q 255 1053 281 1029 q 219 1108 228 1076 l 373 1250 q 460 1259 413 1259 q 549 1250 508 1259 m 585 1549 l 269 1399 q 281 1343 271 1370 q 310 1298 290 1316 l 649 1392 q 629 1483 649 1438 q 585 1549 610 1528 z "},"Ộ":{"ha":926,"x_min":50,"x_max":876,"o":"m 282 475 q 288 363 282 420 q 312 258 294 306 q 367 180 331 210 q 463 150 403 150 q 559 180 524 150 q 614 258 595 210 q 638 363 632 306 q 644 475 644 420 q 638 586 644 530 q 614 691 632 643 q 559 769 595 740 q 463 799 524 799 q 367 769 403 799 q 312 691 331 740 q 288 586 294 643 q 282 475 282 530 m 50 475 q 95 735 50 624 q 231 908 140 846 q 463 969 323 969 q 696 907 604 969 q 832 734 788 845 q 876 475 876 623 q 831 214 876 326 q 695 41 786 103 q 463 -21 603 -21 q 231 42 322 -21 q 94 216 139 104 q 50 475 50 327 m 344 -185 q 348 -144 344 -165 q 360 -103 352 -123 q 406 -88 376 -94 q 463 -82 435 -82 q 521 -88 492 -82 q 567 -103 551 -94 q 578 -144 574 -123 q 583 -185 583 -165 q 578 -224 583 -203 q 567 -265 574 -246 q 521 -281 551 -274 q 463 -287 492 -287 q 407 -281 435 -287 q 360 -265 378 -274 q 348 -225 352 -246 q 344 -185 344 -203 m 551 1264 l 709 1110 q 672 1053 699 1078 q 624 1021 645 1029 l 460 1124 l 298 1021 q 249 1053 276 1029 q 212 1110 222 1078 l 370 1264 q 413 1270 389 1267 q 460 1272 436 1272 q 508 1270 485 1272 q 551 1264 532 1267 z "},"Ồ":{"ha":926,"x_min":50,"x_max":876,"o":"m 282 475 q 288 363 282 420 q 312 258 294 306 q 367 180 331 210 q 463 150 403 150 q 559 180 524 150 q 614 258 595 210 q 638 363 632 306 q 644 475 644 420 q 638 586 644 530 q 614 691 632 643 q 559 769 595 740 q 463 799 524 799 q 367 769 403 799 q 312 691 331 740 q 288 586 294 643 q 282 475 282 530 m 50 475 q 95 735 50 624 q 231 908 140 846 q 463 969 323 969 q 696 907 604 969 q 832 734 788 845 q 876 475 876 623 q 831 214 876 326 q 695 41 786 103 q 463 -21 603 -21 q 231 42 322 -21 q 94 216 139 104 q 50 475 50 327 m 373 1250 q 460 1259 413 1259 q 549 1250 508 1259 l 703 1108 q 667 1053 694 1076 q 620 1021 640 1029 l 460 1128 l 301 1021 q 255 1053 281 1029 q 219 1108 228 1076 l 373 1250 m 336 1549 q 293 1483 313 1528 q 272 1392 273 1438 l 611 1298 q 641 1343 631 1316 q 653 1399 651 1370 l 336 1549 z "},"Ổ":{"ha":926,"x_min":50,"x_max":876,"o":"m 282 475 q 288 363 282 420 q 312 258 294 306 q 367 180 331 210 q 463 150 403 150 q 559 180 524 150 q 614 258 595 210 q 638 363 632 306 q 644 475 644 420 q 638 586 644 530 q 614 691 632 643 q 559 769 595 740 q 463 799 524 799 q 367 769 403 799 q 312 691 331 740 q 288 586 294 643 q 282 475 282 530 m 50 475 q 95 735 50 624 q 231 908 140 846 q 463 969 323 969 q 696 907 604 969 q 832 734 788 845 q 876 475 876 623 q 831 214 876 326 q 695 41 786 103 q 463 -21 603 -21 q 231 42 322 -21 q 94 216 139 104 q 50 475 50 327 m 549 1250 l 703 1108 q 667 1053 694 1076 q 620 1021 640 1029 l 460 1128 l 301 1021 q 255 1053 281 1029 q 219 1108 228 1076 l 373 1250 q 460 1259 413 1259 q 549 1250 508 1259 m 585 1334 q 636 1359 618 1344 q 653 1392 653 1374 q 641 1417 653 1408 q 610 1426 628 1426 q 578 1422 593 1426 q 547 1409 563 1417 q 520 1453 530 1428 q 510 1505 511 1479 q 572 1528 535 1518 q 647 1538 609 1538 q 763 1500 724 1538 q 801 1413 801 1462 q 754 1311 801 1356 q 631 1245 708 1266 q 598 1283 610 1259 q 585 1334 586 1306 z "},"Ỗ":{"ha":926,"x_min":50,"x_max":876,"o":"m 282 475 q 288 363 282 420 q 312 258 294 306 q 367 180 331 210 q 463 150 403 150 q 559 180 524 150 q 614 258 595 210 q 638 363 632 306 q 644 475 644 420 q 638 586 644 530 q 614 691 632 643 q 559 769 595 740 q 463 799 524 799 q 367 769 403 799 q 312 691 331 740 q 288 586 294 643 q 282 475 282 530 m 50 475 q 95 735 50 624 q 231 908 140 846 q 463 969 323 969 q 696 907 604 969 q 832 734 788 845 q 876 475 876 623 q 831 214 876 326 q 695 41 786 103 q 463 -21 603 -21 q 231 42 322 -21 q 94 216 139 104 q 50 475 50 327 m 406 1367 q 386 1374 397 1371 q 365 1378 376 1378 q 342 1370 354 1378 q 319 1347 331 1363 l 308 1331 q 250 1348 280 1331 q 208 1392 219 1365 l 219 1415 q 283 1496 244 1464 q 378 1528 323 1528 q 423 1521 400 1528 q 463 1505 446 1514 l 521 1476 q 541 1468 531 1472 q 561 1465 551 1465 q 584 1472 573 1465 q 608 1496 596 1480 l 619 1511 q 677 1494 647 1511 q 718 1451 707 1478 l 707 1428 q 643 1347 683 1379 q 549 1315 603 1315 q 504 1322 526 1315 q 463 1338 481 1329 l 406 1367 m 549 1250 l 703 1108 q 667 1053 694 1076 q 620 1021 640 1029 l 460 1128 l 301 1021 q 255 1053 281 1029 q 219 1108 228 1076 l 373 1250 q 460 1259 413 1259 q 549 1250 508 1259 z "},"Ȍ":{"ha":926,"x_min":50,"x_max":876,"o":"m 282 475 q 288 363 282 420 q 312 258 294 306 q 367 180 331 210 q 463 150 403 150 q 559 180 524 150 q 614 258 595 210 q 638 363 632 306 q 644 475 644 420 q 638 586 644 530 q 614 691 632 643 q 559 769 595 740 q 463 799 524 799 q 367 769 403 799 q 312 691 331 740 q 288 586 294 643 q 282 475 282 530 m 50 475 q 95 735 50 624 q 231 908 140 846 q 463 969 323 969 q 696 907 604 969 q 832 734 788 845 q 876 475 876 623 q 831 214 876 326 q 695 41 786 103 q 463 -21 603 -21 q 231 42 322 -21 q 94 216 139 104 q 50 475 50 327 m 242 1306 l 437 1093 q 405 1042 430 1066 q 358 1010 381 1018 l 109 1187 q 159 1261 125 1228 q 242 1306 193 1294 m 532 1306 l 726 1093 q 694 1043 719 1067 q 647 1010 670 1018 l 398 1187 q 448 1261 414 1228 q 532 1306 482 1294 z "},"Ö":{"ha":926,"x_min":50,"x_max":876,"o":"m 282 475 q 288 363 282 420 q 312 258 294 306 q 367 180 331 210 q 463 150 403 150 q 559 180 524 150 q 614 258 595 210 q 638 363 632 306 q 644 475 644 420 q 638 586 644 530 q 614 691 632 643 q 559 769 595 740 q 463 799 524 799 q 367 769 403 799 q 312 691 331 740 q 288 586 294 643 q 282 475 282 530 m 50 475 q 95 735 50 624 q 231 908 140 846 q 463 969 323 969 q 696 907 604 969 q 832 734 788 845 q 876 475 876 623 q 831 214 876 326 q 695 41 786 103 q 463 -21 603 -21 q 231 42 322 -21 q 94 216 139 104 q 50 475 50 327 m 622 1031 q 574 1036 599 1031 q 531 1053 549 1042 q 522 1091 524 1070 q 519 1124 519 1111 q 522 1158 519 1138 q 531 1195 524 1178 q 574 1212 549 1206 q 622 1218 599 1218 q 670 1212 645 1218 q 713 1195 694 1206 q 722 1158 719 1178 q 724 1124 724 1138 q 722 1091 724 1111 q 713 1053 719 1070 q 670 1036 694 1042 q 622 1031 645 1031 m 302 1031 q 254 1036 279 1031 q 211 1053 229 1042 q 202 1091 205 1070 q 199 1124 199 1111 q 202 1158 199 1138 q 211 1195 205 1178 q 254 1212 229 1206 q 302 1218 279 1218 q 350 1212 326 1218 q 393 1195 375 1206 q 402 1158 400 1178 q 405 1124 405 1138 q 402 1091 405 1111 q 393 1053 400 1070 q 350 1036 375 1042 q 302 1031 326 1031 z "},"Ȫ":{"ha":926,"x_min":50,"x_max":876,"o":"m 282 475 q 288 363 282 420 q 312 258 294 306 q 367 180 331 210 q 463 150 403 150 q 559 180 524 150 q 614 258 595 210 q 638 363 632 306 q 644 475 644 420 q 638 586 644 530 q 614 691 632 643 q 559 769 595 740 q 463 799 524 799 q 367 769 403 799 q 312 691 331 740 q 288 586 294 643 q 282 475 282 530 m 50 475 q 95 735 50 624 q 231 908 140 846 q 463 969 323 969 q 696 907 604 969 q 832 734 788 845 q 876 475 876 623 q 831 214 876 326 q 695 41 786 103 q 463 -21 603 -21 q 231 42 322 -21 q 94 216 139 104 q 50 475 50 327 m 622 1031 q 574 1036 599 1031 q 531 1053 549 1042 q 522 1091 524 1070 q 519 1124 519 1111 q 522 1158 519 1138 q 531 1195 524 1178 q 574 1212 549 1206 q 622 1218 599 1218 q 670 1212 645 1218 q 713 1195 694 1206 q 722 1158 719 1178 q 724 1124 724 1138 q 722 1091 724 1111 q 713 1053 719 1070 q 670 1036 694 1042 q 622 1031 645 1031 m 302 1031 q 254 1036 279 1031 q 211 1053 229 1042 q 202 1091 205 1070 q 199 1124 199 1111 q 202 1158 199 1138 q 211 1195 205 1178 q 254 1212 229 1206 q 302 1218 279 1218 q 350 1212 326 1218 q 393 1195 375 1206 q 402 1158 400 1178 q 405 1124 405 1138 q 402 1091 405 1111 q 393 1053 400 1070 q 350 1036 375 1042 q 302 1031 326 1031 m 240 1292 q 228 1369 228 1328 q 240 1447 228 1408 l 688 1447 q 696 1410 694 1426 q 698 1372 698 1395 q 688 1292 698 1331 l 240 1292 z "},"Ȱ":{"ha":926,"x_min":50,"x_max":876,"o":"m 282 475 q 288 363 282 420 q 312 258 294 306 q 367 180 331 210 q 463 150 403 150 q 559 180 524 150 q 614 258 595 210 q 638 363 632 306 q 644 475 644 420 q 638 586 644 530 q 614 691 632 643 q 559 769 595 740 q 463 799 524 799 q 367 769 403 799 q 312 691 331 740 q 288 586 294 643 q 282 475 282 530 m 50 475 q 95 735 50 624 q 231 908 140 846 q 463 969 323 969 q 696 907 604 969 q 832 734 788 845 q 876 475 876 623 q 831 214 876 326 q 695 41 786 103 q 463 -21 603 -21 q 231 42 322 -21 q 94 216 139 104 q 50 475 50 327 m 344 1133 q 348 1173 344 1152 q 360 1214 352 1194 q 407 1229 378 1223 q 463 1235 435 1235 q 521 1229 492 1235 q 567 1214 551 1223 q 578 1173 574 1194 q 583 1133 583 1151 q 567 1052 583 1092 q 521 1037 551 1043 q 463 1031 492 1031 q 406 1036 435 1031 q 360 1052 376 1042 q 344 1133 344 1092 m 240 1312 q 228 1390 228 1349 q 240 1467 228 1428 l 688 1467 q 696 1431 694 1446 q 698 1392 698 1415 q 688 1312 698 1351 l 240 1312 z "},"Ọ":{"ha":926,"x_min":50,"x_max":876,"o":"m 282 475 q 288 363 282 420 q 312 258 294 306 q 367 180 331 210 q 463 150 403 150 q 559 180 524 150 q 614 258 595 210 q 638 363 632 306 q 644 475 644 420 q 638 586 644 530 q 614 691 632 643 q 559 769 595 740 q 463 799 524 799 q 367 769 403 799 q 312 691 331 740 q 288 586 294 643 q 282 475 282 530 m 50 475 q 95 735 50 624 q 231 908 140 846 q 463 969 323 969 q 696 907 604 969 q 832 734 788 845 q 876 475 876 623 q 831 214 876 326 q 695 41 786 103 q 463 -21 603 -21 q 231 42 322 -21 q 94 216 139 104 q 50 475 50 327 m 344 -185 q 348 -144 344 -165 q 360 -103 352 -123 q 406 -88 376 -94 q 463 -82 435 -82 q 521 -88 492 -82 q 567 -103 551 -94 q 578 -144 574 -123 q 583 -185 583 -165 q 578 -224 583 -203 q 567 -265 574 -246 q 521 -281 551 -274 q 463 -287 492 -287 q 407 -281 435 -287 q 360 -265 378 -274 q 348 -225 352 -246 q 344 -185 344 -203 z "},"Ò":{"ha":926,"x_min":50,"x_max":876,"o":"m 282 475 q 288 363 282 420 q 312 258 294 306 q 367 180 331 210 q 463 150 403 150 q 559 180 524 150 q 614 258 595 210 q 638 363 632 306 q 644 475 644 420 q 638 586 644 530 q 614 691 632 643 q 559 769 595 740 q 463 799 524 799 q 367 769 403 799 q 312 691 331 740 q 288 586 294 643 q 282 475 282 530 m 50 475 q 95 735 50 624 q 231 908 140 846 q 463 969 323 969 q 696 907 604 969 q 832 734 788 845 q 876 475 876 623 q 831 214 876 326 q 695 41 786 103 q 463 -21 603 -21 q 231 42 322 -21 q 94 216 139 104 q 50 475 50 327 m 338 1304 q 303 1264 322 1291 q 270 1205 284 1238 q 254 1141 256 1173 l 588 1010 q 630 1055 615 1025 q 649 1114 644 1084 l 338 1304 z "},"Ỏ":{"ha":926,"x_min":50,"x_max":876,"o":"m 282 475 q 288 363 282 420 q 312 258 294 306 q 367 180 331 210 q 463 150 403 150 q 559 180 524 150 q 614 258 595 210 q 638 363 632 306 q 644 475 644 420 q 638 586 644 530 q 614 691 632 643 q 559 769 595 740 q 463 799 524 799 q 367 769 403 799 q 312 691 331 740 q 288 586 294 643 q 282 475 282 530 m 50 475 q 95 735 50 624 q 231 908 140 846 q 463 969 323 969 q 696 907 604 969 q 832 734 788 845 q 876 475 876 623 q 831 214 876 326 q 695 41 786 103 q 463 -21 603 -21 q 231 42 322 -21 q 94 216 139 104 q 50 475 50 327 m 386 1102 q 446 1130 425 1114 q 467 1165 467 1146 q 453 1192 467 1183 q 418 1202 439 1202 q 384 1197 401 1202 q 350 1183 367 1192 q 322 1230 331 1203 q 312 1283 313 1256 q 379 1309 340 1299 q 459 1319 419 1319 q 583 1279 542 1319 q 624 1186 624 1239 q 573 1080 624 1127 q 438 1010 522 1033 q 401 1048 415 1024 q 386 1102 388 1073 z "},"Ơ":{"ha":933,"x_min":50,"x_max":938,"o":"m 50 475 q 97 741 50 631 q 236 911 144 852 q 463 969 328 969 q 557 962 518 969 q 624 947 595 954 q 679 939 653 939 q 737 958 718 939 q 756 1003 756 977 q 749 1045 756 1023 q 734 1079 741 1067 q 805 1116 760 1101 q 901 1127 850 1131 q 926 1071 913 1108 q 938 992 938 1034 q 902 888 938 934 q 783 822 865 842 q 853 669 830 758 q 876 475 876 581 q 831 214 876 326 q 695 41 786 103 q 463 -21 603 -21 q 231 42 322 -21 q 94 216 139 104 q 50 475 50 327 m 282 475 q 288 363 282 420 q 312 258 294 306 q 367 180 331 210 q 463 150 403 150 q 559 180 524 150 q 614 258 595 210 q 638 363 632 306 q 644 475 644 420 q 638 586 644 530 q 614 691 632 643 q 559 769 595 740 q 463 799 524 799 q 367 769 403 799 q 312 691 331 740 q 288 586 294 643 q 282 475 282 530 z "},"Ớ":{"ha":933,"x_min":50,"x_max":938,"o":"m 50 475 q 97 741 50 631 q 236 911 144 852 q 463 969 328 969 q 557 962 518 969 q 624 947 595 954 q 679 939 653 939 q 737 958 718 939 q 756 1003 756 977 q 749 1045 756 1023 q 734 1079 741 1067 q 805 1116 760 1101 q 901 1127 850 1131 q 926 1071 913 1108 q 938 992 938 1034 q 902 888 938 934 q 783 822 865 842 q 853 669 830 758 q 876 475 876 581 q 831 214 876 326 q 695 41 786 103 q 463 -21 603 -21 q 231 42 322 -21 q 94 216 139 104 q 50 475 50 327 m 282 475 q 288 363 282 420 q 312 258 294 306 q 367 180 331 210 q 463 150 403 150 q 559 180 524 150 q 614 258 595 210 q 638 363 632 306 q 644 475 644 420 q 638 586 644 530 q 614 691 632 643 q 559 769 595 740 q 463 799 524 799 q 367 769 403 799 q 312 691 331 740 q 288 586 294 643 q 282 475 282 530 m 581 1304 q 616 1264 598 1291 q 649 1205 635 1238 q 665 1141 663 1173 l 331 1010 q 290 1054 308 1022 q 269 1114 273 1086 l 581 1304 z "},"Ợ":{"ha":933,"x_min":50,"x_max":938,"o":"m 50 475 q 97 741 50 631 q 236 911 144 852 q 463 969 328 969 q 557 962 518 969 q 624 947 595 954 q 679 939 653 939 q 737 958 718 939 q 756 1003 756 977 q 749 1045 756 1023 q 734 1079 741 1067 q 805 1116 760 1101 q 901 1127 850 1131 q 926 1071 913 1108 q 938 992 938 1034 q 902 888 938 934 q 783 822 865 842 q 853 669 830 758 q 876 475 876 581 q 831 214 876 326 q 695 41 786 103 q 463 -21 603 -21 q 231 42 322 -21 q 94 216 139 104 q 50 475 50 327 m 282 475 q 288 363 282 420 q 312 258 294 306 q 367 180 331 210 q 463 150 403 150 q 559 180 524 150 q 614 258 595 210 q 638 363 632 306 q 644 475 644 420 q 638 586 644 530 q 614 691 632 643 q 559 769 595 740 q 463 799 524 799 q 367 769 403 799 q 312 691 331 740 q 288 586 294 643 q 282 475 282 530 m 344 -185 q 348 -144 344 -165 q 360 -103 352 -123 q 406 -88 376 -94 q 463 -82 435 -82 q 521 -88 492 -82 q 567 -103 551 -94 q 578 -144 574 -123 q 583 -185 583 -165 q 578 -224 583 -203 q 567 -265 574 -246 q 521 -281 551 -274 q 463 -287 492 -287 q 407 -281 435 -287 q 360 -265 378 -274 q 348 -225 352 -246 q 344 -185 344 -203 z "},"Ờ":{"ha":933,"x_min":50,"x_max":938,"o":"m 50 475 q 97 741 50 631 q 236 911 144 852 q 463 969 328 969 q 557 962 518 969 q 624 947 595 954 q 679 939 653 939 q 737 958 718 939 q 756 1003 756 977 q 749 1045 756 1023 q 734 1079 741 1067 q 805 1116 760 1101 q 901 1127 850 1131 q 926 1071 913 1108 q 938 992 938 1034 q 902 888 938 934 q 783 822 865 842 q 853 669 830 758 q 876 475 876 581 q 831 214 876 326 q 695 41 786 103 q 463 -21 603 -21 q 231 42 322 -21 q 94 216 139 104 q 50 475 50 327 m 282 475 q 288 363 282 420 q 312 258 294 306 q 367 180 331 210 q 463 150 403 150 q 559 180 524 150 q 614 258 595 210 q 638 363 632 306 q 644 475 644 420 q 638 586 644 530 q 614 691 632 643 q 559 769 595 740 q 463 799 524 799 q 367 769 403 799 q 312 691 331 740 q 288 586 294 643 q 282 475 282 530 m 317 1304 q 282 1264 301 1291 q 249 1205 263 1238 q 233 1141 235 1173 l 567 1010 q 609 1055 594 1025 q 628 1114 624 1084 l 317 1304 z "},"Ở":{"ha":933,"x_min":50,"x_max":938,"o":"m 50 475 q 97 741 50 631 q 236 911 144 852 q 463 969 328 969 q 557 962 518 969 q 624 947 595 954 q 679 939 653 939 q 737 958 718 939 q 756 1003 756 977 q 749 1045 756 1023 q 734 1079 741 1067 q 805 1116 760 1101 q 901 1127 850 1131 q 926 1071 913 1108 q 938 992 938 1034 q 902 888 938 934 q 783 822 865 842 q 853 669 830 758 q 876 475 876 581 q 831 214 876 326 q 695 41 786 103 q 463 -21 603 -21 q 231 42 322 -21 q 94 216 139 104 q 50 475 50 327 m 282 475 q 288 363 282 420 q 312 258 294 306 q 367 180 331 210 q 463 150 403 150 q 559 180 524 150 q 614 258 595 210 q 638 363 632 306 q 644 475 644 420 q 638 586 644 530 q 614 691 632 643 q 559 769 595 740 q 463 799 524 799 q 367 769 403 799 q 312 691 331 740 q 288 586 294 643 q 282 475 282 530 m 386 1102 q 446 1130 425 1114 q 467 1165 467 1146 q 453 1192 467 1183 q 418 1202 439 1202 q 384 1197 401 1202 q 350 1183 367 1192 q 322 1230 331 1203 q 312 1283 313 1256 q 379 1309 340 1299 q 459 1319 419 1319 q 583 1279 542 1319 q 624 1186 624 1239 q 573 1080 624 1127 q 438 1010 522 1033 q 401 1048 415 1024 q 386 1102 388 1073 z "},"Ỡ":{"ha":933,"x_min":50,"x_max":938,"o":"m 50 475 q 97 741 50 631 q 236 911 144 852 q 463 969 328 969 q 557 962 518 969 q 624 947 595 954 q 679 939 653 939 q 737 958 718 939 q 756 1003 756 977 q 749 1045 756 1023 q 734 1079 741 1067 q 805 1116 760 1101 q 901 1127 850 1131 q 926 1071 913 1108 q 938 992 938 1034 q 902 888 938 934 q 783 822 865 842 q 853 669 830 758 q 876 475 876 581 q 831 214 876 326 q 695 41 786 103 q 463 -21 603 -21 q 231 42 322 -21 q 94 216 139 104 q 50 475 50 327 m 282 475 q 288 363 282 420 q 312 258 294 306 q 367 180 331 210 q 463 150 403 150 q 559 180 524 150 q 614 258 595 210 q 638 363 632 306 q 644 475 644 420 q 638 586 644 530 q 614 691 632 643 q 559 769 595 740 q 463 799 524 799 q 367 769 403 799 q 312 691 331 740 q 288 586 294 643 q 282 475 282 530 m 393 1082 q 372 1091 383 1088 q 351 1094 360 1094 q 324 1087 338 1094 q 299 1061 310 1079 l 287 1044 q 223 1062 256 1044 q 178 1109 190 1080 l 190 1135 q 259 1223 215 1188 q 362 1258 303 1258 q 412 1250 388 1258 q 456 1231 437 1243 l 492 1210 q 513 1201 501 1204 q 534 1197 524 1197 q 561 1205 547 1197 q 586 1231 574 1213 l 598 1248 q 662 1230 628 1248 q 706 1183 695 1211 l 694 1157 q 625 1069 669 1103 q 523 1034 581 1034 q 472 1042 497 1034 q 428 1060 447 1049 l 393 1082 z "},"Ő":{"ha":926,"x_min":50,"x_max":876,"o":"m 282 475 q 288 363 282 420 q 312 258 294 306 q 367 180 331 210 q 463 150 403 150 q 559 180 524 150 q 614 258 595 210 q 638 363 632 306 q 644 475 644 420 q 638 586 644 530 q 614 691 632 643 q 559 769 595 740 q 463 799 524 799 q 367 769 403 799 q 312 691 331 740 q 288 586 294 643 q 282 475 282 530 m 50 475 q 95 735 50 624 q 231 908 140 846 q 463 969 323 969 q 696 907 604 969 q 832 734 788 845 q 876 475 876 623 q 831 214 876 326 q 695 41 786 103 q 463 -21 603 -21 q 231 42 322 -21 q 94 216 139 104 q 50 475 50 327 m 684 1306 q 767 1261 733 1294 q 817 1187 801 1228 l 568 1010 q 522 1042 547 1018 q 490 1093 497 1066 l 684 1306 m 394 1306 q 478 1261 444 1294 q 528 1187 513 1228 l 279 1010 q 232 1043 256 1018 q 201 1093 208 1067 l 394 1306 z "},"Ȏ":{"ha":926,"x_min":50,"x_max":876,"o":"m 282 475 q 288 363 282 420 q 312 258 294 306 q 367 180 331 210 q 463 150 403 150 q 559 180 524 150 q 614 258 595 210 q 638 363 632 306 q 644 475 644 420 q 638 586 644 530 q 614 691 632 643 q 559 769 595 740 q 463 799 524 799 q 367 769 403 799 q 312 691 331 740 q 288 586 294 643 q 282 475 282 530 m 50 475 q 95 735 50 624 q 231 908 140 846 q 463 969 323 969 q 696 907 604 969 q 832 734 788 845 q 876 475 876 623 q 831 214 876 326 q 695 41 786 103 q 463 -21 603 -21 q 231 42 322 -21 q 94 216 139 104 q 50 475 50 327 m 719 1080 q 667 1044 700 1057 q 601 1033 635 1031 q 547 1096 582 1073 q 463 1119 511 1119 q 380 1096 415 1119 q 326 1033 344 1073 q 259 1044 292 1031 q 207 1080 226 1057 q 296 1217 226 1163 q 463 1272 365 1272 q 631 1217 561 1272 q 719 1080 700 1163 z "},"Ō":{"ha":926,"x_min":50,"x_max":876,"o":"m 282 475 q 288 363 282 420 q 312 258 294 306 q 367 180 331 210 q 463 150 403 150 q 559 180 524 150 q 614 258 595 210 q 638 363 632 306 q 644 475 644 420 q 638 586 644 530 q 614 691 632 643 q 559 769 595 740 q 463 799 524 799 q 367 769 403 799 q 312 691 331 740 q 288 586 294 643 q 282 475 282 530 m 50 475 q 95 735 50 624 q 231 908 140 846 q 463 969 323 969 q 696 907 604 969 q 832 734 788 845 q 876 475 876 623 q 831 214 876 326 q 695 41 786 103 q 463 -21 603 -21 q 231 42 322 -21 q 94 216 139 104 q 50 475 50 327 m 240 1050 q 228 1128 228 1087 q 240 1206 228 1167 l 688 1206 q 696 1169 694 1184 q 698 1130 698 1153 q 688 1050 698 1089 l 240 1050 z "},"Ṓ":{"ha":926,"x_min":50,"x_max":876,"o":"m 282 475 q 288 363 282 420 q 312 258 294 306 q 367 180 331 210 q 463 150 403 150 q 559 180 524 150 q 614 258 595 210 q 638 363 632 306 q 644 475 644 420 q 638 586 644 530 q 614 691 632 643 q 559 769 595 740 q 463 799 524 799 q 367 769 403 799 q 312 691 331 740 q 288 586 294 643 q 282 475 282 530 m 50 475 q 95 735 50 624 q 231 908 140 846 q 463 969 323 969 q 696 907 604 969 q 832 734 788 845 q 876 475 876 623 q 831 214 876 326 q 695 41 786 103 q 463 -21 603 -21 q 231 42 322 -21 q 94 216 139 104 q 50 475 50 327 m 240 1050 q 228 1128 228 1087 q 240 1206 228 1167 l 688 1206 q 696 1169 694 1184 q 698 1130 698 1153 q 688 1050 698 1089 l 240 1050 m 601 1556 q 637 1516 619 1542 q 669 1457 656 1489 q 685 1392 683 1424 l 351 1261 q 311 1306 328 1274 q 290 1365 294 1338 l 601 1556 z "}}}
